Sansita-Italic.ufo
<glyph name="exclam" format="1">
  <advance width="248"/>
  <unicode hex="0021"/>
  <outline>
    <contour>
      <point x="64" y="272" type="line" smooth="yes"/>
      <point x="62" y="263"/>
      <point x="59" y="246"/>
      <point x="59" y="233" type="curve" smooth="yes"/>
      <point x="59" y="202"/>
      <point x="76" y="180"/>
      <point x="110" y="180" type="curve" smooth="yes"/>
      <point x="129" y="180"/>
      <point x="148" y="187"/>
      <point x="159" y="199" type="curve"/>
      <point x="162" y="321"/>
      <point x="252" y="514"/>
      <point x="252" y="613" type="curve" smooth="yes"/>
      <point x="252" y="655"/>
      <point x="236" y="680"/>
      <point x="192" y="680" type="curve" smooth="yes"/>
      <point x="172" y="680"/>
      <point x="154" y="675"/>
      <point x="141" y="670" type="curve"/>
    </contour>
    <component base="period" xOffset="28"/>
  </outline>
</glyph>
<glyph name="quotedbl" format="1">
  <advance width="395"/>
  <unicode hex="0022"/>
  <outline>
    <contour>
      <point x="192" y="491" type="line"/>
      <point x="221" y="522"/>
      <point x="250" y="600"/>
      <point x="250" y="648" type="curve" smooth="yes"/>
      <point x="250" y="691"/>
      <point x="227" y="710"/>
      <point x="186" y="710" type="curve" smooth="yes"/>
      <point x="170" y="710"/>
      <point x="153" y="707"/>
      <point x="142" y="704" type="curve"/>
      <point x="141" y="637"/>
      <point x="130" y="555"/>
      <point x="114" y="491" type="curve"/>
    </contour>
    <contour>
      <point x="362" y="491" type="line"/>
      <point x="391" y="522"/>
      <point x="420" y="600"/>
      <point x="420" y="648" type="curve" smooth="yes"/>
      <point x="420" y="691"/>
      <point x="397" y="710"/>
      <point x="356" y="710" type="curve" smooth="yes"/>
      <point x="340" y="710"/>
      <point x="323" y="707"/>
      <point x="312" y="704" type="curve"/>
      <point x="311" y="637"/>
      <point x="300" y="555"/>
      <point x="284" y="491" type="curve"/>
    </contour>
  </outline>
</glyph>
<glyph name="numbersign" format="1">
  <advance width="554"/>
  <unicode hex="0023"/>
  <outline>
    <contour>
      <point x="419" y="258" type="line"/>
      <point x="439" y="388" type="line"/>
      <point x="501" y="388" type="line" smooth="yes"/>
      <point x="540" y="388"/>
      <point x="562" y="412"/>
      <point x="562" y="450" type="curve" smooth="yes"/>
      <point x="562" y="461"/>
      <point x="560" y="475"/>
      <point x="558" y="486" type="curve"/>
      <point x="454" y="486" type="line"/>
      <point x="479" y="653" type="line"/>
      <point x="463" y="660"/>
      <point x="449" y="663"/>
      <point x="436" y="663" type="curve" smooth="yes"/>
      <point x="405" y="663"/>
      <point x="385" y="644"/>
      <point x="380" y="612" type="curve" smooth="yes"/>
      <point x="360" y="486" type="line"/>
      <point x="247" y="486" type="line"/>
      <point x="273" y="653" type="line"/>
      <point x="256" y="660"/>
      <point x="242" y="663"/>
      <point x="229" y="663" type="curve" smooth="yes"/>
      <point x="198" y="663"/>
      <point x="178" y="644"/>
      <point x="173" y="612" type="curve" smooth="yes"/>
      <point x="154" y="486" type="line"/>
      <point x="86" y="486" type="line" smooth="yes"/>
      <point x="47" y="486"/>
      <point x="24" y="462"/>
      <point x="24" y="424" type="curve" smooth="yes"/>
      <point x="24" y="413"/>
      <point x="26" y="401"/>
      <point x="30" y="388" type="curve"/>
      <point x="137" y="388" type="line"/>
      <point x="116" y="258" type="line"/>
      <point x="57" y="258" type="line" smooth="yes"/>
      <point x="18" y="258"/>
      <point x="-5" y="234"/>
      <point x="-5" y="195" type="curve" smooth="yes"/>
      <point x="-5" y="184"/>
      <point x="-3" y="173"/>
      <point x="0" y="160" type="curve"/>
      <point x="99" y="160" type="line"/>
      <point x="73" y="11" type="line"/>
      <point x="87" y="4"/>
      <point x="101" y="0"/>
      <point x="115" y="0" type="curve" smooth="yes"/>
      <point x="147" y="0"/>
      <point x="175" y="20"/>
      <point x="180" y="52" type="curve" smooth="yes"/>
      <point x="197" y="160" type="line"/>
      <point x="306" y="160" type="line"/>
      <point x="280" y="11" type="line"/>
      <point x="294" y="4"/>
      <point x="308" y="0"/>
      <point x="322" y="0" type="curve" smooth="yes"/>
      <point x="354" y="0"/>
      <point x="382" y="20"/>
      <point x="387" y="52" type="curve" smooth="yes"/>
      <point x="404" y="160" type="line"/>
      <point x="470" y="160" type="line" smooth="yes"/>
      <point x="510" y="160"/>
      <point x="533" y="184"/>
      <point x="533" y="222" type="curve" smooth="yes"/>
      <point x="533" y="233"/>
      <point x="531" y="245"/>
      <point x="527" y="258" type="curve"/>
    </contour>
    <contour>
      <point x="213" y="258" type="line"/>
      <point x="232" y="388" type="line"/>
      <point x="344" y="388" type="line"/>
      <point x="323" y="258" type="line"/>
    </contour>
  </outline>
</glyph>
<glyph name="dollar" format="1">
  <advance width="554"/>
  <unicode hex="0024"/>
  <outline>
    <contour>
      <point x="371" y="655" type="line"/>
      <point x="391" y="759" type="line"/>
      <point x="380" y="761"/>
      <point x="368" y="763"/>
      <point x="355" y="763" type="curve" smooth="yes"/>
      <point x="320" y="763"/>
      <point x="307" y="749"/>
      <point x="297" y="699" type="curve" smooth="yes"/>
      <point x="288" y="654" type="line"/>
    </contour>
    <contour>
      <point x="159" y="-6" type="line"/>
      <point x="138" y="-113" type="line"/>
      <point x="147" y="-116"/>
      <point x="163" y="-117"/>
      <point x="174" y="-117" type="curve" smooth="yes"/>
      <point x="213" y="-117"/>
      <point x="226" y="-103"/>
      <point x="235" y="-53" type="curve" smooth="yes"/>
      <point x="243" y="-10" type="line"/>
    </contour>
    <contour>
      <point x="212" y="668"/>
      <point x="105" y="598"/>
      <point x="105" y="480" type="curve" smooth="yes"/>
      <point x="105" y="385"/>
      <point x="175" y="335"/>
      <point x="239" y="287" type="curve" smooth="yes"/>
      <point x="294" y="245"/>
      <point x="348" y="206"/>
      <point x="348" y="144" type="curve" smooth="yes"/>
      <point x="348" y="82"/>
      <point x="295" y="42"/>
      <point x="236" y="42" type="curve" smooth="yes"/>
      <point x="191" y="42"/>
      <point x="154" y="64"/>
      <point x="154" y="110" type="curve" smooth="yes"/>
      <point x="154" y="128"/>
      <point x="160" y="160"/>
      <point x="169" y="181" type="curve"/>
      <point x="157" y="189"/>
      <point x="138" y="194"/>
      <point x="119" y="194" type="curve" smooth="yes"/>
      <point x="74" y="194"/>
      <point x="30" y="166"/>
      <point x="30" y="106" type="curve" smooth="yes"/>
      <point x="30" y="20"/>
      <point x="119" y="-22"/>
      <point x="216" y="-22" type="curve" smooth="yes"/>
      <point x="344" y="-22"/>
      <point x="461" y="53"/>
      <point x="461" y="175" type="curve" smooth="yes"/>
      <point x="461" y="267"/>
      <point x="393" y="318"/>
      <point x="330" y="364" type="curve" smooth="yes"/>
      <point x="273" y="406"/>
      <point x="217" y="447"/>
      <point x="217" y="513" type="curve" smooth="yes"/>
      <point x="217" y="566"/>
      <point x="254" y="606"/>
      <point x="308" y="606" type="curve" smooth="yes"/>
      <point x="352" y="606"/>
      <point x="378" y="580"/>
      <point x="378" y="537" type="curve" smooth="yes"/>
      <point x="378" y="517"/>
      <point x="372" y="486"/>
      <point x="363" y="465" type="curve"/>
      <point x="375" y="457"/>
      <point x="394" y="452"/>
      <point x="411" y="452" type="curve" smooth="yes"/>
      <point x="455" y="452"/>
      <point x="502" y="484"/>
      <point x="502" y="552" type="curve" smooth="yes"/>
      <point x="502" y="634"/>
      <point x="435" y="668"/>
      <point x="343" y="668" type="curve" smooth="yes"/>
    </contour>
  </outline>
</glyph>
<glyph name="percent" format="1">
  <advance width="983"/>
  <unicode hex="0025"/>
  <outline>
    <contour>
      <point x="855" y="650" type="line"/>
      <point x="846" y="675"/>
      <point x="822" y="683"/>
      <point x="797" y="683" type="curve" smooth="yes"/>
      <point x="766" y="683"/>
      <point x="739" y="671"/>
      <point x="718" y="650" type="curve" smooth="yes"/>
      <point x="109" y="11" type="line"/>
      <point x="118" y="-14"/>
      <point x="142" y="-22"/>
      <point x="167" y="-22" type="curve" smooth="yes"/>
      <point x="198" y="-22"/>
      <point x="225" y="-10"/>
      <point x="246" y="11" type="curve" smooth="yes"/>
    </contour>
    <contour>
      <point x="411" y="635"/>
      <point x="368" y="674"/>
      <point x="286" y="674" type="curve" smooth="yes"/>
      <point x="138" y="674"/>
      <point x="76" y="548"/>
      <point x="76" y="427" type="curve" smooth="yes"/>
      <point x="76" y="327"/>
      <point x="119" y="286"/>
      <point x="202" y="286" type="curve" smooth="yes"/>
      <point x="352" y="286"/>
      <point x="411" y="419"/>
      <point x="411" y="536" type="curve" smooth="yes"/>
    </contour>
    <contour>
      <point x="185" y="344"/>
      <point x="173" y="372"/>
      <point x="173" y="418" type="curve" smooth="yes"/>
      <point x="173" y="480"/>
      <point x="195" y="616"/>
      <point x="270" y="616" type="curve" smooth="yes"/>
      <point x="303" y="616"/>
      <point x="315" y="589"/>
      <point x="315" y="546" type="curve" smooth="yes"/>
      <point x="315" y="489"/>
      <point x="294" y="344"/>
      <point x="218" y="344" type="curve" smooth="yes"/>
    </contour>
    <contour>
      <point x="907" y="330"/>
      <point x="864" y="369"/>
      <point x="782" y="369" type="curve" smooth="yes"/>
      <point x="634" y="369"/>
      <point x="572" y="243"/>
      <point x="572" y="122" type="curve" smooth="yes"/>
      <point x="572" y="22"/>
      <point x="615" y="-19"/>
      <point x="698" y="-19" type="curve" smooth="yes"/>
      <point x="848" y="-19"/>
      <point x="907" y="114"/>
      <point x="907" y="231" type="curve" smooth="yes"/>
    </contour>
    <contour>
      <point x="681" y="39"/>
      <point x="669" y="67"/>
      <point x="669" y="113" type="curve" smooth="yes"/>
      <point x="669" y="175"/>
      <point x="691" y="311"/>
      <point x="766" y="311" type="curve" smooth="yes"/>
      <point x="799" y="311"/>
      <point x="811" y="284"/>
      <point x="811" y="241" type="curve" smooth="yes"/>
      <point x="811" y="184"/>
      <point x="790" y="39"/>
      <point x="714" y="39" type="curve" smooth="yes"/>
    </contour>
  </outline>
</glyph>
<glyph name="ampersand" format="1">
  <advance width="665"/>
  <unicode hex="0026"/>
  <outline>
    <contour>
      <point x="355" y="77" type="line"/>
      <point x="330" y="58"/>
      <point x="294" y="53"/>
      <point x="269" y="53" type="curve" smooth="yes"/>
      <point x="181" y="53"/>
      <point x="139" y="119"/>
      <point x="139" y="192" type="curve" smooth="yes"/>
      <point x="139" y="248"/>
      <point x="164" y="283"/>
      <point x="195" y="298" type="curve"/>
      <point x="174" y="361" type="line"/>
      <point x="92" y="332"/>
      <point x="14" y="275"/>
      <point x="14" y="171" type="curve" smooth="yes"/>
      <point x="14" y="53"/>
      <point x="116" y="-20"/>
      <point x="245" y="-20" type="curve" smooth="yes"/>
      <point x="296" y="-20"/>
      <point x="362" y="-9"/>
      <point x="421" y="30" type="curve"/>
    </contour>
    <contour>
      <point x="435" y="74"/>
      <point x="259" y="296"/>
      <point x="259" y="487" type="curve" smooth="yes"/>
      <point x="259" y="564"/>
      <point x="288" y="611"/>
      <point x="356" y="611" type="curve" smooth="yes"/>
      <point x="404" y="611"/>
      <point x="421" y="587"/>
      <point x="421" y="540" type="curve" smooth="yes"/>
      <point x="421" y="524"/>
      <point x="419" y="507"/>
      <point x="415" y="493" type="curve"/>
      <point x="428" y="487"/>
      <point x="445" y="485"/>
      <point x="457" y="485" type="curve" smooth="yes"/>
      <point x="514" y="485"/>
      <point x="539" y="530"/>
      <point x="539" y="575" type="curve" smooth="yes"/>
      <point x="539" y="660"/>
      <point x="451" y="680"/>
      <point x="377" y="680" type="curve" smooth="yes"/>
      <point x="251" y="680"/>
      <point x="139" y="622"/>
      <point x="139" y="466" type="curve" smooth="yes"/>
      <point x="139" y="268"/>
      <point x="360" y="-20"/>
      <point x="543" y="-20" type="curve" smooth="yes"/>
      <point x="598" y="-20"/>
      <point x="631" y="7"/>
      <point x="631" y="49" type="curve" smooth="yes"/>
      <point x="631" y="59"/>
      <point x="629" y="69"/>
      <point x="623" y="84" type="curve"/>
      <point x="610" y="78"/>
      <point x="588" y="74"/>
      <point x="569" y="74" type="curve" smooth="yes"/>
    </contour>
    <contour>
      <point x="482" y="93" type="line"/>
      <point x="530" y="145"/>
      <point x="571" y="219"/>
      <point x="571" y="286" type="curve" smooth="yes"/>
      <point x="571" y="342"/>
      <point x="547" y="376"/>
      <point x="488" y="376" type="curve" smooth="yes"/>
      <point x="462" y="376"/>
      <point x="435" y="369"/>
      <point x="416" y="357" type="curve"/>
      <point x="437" y="333"/>
      <point x="453" y="299"/>
      <point x="452" y="261" type="curve" smooth="yes"/>
      <point x="452" y="227"/>
      <point x="443" y="179"/>
      <point x="415" y="141" type="curve"/>
    </contour>
  </outline>
</glyph>
<glyph name="quotesingle" format="1">
  <advance width="225"/>
  <unicode hex="0027"/>
  <outline>
    <contour>
      <point x="192" y="491" type="line"/>
      <point x="221" y="522"/>
      <point x="250" y="600"/>
      <point x="250" y="648" type="curve" smooth="yes"/>
      <point x="250" y="691"/>
      <point x="227" y="710"/>
      <point x="186" y="710" type="curve" smooth="yes"/>
      <point x="170" y="710"/>
      <point x="153" y="707"/>
      <point x="142" y="704" type="curve"/>
      <point x="141" y="637"/>
      <point x="130" y="555"/>
      <point x="114" y="491" type="curve"/>
    </contour>
  </outline>
</glyph>
<glyph name="parenleft" format="1">
  <advance width="377"/>
  <unicode hex="0028"/>
  <outline>
    <contour>
      <point x="487" y="794"/>
      <point x="471" y="800"/>
      <point x="447" y="800" type="curve" smooth="yes"/>
      <point x="269" y="800"/>
      <point x="82" y="472"/>
      <point x="82" y="167" type="curve" smooth="yes"/>
      <point x="82" y="-30"/>
      <point x="159" y="-200"/>
      <point x="259" y="-200" type="curve" smooth="yes"/>
      <point x="279" y="-200"/>
      <point x="291" y="-193"/>
      <point x="295" y="-180" type="curve"/>
      <point x="229" y="-105"/>
      <point x="203" y="-10"/>
      <point x="203" y="133" type="curve" smooth="yes"/>
      <point x="203" y="417"/>
      <point x="306" y="659"/>
      <point x="497" y="780" type="curve"/>
    </contour>
  </outline>
</glyph>
<glyph name="parenright" format="1">
  <advance width="407"/>
  <unicode hex="0029"/>
  <outline>
    <contour>
      <point x="178" y="705"/>
      <point x="211" y="585"/>
      <point x="211" y="454" type="curve" smooth="yes"/>
      <point x="211" y="218"/>
      <point x="107" y="-56"/>
      <point x="-90" y="-180" type="curve"/>
      <point x="-80" y="-194"/>
      <point x="-64" y="-200"/>
      <point x="-40" y="-200" type="curve" smooth="yes"/>
      <point x="138" y="-200"/>
      <point x="325" y="128"/>
      <point x="325" y="433" type="curve" smooth="yes"/>
      <point x="325" y="630"/>
      <point x="248" y="800"/>
      <point x="148" y="800" type="curve" smooth="yes"/>
      <point x="128" y="800"/>
      <point x="116" y="793"/>
      <point x="112" y="780" type="curve"/>
    </contour>
  </outline>
</glyph>
<glyph name="asterisk" format="1">
  <advance width="426"/>
  <unicode hex="002A"/>
  <outline>
    <contour>
      <point x="305" y="538" type="line"/>
      <point x="319" y="576"/>
      <point x="329" y="615"/>
      <point x="329" y="646" type="curve" smooth="yes"/>
      <point x="329" y="675"/>
      <point x="320" y="697"/>
      <point x="289" y="697" type="curve" smooth="yes"/>
      <point x="274" y="697"/>
      <point x="258" y="692"/>
      <point x="243" y="683" type="curve"/>
      <point x="235" y="553" type="line"/>
      <point x="203" y="579"/>
      <point x="168" y="601"/>
      <point x="138" y="611" type="curve"/>
      <point x="111" y="619"/>
      <point x="87" y="618"/>
      <point x="77" y="588" type="curve"/>
      <point x="73" y="574"/>
      <point x="73" y="557"/>
      <point x="77" y="540" type="curve"/>
      <point x="197" y="493" type="line"/>
      <point x="161" y="471"/>
      <point x="129" y="444"/>
      <point x="110" y="418" type="curve" smooth="yes"/>
      <point x="93" y="394"/>
      <point x="87" y="371"/>
      <point x="113" y="353" type="curve"/>
      <point x="125" y="344"/>
      <point x="141" y="339"/>
      <point x="158" y="337" type="curve"/>
      <point x="244" y="442" type="line"/>
      <point x="255" y="401"/>
      <point x="270" y="361"/>
      <point x="290" y="335" type="curve" smooth="yes"/>
      <point x="307" y="312"/>
      <point x="327" y="299"/>
      <point x="352" y="317" type="curve" smooth="yes"/>
      <point x="364" y="326"/>
      <point x="374" y="340"/>
      <point x="381" y="356" type="curve"/>
      <point x="310" y="466" type="line"/>
      <point x="351" y="464"/>
      <point x="391" y="467"/>
      <point x="421" y="477" type="curve" smooth="yes"/>
      <point x="449" y="486"/>
      <point x="467" y="501"/>
      <point x="457" y="531" type="curve"/>
      <point x="453" y="545"/>
      <point x="443" y="558"/>
      <point x="430" y="570" type="curve"/>
    </contour>
  </outline>
</glyph>
<glyph name="plus" format="1">
  <advance width="554"/>
  <unicode hex="002B"/>
  <outline>
    <contour>
      <point x="104" y="284" type="line" smooth="yes"/>
      <point x="68" y="284"/>
      <point x="42" y="258"/>
      <point x="42" y="220" type="curve" smooth="yes"/>
      <point x="42" y="213"/>
      <point x="43" y="205"/>
      <point x="46" y="197" type="curve"/>
      <point x="199" y="197" type="line"/>
      <point x="162" y="12" type="line"/>
      <point x="174" y="8"/>
      <point x="186" y="6"/>
      <point x="198" y="6" type="curve" smooth="yes"/>
      <point x="234" y="6"/>
      <point x="258" y="25"/>
      <point x="264" y="58" type="curve" smooth="yes"/>
      <point x="292" y="197" type="line"/>
      <point x="400" y="197" type="line" smooth="yes"/>
      <point x="444" y="197"/>
      <point x="472" y="220"/>
      <point x="472" y="258" type="curve" smooth="yes"/>
      <point x="472" y="266"/>
      <point x="471" y="273"/>
      <point x="467" y="284" type="curve"/>
      <point x="309" y="284" type="line"/>
      <point x="344" y="461" type="line"/>
      <point x="333" y="465"/>
      <point x="320" y="466"/>
      <point x="312" y="466" type="curve" smooth="yes"/>
      <point x="273" y="466"/>
      <point x="246" y="444"/>
      <point x="240" y="410" type="curve" smooth="yes"/>
      <point x="215" y="284" type="line"/>
    </contour>
  </outline>
</glyph>
<glyph name="hyphen" format="1">
  <advance width="332"/>
  <unicode hex="002D"/>
  <outline>
    <contour>
      <point x="62" y="287" type="line" smooth="yes"/>
      <point x="29" y="287"/>
      <point x="8" y="265"/>
      <point x="8" y="232" type="curve" smooth="yes"/>
      <point x="8" y="219"/>
      <point x="11" y="198"/>
      <point x="16" y="187" type="curve"/>
      <point x="27" y="193"/>
      <point x="57" y="195"/>
      <point x="70" y="195" type="curve" smooth="yes"/>
      <point x="270" y="195" type="line" smooth="yes"/>
      <point x="303" y="195"/>
      <point x="324" y="217"/>
      <point x="324" y="250" type="curve" smooth="yes"/>
      <point x="324" y="263"/>
      <point x="321" y="283"/>
      <point x="316" y="295" type="curve"/>
      <point x="305" y="289"/>
      <point x="275" y="287"/>
      <point x="262" y="287" type="curve" smooth="yes"/>
    </contour>
  </outline>
</glyph>
<glyph name="period" format="1">
  <advance width="191"/>
  <unicode hex="002E"/>
  <outline>
    <contour>
      <point x="12" y="104"/>
      <point x="-22" y="83"/>
      <point x="-22" y="40" type="curve" smooth="yes"/>
      <point x="-22" y="-1"/>
      <point x="9" y="-22"/>
      <point x="51" y="-22" type="curve" smooth="yes"/>
      <point x="93" y="-22"/>
      <point x="127" y="-1"/>
      <point x="127" y="42" type="curve" smooth="yes"/>
      <point x="127" y="83"/>
      <point x="96" y="104"/>
      <point x="54" y="104" type="curve" smooth="yes"/>
    </contour>
  </outline>
</glyph>
<glyph name="slash" format="1">
  <advance width="317"/>
  <unicode hex="002F"/>
  <outline>
    <contour>
      <point x="365" y="719" type="line" smooth="yes"/>
      <point x="372" y="740"/>
      <point x="376" y="755"/>
      <point x="376" y="767" type="curve" smooth="yes"/>
      <point x="376" y="792"/>
      <point x="359" y="801"/>
      <point x="319" y="801" type="curve" smooth="yes"/>
      <point x="305" y="801"/>
      <point x="295" y="800"/>
      <point x="286" y="798" type="curve"/>
      <point x="-48" y="-124" type="line" smooth="yes"/>
      <point x="-53" y="-139"/>
      <point x="-58" y="-152"/>
      <point x="-58" y="-165" type="curve" smooth="yes"/>
      <point x="-58" y="-188"/>
      <point x="-42" y="-200"/>
      <point x="-5" y="-200" type="curve" smooth="yes"/>
      <point x="11" y="-200"/>
      <point x="27" y="-198"/>
      <point x="33" y="-196" type="curve"/>
    </contour>
  </outline>
</glyph>
<glyph name="zero" format="1">
  <advance width="554"/>
  <unicode hex="0030"/>
  <outline>
    <contour>
      <point x="116" y="680"/>
      <point x="27" y="415"/>
      <point x="27" y="213" type="curve" smooth="yes"/>
      <point x="27" y="68"/>
      <point x="73" y="-20"/>
      <point x="206" y="-20" type="curve" smooth="yes"/>
      <point x="436" y="-20"/>
      <point x="525" y="245"/>
      <point x="525" y="447" type="curve" smooth="yes"/>
      <point x="525" y="592"/>
      <point x="479" y="680"/>
      <point x="346" y="680" type="curve" smooth="yes"/>
    </contour>
    <contour>
      <point x="390" y="604"/>
      <point x="400" y="546"/>
      <point x="400" y="480" type="curve" smooth="yes"/>
      <point x="400" y="408"/>
      <point x="388" y="333"/>
      <point x="371" y="260" type="curve" smooth="yes"/>
      <point x="340" y="126"/>
      <point x="305" y="56"/>
      <point x="230" y="56" type="curve" smooth="yes"/>
      <point x="162" y="56"/>
      <point x="152" y="114"/>
      <point x="152" y="180" type="curve" smooth="yes"/>
      <point x="152" y="252"/>
      <point x="164" y="327"/>
      <point x="181" y="400" type="curve" smooth="yes"/>
      <point x="212" y="534"/>
      <point x="247" y="604"/>
      <point x="322" y="604" type="curve" smooth="yes"/>
    </contour>
  </outline>
</glyph>
<glyph name="one" format="1">
  <advance width="554"/>
  <unicode hex="0031"/>
  <outline>
    <contour>
      <point x="402" y="676" type="line"/>
      <point x="277" y="624"/>
      <point x="169" y="589"/>
      <point x="68" y="572" type="curve"/>
      <point x="73" y="531"/>
      <point x="92" y="493"/>
      <point x="140" y="493" type="curve" smooth="yes"/>
      <point x="192" y="493"/>
      <point x="274" y="521"/>
      <point x="310" y="549" type="curve"/>
      <point x="294" y="576" type="line"/>
      <point x="200" y="90" type="line"/>
      <point x="73" y="90" type="line" smooth="yes"/>
      <point x="16" y="90"/>
      <point x="-8" y="63"/>
      <point x="-8" y="26" type="curve" smooth="yes"/>
      <point x="-8" y="11"/>
      <point x="-4" y="-3"/>
      <point x="1" y="-12" type="curve"/>
      <point x="11" y="-4"/>
      <point x="38" y="0"/>
      <point x="70" y="0" type="curve" smooth="yes"/>
      <point x="102" y="0"/>
      <point x="385" y="-3"/>
      <point x="412" y="-3" type="curve" smooth="yes"/>
      <point x="470" y="-3"/>
      <point x="497" y="18"/>
      <point x="497" y="60" type="curve" smooth="yes"/>
      <point x="497" y="76"/>
      <point x="493" y="89"/>
      <point x="481" y="103" type="curve"/>
      <point x="472" y="91"/>
      <point x="454" y="87"/>
      <point x="431" y="87" type="curve" smooth="yes"/>
      <point x="318" y="87" type="line"/>
      <point x="429" y="660" type="line"/>
    </contour>
  </outline>
</glyph>
<glyph name="two" format="1">
  <advance width="554"/>
  <unicode hex="0032"/>
  <outline>
    <contour>
      <point x="46" y="123" type="line" smooth="yes"/>
      <point x="33" y="111"/>
      <point x="10" y="87"/>
      <point x="10" y="58" type="curve" smooth="yes"/>
      <point x="10" y="38"/>
      <point x="21" y="15"/>
      <point x="35" y="3" type="curve"/>
      <point x="52" y="10"/>
      <point x="75" y="15"/>
      <point x="105" y="15" type="curve" smooth="yes"/>
      <point x="184" y="15"/>
      <point x="276" y="-12"/>
      <point x="363" y="-12" type="curve" smooth="yes"/>
      <point x="422" y="-12"/>
      <point x="473" y="3"/>
      <point x="473" y="61" type="curve" smooth="yes"/>
      <point x="473" y="79"/>
      <point x="468" y="97"/>
      <point x="460" y="111" type="curve"/>
      <point x="433" y="95"/>
      <point x="402" y="89"/>
      <point x="352" y="89" type="curve" smooth="yes"/>
      <point x="279" y="89"/>
      <point x="210" y="98"/>
      <point x="156" y="107" type="curve"/>
      <point x="195" y="144"/>
      <point x="325" y="239"/>
      <point x="370" y="275" type="curve" smooth="yes"/>
      <point x="442" y="337"/>
      <point x="502" y="405"/>
      <point x="502" y="507" type="curve" smooth="yes"/>
      <point x="502" y="625"/>
      <point x="420" y="681"/>
      <point x="300" y="681" type="curve" smooth="yes"/>
      <point x="182" y="681"/>
      <point x="63" y="627"/>
      <point x="63" y="540" type="curve" smooth="yes"/>
      <point x="63" y="513"/>
      <point x="73" y="499"/>
      <point x="94" y="487" type="curve"/>
      <point x="132" y="544"/>
      <point x="184" y="589"/>
      <point x="267" y="589" type="curve" smooth="yes"/>
      <point x="345" y="589"/>
      <point x="382" y="550"/>
      <point x="382" y="494" type="curve" smooth="yes"/>
      <point x="382" y="420"/>
      <point x="323" y="356"/>
      <point x="237" y="280" type="curve" smooth="yes"/>
    </contour>
  </outline>
</glyph>
<glyph name="three" format="1">
  <advance width="554"/>
  <unicode hex="0033"/>
  <outline>
    <contour>
      <point x="172" y="302" type="line"/>
      <point x="276" y="302"/>
      <point x="365" y="283"/>
      <point x="365" y="188" type="curve" smooth="yes"/>
      <point x="365" y="110"/>
      <point x="296" y="77"/>
      <point x="201" y="77" type="curve" smooth="yes"/>
      <point x="130" y="77"/>
      <point x="75" y="105"/>
      <point x="35" y="163" type="curve"/>
      <point x="13" y="151"/>
      <point x="3" y="136"/>
      <point x="3" y="108" type="curve" smooth="yes"/>
      <point x="3" y="25"/>
      <point x="98" y="-19"/>
      <point x="196" y="-19" type="curve" smooth="yes"/>
      <point x="354" y="-19"/>
      <point x="490" y="71"/>
      <point x="490" y="204" type="curve" smooth="yes"/>
      <point x="490" y="289"/>
      <point x="436" y="331"/>
      <point x="342" y="351" type="curve"/>
      <point x="431" y="374"/>
      <point x="507" y="437"/>
      <point x="507" y="536" type="curve" smooth="yes"/>
      <point x="507" y="641"/>
      <point x="416" y="681"/>
      <point x="296" y="681" type="curve" smooth="yes"/>
      <point x="191" y="681"/>
      <point x="80" y="639"/>
      <point x="80" y="558" type="curve" smooth="yes"/>
      <point x="80" y="534"/>
      <point x="90" y="518"/>
      <point x="111" y="507" type="curve"/>
      <point x="149" y="556"/>
      <point x="200" y="589"/>
      <point x="265" y="589" type="curve" smooth="yes"/>
      <point x="339" y="589"/>
      <point x="385" y="566"/>
      <point x="385" y="512" type="curve" smooth="yes"/>
      <point x="385" y="418"/>
      <point x="270" y="373"/>
      <point x="182" y="365" type="curve"/>
    </contour>
  </outline>
</glyph>
<glyph name="four" format="1">
  <advance width="554"/>
  <unicode hex="0034"/>
  <outline>
    <contour>
      <point x="17" y="240" type="line" smooth="yes"/>
      <point x="0" y="219"/>
      <point x="-15" y="205"/>
      <point x="-15" y="181" type="curve" smooth="yes"/>
      <point x="-15" y="168"/>
      <point x="-11" y="153"/>
      <point x="-6" y="144" type="curve"/>
      <point x="280" y="144" type="line"/>
      <point x="253" y="0" type="line"/>
      <point x="369" y="0" type="line"/>
      <point x="397" y="142" type="line"/>
      <point x="449" y="142" type="line" smooth="yes"/>
      <point x="500" y="142"/>
      <point x="527" y="166"/>
      <point x="527" y="206" type="curve" smooth="yes"/>
      <point x="527" y="221"/>
      <point x="523" y="234"/>
      <point x="511" y="248" type="curve"/>
      <point x="502" y="236"/>
      <point x="484" y="232"/>
      <point x="461" y="232" type="curve" smooth="yes"/>
      <point x="414" y="232" type="line"/>
      <point x="451" y="424"/>
      <point x="476" y="557"/>
      <point x="498" y="660" type="curve"/>
      <point x="380" y="660" type="line"/>
    </contour>
    <contour>
      <point x="111" y="235" type="line"/>
      <point x="352" y="513" type="line"/>
      <point x="334" y="415"/>
      <point x="315" y="322"/>
      <point x="298" y="235" type="curve"/>
    </contour>
  </outline>
</glyph>
<glyph name="five" format="1">
  <advance width="554"/>
  <unicode hex="0035"/>
  <outline>
    <contour>
      <point x="140" y="660" type="line"/>
      <point x="59" y="313" type="line"/>
      <point x="86" y="317"/>
      <point x="150" y="322"/>
      <point x="194" y="322" type="curve" smooth="yes"/>
      <point x="303" y="322"/>
      <point x="372" y="293"/>
      <point x="372" y="204" type="curve" smooth="yes"/>
      <point x="372" y="123"/>
      <point x="310" y="77"/>
      <point x="202" y="77" type="curve" smooth="yes"/>
      <point x="132" y="77"/>
      <point x="73" y="105"/>
      <point x="33" y="163" type="curve"/>
      <point x="11" y="151"/>
      <point x="1" y="136"/>
      <point x="1" y="108" type="curve" smooth="yes"/>
      <point x="1" y="26"/>
      <point x="95" y="-19"/>
      <point x="197" y="-19" type="curve" smooth="yes"/>
      <point x="369" y="-19"/>
      <point x="497" y="87"/>
      <point x="497" y="229" type="curve" smooth="yes"/>
      <point x="497" y="361"/>
      <point x="387" y="403"/>
      <point x="238" y="403" type="curve" smooth="yes"/>
      <point x="210" y="403"/>
      <point x="188" y="402"/>
      <point x="168" y="401" type="curve"/>
      <point x="202" y="560" type="line"/>
      <point x="435" y="560" type="line" smooth="yes"/>
      <point x="487" y="560"/>
      <point x="526" y="579"/>
      <point x="526" y="629" type="curve" smooth="yes"/>
      <point x="526" y="648"/>
      <point x="520" y="663"/>
      <point x="508" y="676" type="curve"/>
      <point x="493" y="661"/>
      <point x="472" y="660"/>
      <point x="450" y="660" type="curve" smooth="yes"/>
    </contour>
  </outline>
</glyph>
<glyph name="six" format="1">
  <advance width="554"/>
  <unicode hex="0036"/>
  <outline>
    <contour>
      <point x="153" y="681"/>
      <point x="32" y="424"/>
      <point x="32" y="212" type="curve" smooth="yes"/>
      <point x="32" y="66"/>
      <point x="89" y="-20"/>
      <point x="226" y="-20" type="curve" smooth="yes"/>
      <point x="392" y="-20"/>
      <point x="485" y="107"/>
      <point x="485" y="263" type="curve" smooth="yes"/>
      <point x="485" y="378"/>
      <point x="435" y="449"/>
      <point x="331" y="449" type="curve" smooth="yes"/>
      <point x="267" y="449"/>
      <point x="204" y="422"/>
      <point x="170" y="369" type="curve"/>
      <point x="193" y="482"/>
      <point x="253" y="589"/>
      <point x="366" y="589" type="curve" smooth="yes"/>
      <point x="406" y="589"/>
      <point x="441" y="576"/>
      <point x="471" y="546" type="curve"/>
      <point x="490" y="557"/>
      <point x="498" y="576"/>
      <point x="498" y="597" type="curve" smooth="yes"/>
      <point x="498" y="661"/>
      <point x="425" y="681"/>
      <point x="366" y="681" type="curve" smooth="yes"/>
    </contour>
    <contour>
      <point x="349" y="375"/>
      <point x="363" y="323"/>
      <point x="363" y="267" type="curve" smooth="yes"/>
      <point x="363" y="179"/>
      <point x="328" y="56"/>
      <point x="234" y="56" type="curve" smooth="yes"/>
      <point x="172" y="56"/>
      <point x="158" y="108"/>
      <point x="158" y="167" type="curve" smooth="yes"/>
      <point x="158" y="259"/>
      <point x="193" y="375"/>
      <point x="286" y="375" type="curve" smooth="yes"/>
    </contour>
  </outline>
</glyph>
<glyph name="seven" format="1">
  <advance width="554"/>
  <unicode hex="0037"/>
  <outline>
    <contour>
      <point x="139" y="660" type="line" smooth="yes"/>
      <point x="117" y="660"/>
      <point x="96" y="661"/>
      <point x="81" y="676" type="curve"/>
      <point x="69" y="663"/>
      <point x="63" y="648"/>
      <point x="63" y="629" type="curve" smooth="yes"/>
      <point x="63" y="579"/>
      <point x="102" y="560"/>
      <point x="154" y="560" type="curve" smooth="yes"/>
      <point x="413" y="560" type="line"/>
      <point x="159" y="173" type="line" smooth="yes"/>
      <point x="139" y="142"/>
      <point x="111" y="91"/>
      <point x="111" y="49" type="curve" smooth="yes"/>
      <point x="111" y="7"/>
      <point x="139" y="-20"/>
      <point x="186" y="-20" type="curve" smooth="yes"/>
      <point x="208" y="-20"/>
      <point x="241" y="-14"/>
      <point x="264" y="-4" type="curve"/>
      <point x="263" y="5"/>
      <point x="263" y="14"/>
      <point x="263" y="21" type="curve" smooth="yes"/>
      <point x="263" y="51"/>
      <point x="264" y="167"/>
      <point x="439" y="425" type="curve" smooth="yes"/>
      <point x="489" y="499"/>
      <point x="528" y="552"/>
      <point x="567" y="603" type="curve"/>
      <point x="567" y="660" type="line"/>
    </contour>
  </outline>
</glyph>
<glyph name="eight" format="1">
  <advance width="554"/>
  <unicode hex="0038"/>
  <outline>
    <contour>
      <point x="233" y="680"/>
      <point x="113" y="614"/>
      <point x="113" y="493" type="curve" smooth="yes"/>
      <point x="113" y="429"/>
      <point x="146" y="389"/>
      <point x="188" y="354" type="curve"/>
      <point x="98" y="312"/>
      <point x="28" y="241"/>
      <point x="28" y="145" type="curve" smooth="yes"/>
      <point x="28" y="36"/>
      <point x="118" y="-19"/>
      <point x="225" y="-19" type="curve" smooth="yes"/>
      <point x="359" y="-19"/>
      <point x="469" y="68"/>
      <point x="469" y="193" type="curve" smooth="yes"/>
      <point x="469" y="273"/>
      <point x="424" y="311"/>
      <point x="373" y="353" type="curve"/>
      <point x="444" y="397"/>
      <point x="515" y="460"/>
      <point x="515" y="549" type="curve" smooth="yes"/>
      <point x="515" y="638"/>
      <point x="444" y="680"/>
      <point x="350" y="680" type="curve" smooth="yes"/>
    </contour>
    <contour>
      <point x="305" y="406" type="line" smooth="yes"/>
      <point x="270" y="434"/>
      <point x="237" y="475"/>
      <point x="237" y="522" type="curve" smooth="yes"/>
      <point x="237" y="575"/>
      <point x="280" y="604"/>
      <point x="330" y="604" type="curve" smooth="yes"/>
      <point x="376" y="604"/>
      <point x="404" y="580"/>
      <point x="404" y="536" type="curve" smooth="yes"/>
      <point x="404" y="483"/>
      <point x="364" y="419"/>
      <point x="320" y="394" type="curve"/>
    </contour>
    <contour>
      <point x="268" y="290" type="line" smooth="yes"/>
      <point x="309" y="257"/>
      <point x="345" y="219"/>
      <point x="345" y="163" type="curve" smooth="yes"/>
      <point x="345" y="103"/>
      <point x="303" y="57"/>
      <point x="238" y="57" type="curve" smooth="yes"/>
      <point x="178" y="57"/>
      <point x="139" y="95"/>
      <point x="139" y="161" type="curve" smooth="yes"/>
      <point x="139" y="221"/>
      <point x="172" y="282"/>
      <point x="238" y="314" type="curve"/>
    </contour>
  </outline>
</glyph>
<glyph name="nine" format="1">
  <advance width="554"/>
  <unicode hex="0039"/>
  <outline>
    <contour>
      <point x="153" y="681"/>
      <point x="60" y="554"/>
      <point x="60" y="398" type="curve" smooth="yes"/>
      <point x="60" y="283"/>
      <point x="110" y="212"/>
      <point x="215" y="212" type="curve" smooth="yes"/>
      <point x="282" y="212"/>
      <point x="343" y="241"/>
      <point x="375" y="292" type="curve"/>
      <point x="352" y="179"/>
      <point x="292" y="72"/>
      <point x="179" y="72" type="curve" smooth="yes"/>
      <point x="139" y="72"/>
      <point x="104" y="85"/>
      <point x="74" y="115" type="curve"/>
      <point x="55" y="104"/>
      <point x="47" y="85"/>
      <point x="47" y="64" type="curve" smooth="yes"/>
      <point x="47" y="0"/>
      <point x="120" y="-20"/>
      <point x="179" y="-20" type="curve" smooth="yes"/>
      <point x="392" y="-20"/>
      <point x="513" y="237"/>
      <point x="513" y="449" type="curve" smooth="yes"/>
      <point x="513" y="595"/>
      <point x="456" y="681"/>
      <point x="319" y="681" type="curve" smooth="yes"/>
    </contour>
    <contour>
      <point x="373" y="605"/>
      <point x="387" y="553"/>
      <point x="387" y="494" type="curve" smooth="yes"/>
      <point x="387" y="402"/>
      <point x="352" y="286"/>
      <point x="259" y="286" type="curve" smooth="yes"/>
      <point x="196" y="286"/>
      <point x="182" y="338"/>
      <point x="182" y="394" type="curve" smooth="yes"/>
      <point x="182" y="482"/>
      <point x="217" y="605"/>
      <point x="311" y="605" type="curve" smooth="yes"/>
    </contour>
  </outline>
</glyph>
<glyph name="less" format="1">
  <advance width="554"/>
  <unicode hex="003C"/>
  <outline>
    <contour>
      <point x="217" y="241" type="line"/>
      <point x="457" y="434" type="line"/>
      <point x="449" y="464"/>
      <point x="424" y="483"/>
      <point x="392" y="483" type="curve" smooth="yes"/>
      <point x="372" y="483"/>
      <point x="352" y="475"/>
      <point x="333" y="460" type="curve" smooth="yes"/>
      <point x="51" y="240" type="line"/>
    </contour>
    <contour>
      <point x="51" y="240" type="line"/>
      <point x="285" y="6" type="line"/>
      <point x="334" y="7"/>
      <point x="357" y="43"/>
      <point x="357" y="72" type="curve" smooth="yes"/>
      <point x="357" y="84"/>
      <point x="354" y="94"/>
      <point x="347" y="102" type="curve" smooth="yes"/>
      <point x="207" y="251" type="line"/>
    </contour>
  </outline>
</glyph>
<glyph name="equal" format="1">
  <advance width="554"/>
  <unicode hex="003D"/>
  <outline>
    <contour>
      <point x="130" y="349" type="line" smooth="yes"/>
      <point x="94" y="349"/>
      <point x="68" y="325"/>
      <point x="68" y="288" type="curve" smooth="yes"/>
      <point x="68" y="280"/>
      <point x="69" y="273"/>
      <point x="71" y="264" type="curve"/>
      <point x="406" y="264" type="line" smooth="yes"/>
      <point x="453" y="264"/>
      <point x="476" y="290"/>
      <point x="476" y="322" type="curve" smooth="yes"/>
      <point x="476" y="332"/>
      <point x="474" y="341"/>
      <point x="472" y="349" type="curve"/>
    </contour>
    <contour>
      <point x="130" y="189" type="line" smooth="yes"/>
      <point x="94" y="189"/>
      <point x="68" y="163"/>
      <point x="68" y="126" type="curve" smooth="yes"/>
      <point x="68" y="119"/>
      <point x="69" y="111"/>
      <point x="71" y="103" type="curve"/>
      <point x="406" y="103" type="line" smooth="yes"/>
      <point x="453" y="103"/>
      <point x="476" y="129"/>
      <point x="476" y="163" type="curve" smooth="yes"/>
      <point x="476" y="172"/>
      <point x="475" y="180"/>
      <point x="472" y="189" type="curve"/>
    </contour>
  </outline>
</glyph>
<glyph name="greater" format="1">
  <advance width="554"/>
  <unicode hex="003E"/>
  <outline>
    <contour>
      <point x="318" y="248" type="line"/>
      <point x="78" y="55" type="line"/>
      <point x="85" y="25"/>
      <point x="106" y="6"/>
      <point x="133" y="6" type="curve" smooth="yes"/>
      <point x="153" y="6"/>
      <point x="173" y="14"/>
      <point x="192" y="29" type="curve" smooth="yes"/>
      <point x="474" y="249" type="line"/>
    </contour>
    <contour>
      <point x="473" y="249" type="line"/>
      <point x="239" y="483" type="line"/>
      <point x="190" y="482"/>
      <point x="167" y="446"/>
      <point x="167" y="417" type="curve" smooth="yes"/>
      <point x="167" y="405"/>
      <point x="170" y="395"/>
      <point x="177" y="387" type="curve" smooth="yes"/>
      <point x="317" y="238" type="line"/>
    </contour>
  </outline>
</glyph>
<glyph name="question" format="1">
  <advance width="408"/>
  <unicode hex="003F"/>
  <outline>
    <contour>
      <point x="450" y="641"/>
      <point x="377" y="680"/>
      <point x="269" y="680" type="curve" smooth="yes"/>
      <point x="180" y="680"/>
      <point x="35" y="654"/>
      <point x="35" y="553" type="curve" smooth="yes"/>
      <point x="35" y="504"/>
      <point x="69" y="483"/>
      <point x="120" y="483" type="curve" smooth="yes"/>
      <point x="136" y="483"/>
      <point x="154" y="485"/>
      <point x="169" y="489" type="curve"/>
      <point x="162" y="504"/>
      <point x="160" y="521"/>
      <point x="160" y="533" type="curve" smooth="yes"/>
      <point x="160" y="590"/>
      <point x="203" y="620"/>
      <point x="256" y="620" type="curve" smooth="yes"/>
      <point x="296" y="620"/>
      <point x="325" y="603"/>
      <point x="325" y="559" type="curve" smooth="yes"/>
      <point x="325" y="430"/>
      <point x="82" y="379"/>
      <point x="82" y="251" type="curve" smooth="yes"/>
      <point x="82" y="209"/>
      <point x="101" y="179"/>
      <point x="139" y="179" type="curve"/>
      <point x="139" y="332"/>
      <point x="450" y="385"/>
      <point x="450" y="557" type="curve" smooth="yes"/>
    </contour>
    <component base="period" xOffset="51"/>
  </outline>
</glyph>
<glyph name="at" format="1">
  <advance width="802"/>
  <unicode hex="0040"/>
  <outline>
    <contour>
      <point x="581" y="442" type="line"/>
      <point x="502" y="433" type="line"/>
      <point x="476" y="443"/>
      <point x="462" y="448"/>
      <point x="434" y="448" type="curve" smooth="yes"/>
      <point x="299" y="448"/>
      <point x="237" y="325"/>
      <point x="237" y="205" type="curve" smooth="yes"/>
      <point x="237" y="118"/>
      <point x="269" y="67"/>
      <point x="341" y="67" type="curve" smooth="yes"/>
      <point x="377" y="67"/>
      <point x="411" y="80"/>
      <point x="431" y="110" type="curve"/>
      <point x="454" y="83"/>
      <point x="492" y="67"/>
      <point x="544" y="67" type="curve" smooth="yes"/>
      <point x="681" y="67"/>
      <point x="775" y="180"/>
      <point x="775" y="328" type="curve" smooth="yes"/>
      <point x="775" y="504"/>
      <point x="641" y="601"/>
      <point x="456" y="601" type="curve" smooth="yes"/>
      <point x="199" y="601"/>
      <point x="27" y="414"/>
      <point x="27" y="185" type="curve" smooth="yes"/>
      <point x="27" y="-23"/>
      <point x="170" y="-98"/>
      <point x="342" y="-98" type="curve" smooth="yes"/>
      <point x="443" y="-98"/>
      <point x="543" y="-72"/>
      <point x="543" y="-16" type="curve" smooth="yes"/>
      <point x="543" y="-5"/>
      <point x="539" y="4"/>
      <point x="531" y="10" type="curve"/>
      <point x="487" y="-23"/>
      <point x="428" y="-32"/>
      <point x="371" y="-32" type="curve" smooth="yes"/>
      <point x="217" y="-32"/>
      <point x="122" y="33"/>
      <point x="122" y="192" type="curve" smooth="yes"/>
      <point x="122" y="376"/>
      <point x="248" y="540"/>
      <point x="445" y="540" type="curve" smooth="yes"/>
      <point x="586" y="540"/>
      <point x="686" y="455"/>
      <point x="686" y="304" type="curve" smooth="yes"/>
      <point x="686" y="191"/>
      <point x="630" y="114"/>
      <point x="550" y="114" type="curve" smooth="yes"/>
      <point x="529" y="114"/>
      <point x="521" y="119"/>
      <point x="521" y="137" type="curve" smooth="yes"/>
      <point x="521" y="152"/>
      <point x="526" y="169"/>
      <point x="530" y="189" type="curve" smooth="yes"/>
    </contour>
    <contour>
      <point x="446" y="229" type="line" smooth="yes"/>
      <point x="437" y="184"/>
      <point x="422" y="125"/>
      <point x="373" y="125" type="curve" smooth="yes"/>
      <point x="338" y="125"/>
      <point x="331" y="155"/>
      <point x="331" y="192" type="curve" smooth="yes"/>
      <point x="331" y="258"/>
      <point x="354" y="390"/>
      <point x="425" y="390" type="curve" smooth="yes"/>
      <point x="441" y="390"/>
      <point x="458" y="383"/>
      <point x="474" y="370" type="curve"/>
    </contour>
  </outline>
</glyph>
<glyph name="A" format="1">
  <advance width="535"/>
  <unicode hex="0041"/>
  <outline>
    <contour>
      <point x="271" y="660" type="line"/>
      <point x="-27" y="0" type="line"/>
      <point x="88" y="0" type="line"/>
      <point x="114" y="63"/>
      <point x="133" y="111"/>
      <point x="157" y="168" type="curve"/>
      <point x="344" y="168" type="line"/>
      <point x="345" y="153"/>
      <point x="350" y="108"/>
      <point x="352" y="93" type="curve" smooth="yes"/>
      <point x="359" y="37"/>
      <point x="373" y="-20"/>
      <point x="431" y="-20" type="curve" smooth="yes"/>
      <point x="464" y="-20"/>
      <point x="493" y="-2"/>
      <point x="501" y="30" type="curve"/>
      <point x="473" y="48"/>
      <point x="465" y="89"/>
      <point x="462" y="122" type="curve" smooth="yes"/>
      <point x="416" y="660" type="line"/>
    </contour>
    <contour>
      <point x="338" y="239" type="line"/>
      <point x="185" y="239" type="line"/>
      <point x="223" y="334"/>
      <point x="261" y="433"/>
      <point x="319" y="579" type="curve"/>
    </contour>
    <contour>
      <point x="500" y="10" type="move" name="ogonek"/>
    </contour>
    <contour>
      <point x="335" y="660" type="move" name="top"/>
    </contour>
  </outline>
</glyph>
<glyph name="B" format="1">
  <advance width="545"/>
  <unicode hex="0042"/>
  <outline>
    <contour>
      <point x="23" y="0" type="line"/>
      <point x="80" y="-5"/>
      <point x="153" y="-9"/>
      <point x="192" y="-9" type="curve" smooth="yes"/>
      <point x="363" y="-9"/>
      <point x="511" y="71"/>
      <point x="511" y="227" type="curve" smooth="yes"/>
      <point x="511" y="295"/>
      <point x="483" y="347"/>
      <point x="409" y="369" type="curve"/>
      <point x="475" y="402"/>
      <point x="519" y="455"/>
      <point x="519" y="534" type="curve" smooth="yes"/>
      <point x="519" y="650"/>
      <point x="426" y="669"/>
      <point x="318" y="669" type="curve" smooth="yes"/>
      <point x="263" y="669"/>
      <point x="191" y="664"/>
      <point x="149" y="660" type="curve"/>
    </contour>
    <contour>
      <point x="255" y="596" type="line"/>
      <point x="272" y="600"/>
      <point x="290" y="603"/>
      <point x="311" y="603" type="curve" smooth="yes"/>
      <point x="370" y="603"/>
      <point x="395" y="578"/>
      <point x="395" y="519" type="curve" smooth="yes"/>
      <point x="395" y="436"/>
      <point x="346" y="385"/>
      <point x="261" y="385" type="curve" smooth="yes"/>
      <point x="249" y="385"/>
      <point x="228" y="386"/>
      <point x="214" y="388" type="curve"/>
    </contour>
    <contour>
      <point x="200" y="317" type="line"/>
      <point x="307" y="317"/>
      <point x="386" y="314"/>
      <point x="386" y="210" type="curve" smooth="yes"/>
      <point x="386" y="117"/>
      <point x="321" y="60"/>
      <point x="220" y="60" type="curve" smooth="yes"/>
      <point x="197" y="60"/>
      <point x="169" y="63"/>
      <point x="151" y="67" type="curve"/>
    </contour>
  </outline>
</glyph>
<glyph name="C" format="1">
  <advance width="511"/>
  <unicode hex="0043"/>
  <outline>
    <contour>
      <point x="139" y="680"/>
      <point x="27" y="426"/>
      <point x="27" y="224" type="curve" smooth="yes"/>
      <point x="27" y="64"/>
      <point x="98" y="-20"/>
      <point x="227" y="-20" type="curve" smooth="yes"/>
      <point x="339" y="-20"/>
      <point x="448" y="43"/>
      <point x="448" y="137" type="curve" smooth="yes"/>
      <point x="448" y="165"/>
      <point x="438" y="180"/>
      <point x="416" y="192" type="curve"/>
      <point x="381" y="128"/>
      <point x="335" y="76"/>
      <point x="261" y="76" type="curve" smooth="yes"/>
      <point x="175" y="76"/>
      <point x="152" y="146"/>
      <point x="152" y="231" type="curve" smooth="yes"/>
      <point x="152" y="364"/>
      <point x="209" y="609"/>
      <point x="342" y="609" type="curve" smooth="yes"/>
      <point x="387" y="609"/>
      <point x="411" y="581"/>
      <point x="411" y="539" type="curve" smooth="yes"/>
      <point x="411" y="519"/>
      <point x="405" y="487"/>
      <point x="396" y="465" type="curve"/>
      <point x="406" y="454"/>
      <point x="427" y="449"/>
      <point x="445" y="449" type="curve" smooth="yes"/>
      <point x="493" y="449"/>
      <point x="533" y="482"/>
      <point x="533" y="548" type="curve" smooth="yes"/>
      <point x="533" y="633"/>
      <point x="466" y="680"/>
      <point x="368" y="680" type="curve" smooth="yes"/>
    </contour>
    <contour>
      <point x="360" y="660" type="move" name="top"/>
    </contour>
    <contour>
      <point x="257" y="0" type="move" name="bottom"/>
    </contour>
  </outline>
</glyph>
<glyph name="D" format="1">
  <advance width="597"/>
  <unicode hex="0044"/>
  <outline>
    <contour>
      <point x="21" y="0" type="line"/>
      <point x="81" y="-5"/>
      <point x="166" y="-9"/>
      <point x="201" y="-9" type="curve" smooth="yes"/>
      <point x="458" y="-9"/>
      <point x="569" y="213"/>
      <point x="569" y="436" type="curve" smooth="yes"/>
      <point x="569" y="593"/>
      <point x="514" y="669"/>
      <point x="338" y="669" type="curve" smooth="yes"/>
      <point x="293" y="669"/>
      <point x="199" y="664"/>
      <point x="149" y="660" type="curve"/>
    </contour>
    <contour>
      <point x="253" y="592" type="line"/>
      <point x="276" y="596"/>
      <point x="303" y="599"/>
      <point x="325" y="599" type="curve" smooth="yes"/>
      <point x="413" y="599"/>
      <point x="444" y="552"/>
      <point x="444" y="463" type="curve" smooth="yes"/>
      <point x="444" y="400"/>
      <point x="428" y="312"/>
      <point x="415" y="260" type="curve" smooth="yes"/>
      <point x="388" y="152"/>
      <point x="339" y="60"/>
      <point x="232" y="60" type="curve" smooth="yes"/>
      <point x="212" y="60"/>
      <point x="173" y="63"/>
      <point x="150" y="67" type="curve"/>
    </contour>
    <contour>
      <point x="295" y="330" type="move" name="center"/>
    </contour>
    <contour>
      <point x="221" y="0" type="move" name="bottom"/>
    </contour>
    <contour>
      <point x="351" y="660" type="move" name="top"/>
    </contour>
  </outline>
</glyph>
<glyph name="E" format="1">
  <advance width="440"/>
  <unicode hex="0045"/>
  <outline>
    <contour>
      <point x="149" y="660" type="line"/>
      <point x="22" y="0" type="line"/>
      <point x="270" y="0" type="line" smooth="yes"/>
      <point x="318" y="0"/>
      <point x="372" y="7"/>
      <point x="372" y="56" type="curve" smooth="yes"/>
      <point x="372" y="72"/>
      <point x="366" y="90"/>
      <point x="358" y="101" type="curve"/>
      <point x="339" y="92"/>
      <point x="300" y="89"/>
      <point x="279" y="89" type="curve" smooth="yes"/>
      <point x="158" y="89" type="line"/>
      <point x="199" y="318" type="line"/>
      <point x="226" y="305"/>
      <point x="260" y="295"/>
      <point x="296" y="295" type="curve" smooth="yes"/>
      <point x="350" y="295"/>
      <point x="392" y="317"/>
      <point x="392" y="377" type="curve"/>
      <point x="212" y="377" type="line"/>
      <point x="249" y="592" type="line"/>
      <point x="286" y="577"/>
      <point x="331" y="565"/>
      <point x="371" y="565" type="curve" smooth="yes"/>
      <point x="434" y="565"/>
      <point x="479" y="595"/>
      <point x="479" y="660" type="curve"/>
    </contour>
    <contour>
      <point x="340" y="10" type="move" name="ogonek"/>
    </contour>
    <contour>
      <point x="201" y="0" type="move" name="bottom"/>
    </contour>
    <contour>
      <point x="311" y="660" type="move" name="top"/>
    </contour>
  </outline>
</glyph>
<glyph name="F" format="1">
  <advance width="431"/>
  <unicode hex="0046"/>
  <outline>
    <contour>
      <point x="149" y="660" type="line"/>
      <point x="22" y="0" type="line"/>
      <point x="142" y="0" type="line"/>
      <point x="199" y="318" type="line"/>
      <point x="226" y="305"/>
      <point x="260" y="295"/>
      <point x="296" y="295" type="curve" smooth="yes"/>
      <point x="350" y="295"/>
      <point x="392" y="317"/>
      <point x="392" y="377" type="curve"/>
      <point x="212" y="377" type="line"/>
      <point x="249" y="592" type="line"/>
      <point x="286" y="577"/>
      <point x="331" y="565"/>
      <point x="371" y="565" type="curve" smooth="yes"/>
      <point x="434" y="565"/>
      <point x="479" y="595"/>
      <point x="479" y="660" type="curve"/>
    </contour>
  </outline>
</glyph>
<glyph name="G" format="1">
  <advance width="527"/>
  <unicode hex="0047"/>
  <outline>
    <contour>
      <point x="379" y="308" type="line"/>
      <point x="347" y="97" type="line"/>
      <point x="325" y="81"/>
      <point x="288" y="76"/>
      <point x="263" y="76" type="curve" smooth="yes"/>
      <point x="174" y="76"/>
      <point x="151" y="142"/>
      <point x="151" y="229" type="curve" smooth="yes"/>
      <point x="151" y="364"/>
      <point x="207" y="609"/>
      <point x="342" y="609" type="curve" smooth="yes"/>
      <point x="385" y="609"/>
      <point x="410" y="581"/>
      <point x="410" y="539" type="curve" smooth="yes"/>
      <point x="410" y="519"/>
      <point x="404" y="487"/>
      <point x="395" y="465" type="curve"/>
      <point x="405" y="454"/>
      <point x="426" y="449"/>
      <point x="444" y="449" type="curve" smooth="yes"/>
      <point x="492" y="449"/>
      <point x="532" y="482"/>
      <point x="532" y="548" type="curve" smooth="yes"/>
      <point x="532" y="633"/>
      <point x="465" y="680"/>
      <point x="367" y="680" type="curve" smooth="yes"/>
      <point x="138" y="680"/>
      <point x="26" y="427"/>
      <point x="26" y="221" type="curve" smooth="yes"/>
      <point x="26" y="72"/>
      <point x="85" y="-20"/>
      <point x="200" y="-20" type="curve" smooth="yes"/>
      <point x="268" y="-20"/>
      <point x="322" y="14"/>
      <point x="351" y="38" type="curve"/>
      <point x="351" y="2"/>
      <point x="369" y="-20"/>
      <point x="409" y="-20" type="curve" smooth="yes"/>
      <point x="424" y="-20"/>
      <point x="437" y="-15"/>
      <point x="444" y="-4" type="curve"/>
      <point x="447" y="91"/>
      <point x="463" y="231"/>
      <point x="506" y="326" type="curve"/>
    </contour>
    <contour>
      <point x="365" y="660" type="move" name="top"/>
    </contour>
    <contour>
      <point x="250" y="0" type="move" name="bottom"/>
    </contour>
  </outline>
</glyph>
<glyph name="H" format="1">
  <advance width="614"/>
  <unicode hex="0048"/>
  <outline>
    <contour>
      <point x="482" y="660" type="line"/>
      <point x="426" y="360" type="line"/>
      <point x="208" y="360" type="line"/>
      <point x="267" y="660" type="line"/>
      <point x="149" y="660" type="line"/>
      <point x="22" y="0" type="line"/>
      <point x="138" y="0" type="line"/>
      <point x="194" y="290" type="line"/>
      <point x="413" y="290" type="line"/>
      <point x="386" y="133" type="line" smooth="yes"/>
      <point x="377" y="78"/>
      <point x="375" y="62"/>
      <point x="375" y="47" type="curve" smooth="yes"/>
      <point x="375" y="6"/>
      <point x="389" y="-20"/>
      <point x="435" y="-20" type="curve" smooth="yes"/>
      <point x="459" y="-20"/>
      <point x="481" y="-13"/>
      <point x="502" y="4" type="curve"/>
      <point x="493" y="19"/>
      <point x="490" y="35"/>
      <point x="490" y="49" type="curve" smooth="yes"/>
      <point x="490" y="63"/>
      <point x="493" y="83"/>
      <point x="495" y="94" type="curve" smooth="yes"/>
      <point x="600" y="660" type="line"/>
    </contour>
    <contour>
      <point x="307" y="330" type="move" name="center"/>
    </contour>
    <contour>
      <point x="261" y="0" type="move" name="bottom"/>
    </contour>
    <contour>
      <point x="368" y="660" type="move" name="top"/>
    </contour>
  </outline>
</glyph>
<glyph name="I" format="1">
  <advance width="289"/>
  <unicode hex="0049"/>
  <outline>
    <contour>
      <point x="149" y="660" type="line"/>
      <point x="22" y="0" type="line"/>
      <point x="138" y="0" type="line"/>
      <point x="267" y="660" type="line"/>
    </contour>
    <contour>
      <point x="140" y="10" type="move" name="ogonek"/>
    </contour>
    <contour>
      <point x="83" y="0" type="move" name="bottom"/>
    </contour>
    <contour>
      <point x="217" y="660" type="move" name="top"/>
    </contour>
  </outline>
</glyph>
<glyph name="J" format="1">
  <advance width="289"/>
  <unicode hex="004A"/>
  <outline>
    <contour>
      <point x="149" y="660" type="line"/>
      <point x="32" y="50" type="line" smooth="yes"/>
      <point x="20" y="-11"/>
      <point x="0" y="-98"/>
      <point x="-58" y="-121" type="curve"/>
      <point x="-47" y="-147"/>
      <point x="-21" y="-160"/>
      <point x="8" y="-160" type="curve" smooth="yes"/>
      <point x="90" y="-160"/>
      <point x="128" y="-54"/>
      <point x="152" y="70" type="curve" smooth="yes"/>
      <point x="267" y="660" type="line"/>
    </contour>
    <contour>
      <point x="218" y="660" type="move" name="top"/>
    </contour>
  </outline>
</glyph>
<glyph name="K" format="1">
  <advance width="558"/>
  <unicode hex="004B"/>
  <outline>
    <contour>
      <point x="149" y="660" type="line"/>
      <point x="139" y="604"/>
      <point x="72" y="244"/>
      <point x="25" y="0" type="curve"/>
      <point x="141" y="0" type="line"/>
      <point x="267" y="660" type="line"/>
    </contour>
    <contour>
      <point x="468" y="660" type="line"/>
      <point x="225" y="328" type="line"/>
      <point x="314" y="78"/>
      <point x="355" y="-19"/>
      <point x="447" y="-19" type="curve" smooth="yes"/>
      <point x="486" y="-19"/>
      <point x="516" y="-1"/>
      <point x="525" y="35" type="curve"/>
      <point x="480" y="56"/>
      <point x="410" y="149"/>
      <point x="338" y="336" type="curve"/>
      <point x="363" y="368"/>
      <point x="459" y="486"/>
      <point x="598" y="660" type="curve"/>
    </contour>
    <contour>
      <point x="336" y="660" type="move" name="top"/>
    </contour>
    <contour>
      <point x="258" y="0" type="move" name="bottom"/>
    </contour>
  </outline>
</glyph>
<glyph name="L" format="1">
  <advance width="375"/>
  <unicode hex="004C"/>
  <outline>
    <contour>
      <point x="270" y="0" type="line" smooth="yes"/>
      <point x="318" y="0"/>
      <point x="372" y="7"/>
      <point x="372" y="56" type="curve" smooth="yes"/>
      <point x="372" y="72"/>
      <point x="366" y="90"/>
      <point x="358" y="101" type="curve"/>
      <point x="339" y="92"/>
      <point x="300" y="89"/>
      <point x="279" y="89" type="curve" smooth="yes"/>
      <point x="155" y="89" type="line"/>
      <point x="267" y="660" type="line"/>
      <point x="149" y="660" type="line"/>
      <point x="22" y="0" type="line"/>
    </contour>
    <contour>
      <point x="345" y="329" type="move" name="center"/>
    </contour>
    <contour>
      <point x="363" y="508" type="move" name="caron"/>
    </contour>
    <contour>
      <point x="188" y="660" type="move" name="top"/>
    </contour>
    <contour>
      <point x="188" y="0" type="move" name="bottom"/>
    </contour>
  </outline>
</glyph>
<glyph name="M" format="1">
  <advance width="748"/>
  <unicode hex="004D"/>
  <outline>
    <contour>
      <point x="382" y="198" type="line"/>
      <point x="303" y="660" type="line"/>
      <point x="155" y="660" type="line"/>
      <point x="10" y="0" type="line"/>
      <point x="108" y="0" type="line"/>
      <point x="214" y="519" type="line"/>
      <point x="300" y="0" type="line"/>
      <point x="382" y="0" type="line"/>
      <point x="621" y="519" type="line"/>
      <point x="580" y="143" type="line" smooth="yes"/>
      <point x="578" y="125"/>
      <point x="574" y="87"/>
      <point x="574" y="69" type="curve" smooth="yes"/>
      <point x="574" y="13"/>
      <point x="580" y="-22"/>
      <point x="636" y="-22" type="curve" smooth="yes"/>
      <point x="666" y="-22"/>
      <point x="691" y="-9"/>
      <point x="711" y="16" type="curve"/>
      <point x="694" y="35"/>
      <point x="689" y="55"/>
      <point x="689" y="80" type="curve" smooth="yes"/>
      <point x="689" y="87"/>
      <point x="691" y="115"/>
      <point x="692" y="121" type="curve" smooth="yes"/>
      <point x="744" y="660" type="line"/>
      <point x="593" y="660" type="line"/>
    </contour>
  </outline>
</glyph>
<glyph name="N" format="1">
  <advance width="649"/>
  <unicode hex="004E"/>
  <outline>
    <contour>
      <point x="214" y="534" type="line"/>
      <point x="369" y="0" type="line"/>
      <point x="499" y="0" type="line"/>
      <point x="619" y="660" type="line"/>
      <point x="522" y="660" type="line"/>
      <point x="436" y="143" type="line"/>
      <point x="293" y="660" type="line"/>
      <point x="149" y="660" type="line"/>
      <point x="27" y="0" type="line"/>
      <point x="125" y="0" type="line"/>
    </contour>
    <contour>
      <point x="389" y="660" type="move" name="top"/>
    </contour>
    <contour>
      <point x="295" y="0" type="move" name="bottom"/>
    </contour>
  </outline>
</glyph>
<glyph name="O" format="1">
  <advance width="590"/>
  <unicode hex="004F"/>
  <outline>
    <contour>
      <point x="126" y="680"/>
      <point x="26" y="416"/>
      <point x="26" y="214" type="curve" smooth="yes"/>
      <point x="26" y="62"/>
      <point x="82" y="-20"/>
      <point x="219" y="-20" type="curve" smooth="yes"/>
      <point x="467" y="-20"/>
      <point x="564" y="249"/>
      <point x="564" y="447" type="curve" smooth="yes"/>
      <point x="564" y="598"/>
      <point x="508" y="680"/>
      <point x="371" y="680" type="curve" smooth="yes"/>
    </contour>
    <contour>
      <point x="417" y="610"/>
      <point x="440" y="554"/>
      <point x="440" y="475" type="curve" smooth="yes"/>
      <point x="440" y="413"/>
      <point x="426" y="322"/>
      <point x="411" y="259" type="curve" smooth="yes"/>
      <point x="390" y="169"/>
      <point x="350" y="51"/>
      <point x="245" y="51" type="curve" smooth="yes"/>
      <point x="173" y="51"/>
      <point x="150" y="107"/>
      <point x="150" y="186" type="curve" smooth="yes"/>
      <point x="150" y="248"/>
      <point x="164" y="339"/>
      <point x="179" y="402" type="curve" smooth="yes"/>
      <point x="203" y="505"/>
      <point x="245" y="610"/>
      <point x="344" y="610" type="curve" smooth="yes"/>
    </contour>
    <contour>
      <point x="351" y="10" type="move" name="ogonek"/>
    </contour>
    <contour>
      <point x="221" y="0" type="move" name="bottom"/>
    </contour>
    <contour>
      <point x="371" y="660" type="move" name="top"/>
    </contour>
  </outline>
</glyph>
<glyph name="P" format="1">
  <advance width="506"/>
  <unicode hex="0050"/>
  <outline>
    <contour>
      <point x="254" y="596" type="line"/>
      <point x="279" y="601"/>
      <point x="304" y="603"/>
      <point x="321" y="603" type="curve" smooth="yes"/>
      <point x="391" y="603"/>
      <point x="414" y="565"/>
      <point x="414" y="495" type="curve" smooth="yes"/>
      <point x="414" y="380"/>
      <point x="352" y="324"/>
      <point x="264" y="324" type="curve" smooth="yes"/>
      <point x="253" y="324"/>
      <point x="245" y="324"/>
      <point x="236" y="326" type="curve"/>
      <point x="245" y="287"/>
      <point x="293" y="277"/>
      <point x="333" y="277" type="curve" smooth="yes"/>
      <point x="459" y="277"/>
      <point x="538" y="373"/>
      <point x="538" y="502" type="curve" smooth="yes"/>
      <point x="538" y="639"/>
      <point x="450" y="669"/>
      <point x="318" y="669" type="curve" smooth="yes"/>
      <point x="264" y="669"/>
      <point x="191" y="664"/>
      <point x="149" y="660" type="curve"/>
      <point x="22" y="0" type="line"/>
      <point x="138" y="0" type="line"/>
    </contour>
  </outline>
</glyph>
<glyph name="Q" format="1">
  <advance width="591"/>
  <unicode hex="0051"/>
  <outline>
    <contour>
      <point x="127" y="680"/>
      <point x="41" y="384"/>
      <point x="41" y="236" type="curve" smooth="yes"/>
      <point x="41" y="139"/>
      <point x="78" y="93"/>
      <point x="149" y="93" type="curve" smooth="yes"/>
      <point x="193" y="93"/>
      <point x="212" y="111"/>
      <point x="212" y="132" type="curve"/>
      <point x="176" y="138"/>
      <point x="167" y="157"/>
      <point x="167" y="201" type="curve" smooth="yes"/>
      <point x="167" y="253"/>
      <point x="180" y="338"/>
      <point x="195" y="400" type="curve" smooth="yes"/>
      <point x="218" y="495"/>
      <point x="264" y="610"/>
      <point x="363" y="610" type="curve" smooth="yes"/>
      <point x="436" y="610"/>
      <point x="454" y="547"/>
      <point x="454" y="473" type="curve" smooth="yes"/>
      <point x="454" y="408"/>
      <point x="440" y="322"/>
      <point x="425" y="260" type="curve" smooth="yes"/>
      <point x="378" y="70"/>
      <point x="297" y="37"/>
      <point x="180" y="21" type="curve" smooth="yes"/>
      <point x="142" y="16"/>
      <point x="78" y="6"/>
      <point x="78" y="-53" type="curve" smooth="yes"/>
      <point x="78" y="-77"/>
      <point x="89" y="-99"/>
      <point x="103" y="-111" type="curve"/>
      <point x="120" y="-104"/>
      <point x="145" y="-99"/>
      <point x="170" y="-99" type="curve" smooth="yes"/>
      <point x="248" y="-99"/>
      <point x="352" y="-147"/>
      <point x="442" y="-147" type="curve" smooth="yes"/>
      <point x="496" y="-147"/>
      <point x="547" y="-130"/>
      <point x="547" y="-73" type="curve" smooth="yes"/>
      <point x="547" y="-55"/>
      <point x="542" y="-37"/>
      <point x="534" y="-23" type="curve"/>
      <point x="507" y="-40"/>
      <point x="468" y="-45"/>
      <point x="431" y="-45" type="curve" smooth="yes"/>
      <point x="359" y="-45"/>
      <point x="278" y="-26"/>
      <point x="248" y="-20" type="curve"/>
      <point x="467" y="-20"/>
      <point x="579" y="238"/>
      <point x="579" y="449" type="curve" smooth="yes"/>
      <point x="579" y="598"/>
      <point x="523" y="680"/>
      <point x="386" y="680" type="curve" smooth="yes"/>
    </contour>
  </outline>
</glyph>
<glyph name="R" format="1">
  <advance width="565"/>
  <unicode hex="0052"/>
  <outline>
    <contour>
      <point x="22" y="0" type="line"/>
      <point x="138" y="0" type="line"/>
      <point x="254" y="596" type="line"/>
      <point x="271" y="600"/>
      <point x="290" y="603"/>
      <point x="311" y="603" type="curve" smooth="yes"/>
      <point x="384" y="603"/>
      <point x="414" y="564"/>
      <point x="414" y="487" type="curve" smooth="yes"/>
      <point x="414" y="387"/>
      <point x="364" y="325"/>
      <point x="262" y="325" type="curve" smooth="yes"/>
      <point x="251" y="325"/>
      <point x="248" y="325"/>
      <point x="236" y="326" type="curve"/>
      <point x="323" y="75"/>
      <point x="368" y="-19"/>
      <point x="457" y="-19" type="curve" smooth="yes"/>
      <point x="492" y="-19"/>
      <point x="525" y="-4"/>
      <point x="535" y="35" type="curve"/>
      <point x="494" y="54"/>
      <point x="434" y="130"/>
      <point x="370" y="280" type="curve"/>
      <point x="474" y="297"/>
      <point x="538" y="386"/>
      <point x="538" y="502" type="curve" smooth="yes"/>
      <point x="538" y="639"/>
      <point x="450" y="669"/>
      <point x="318" y="669" type="curve" smooth="yes"/>
      <point x="264" y="669"/>
      <point x="191" y="664"/>
      <point x="149" y="660" type="curve"/>
    </contour>
    <contour>
      <point x="336" y="660" type="move" name="top"/>
    </contour>
    <contour>
      <point x="261" y="0" type="move" name="bottom"/>
    </contour>
  </outline>
</glyph>
<glyph name="S" format="1">
  <advance width="504"/>
  <unicode hex="0053"/>
  <outline>
    <contour>
      <point x="192" y="680"/>
      <point x="85" y="609"/>
      <point x="85" y="489" type="curve" smooth="yes"/>
      <point x="85" y="392"/>
      <point x="155" y="341"/>
      <point x="219" y="292" type="curve" smooth="yes"/>
      <point x="274" y="250"/>
      <point x="328" y="210"/>
      <point x="328" y="147" type="curve" smooth="yes"/>
      <point x="328" y="84"/>
      <point x="275" y="43"/>
      <point x="216" y="43" type="curve" smooth="yes"/>
      <point x="171" y="43"/>
      <point x="134" y="66"/>
      <point x="134" y="112" type="curve" smooth="yes"/>
      <point x="134" y="131"/>
      <point x="140" y="163"/>
      <point x="149" y="185" type="curve"/>
      <point x="137" y="193"/>
      <point x="118" y="198"/>
      <point x="99" y="198" type="curve" smooth="yes"/>
      <point x="54" y="198"/>
      <point x="10" y="169"/>
      <point x="10" y="108" type="curve" smooth="yes"/>
      <point x="10" y="21"/>
      <point x="99" y="-22"/>
      <point x="196" y="-22" type="curve" smooth="yes"/>
      <point x="324" y="-22"/>
      <point x="441" y="54"/>
      <point x="441" y="178" type="curve" smooth="yes"/>
      <point x="441" y="272"/>
      <point x="373" y="324"/>
      <point x="310" y="371" type="curve" smooth="yes"/>
      <point x="253" y="413"/>
      <point x="197" y="455"/>
      <point x="197" y="522" type="curve" smooth="yes"/>
      <point x="197" y="576"/>
      <point x="234" y="617"/>
      <point x="288" y="617" type="curve" smooth="yes"/>
      <point x="332" y="617"/>
      <point x="358" y="590"/>
      <point x="358" y="547" type="curve" smooth="yes"/>
      <point x="358" y="526"/>
      <point x="352" y="495"/>
      <point x="343" y="473" type="curve"/>
      <point x="355" y="465"/>
      <point x="374" y="460"/>
      <point x="391" y="460" type="curve" smooth="yes"/>
      <point x="435" y="460"/>
      <point x="482" y="493"/>
      <point x="482" y="562" type="curve" smooth="yes"/>
      <point x="482" y="645"/>
      <point x="415" y="680"/>
      <point x="323" y="680" type="curve" smooth="yes"/>
    </contour>
    <contour>
      <point x="330" y="660" type="move" name="top"/>
    </contour>
    <contour>
      <point x="223" y="0" type="move" name="bottom"/>
    </contour>
  </outline>
</glyph>
<glyph name="T" format="1">
  <advance width="402"/>
  <unicode hex="0054"/>
  <outline>
    <contour>
      <point x="146" y="660" type="line" smooth="yes"/>
      <point x="98" y="660"/>
      <point x="44" y="653"/>
      <point x="44" y="604" type="curve" smooth="yes"/>
      <point x="44" y="588"/>
      <point x="50" y="570"/>
      <point x="58" y="559" type="curve"/>
      <point x="77" y="568"/>
      <point x="116" y="571"/>
      <point x="137" y="571" type="curve" smooth="yes"/>
      <point x="201" y="571" type="line"/>
      <point x="109" y="104" type="line" smooth="yes"/>
      <point x="106" y="90"/>
      <point x="103" y="66"/>
      <point x="103" y="45" type="curve" smooth="yes"/>
      <point x="103" y="6"/>
      <point x="117" y="-20"/>
      <point x="163" y="-20" type="curve" smooth="yes"/>
      <point x="187" y="-20"/>
      <point x="209" y="-13"/>
      <point x="230" y="4" type="curve"/>
      <point x="221" y="19"/>
      <point x="218" y="35"/>
      <point x="218" y="49" type="curve" smooth="yes"/>
      <point x="218" y="63"/>
      <point x="221" y="83"/>
      <point x="223" y="94" type="curve" smooth="yes"/>
      <point x="318" y="571" type="line"/>
      <point x="387" y="571" type="line" smooth="yes"/>
      <point x="435" y="571"/>
      <point x="489" y="578"/>
      <point x="489" y="627" type="curve" smooth="yes"/>
      <point x="489" y="643"/>
      <point x="483" y="661"/>
      <point x="475" y="672" type="curve"/>
      <point x="456" y="663"/>
      <point x="417" y="660"/>
      <point x="396" y="660" type="curve" smooth="yes"/>
    </contour>
    <contour>
      <point x="201" y="330" type="move" name="center"/>
    </contour>
    <contour>
      <point x="176" y="0" type="move" name="bottom"/>
    </contour>
    <contour>
      <point x="275" y="660" type="move" name="top"/>
    </contour>
  </outline>
</glyph>
<glyph name="U" format="1">
  <advance width="569"/>
  <unicode hex="0055"/>
  <outline>
    <contour>
      <point x="465" y="660" type="line"/>
      <point x="395" y="261" type="line" smooth="yes"/>
      <point x="377" y="157"/>
      <point x="348" y="56"/>
      <point x="248" y="56" type="curve" smooth="yes"/>
      <point x="192" y="56"/>
      <point x="160" y="88"/>
      <point x="160" y="143" type="curve" smooth="yes"/>
      <point x="160" y="170"/>
      <point x="168" y="214"/>
      <point x="173" y="241" type="curve" smooth="yes"/>
      <point x="252" y="660" type="line"/>
      <point x="135" y="660" type="line"/>
      <point x="56" y="252" type="line" smooth="yes"/>
      <point x="49" y="217"/>
      <point x="42" y="172"/>
      <point x="42" y="138" type="curve" smooth="yes"/>
      <point x="42" y="34"/>
      <point x="107" y="-20"/>
      <point x="225" y="-20" type="curve" smooth="yes"/>
      <point x="384" y="-20"/>
      <point x="458" y="79"/>
      <point x="494" y="270" type="curve" smooth="yes"/>
      <point x="569" y="660" type="line"/>
    </contour>
    <contour>
      <point x="354" y="10" type="move" name="ogonek"/>
    </contour>
    <contour>
      <point x="211" y="0" type="move" name="bottom"/>
    </contour>
    <contour>
      <point x="379" y="660" type="move" name="top"/>
    </contour>
  </outline>
</glyph>
<glyph name="V" format="1">
  <advance width="488"/>
  <unicode hex="0056"/>
  <outline>
    <contour>
      <point x="104" y="0" type="line"/>
      <point x="260" y="0" type="line"/>
      <point x="563" y="660" type="line"/>
      <point x="448" y="660" type="line"/>
      <point x="210" y="80" type="line"/>
      <point x="181" y="566" type="line" smooth="yes"/>
      <point x="177" y="626"/>
      <point x="159" y="679"/>
      <point x="102" y="679" type="curve" smooth="yes"/>
      <point x="69" y="679"/>
      <point x="40" y="661"/>
      <point x="32" y="629" type="curve"/>
      <point x="60" y="610"/>
      <point x="69" y="573"/>
      <point x="71" y="537" type="curve" smooth="yes"/>
    </contour>
  </outline>
</glyph>
<glyph name="W" format="1">
  <advance width="803"/>
  <unicode hex="0057"/>
  <outline>
    <contour>
      <point x="104" y="0" type="line"/>
      <point x="260" y="0" type="line"/>
      <point x="420" y="414" type="line"/>
      <point x="437" y="0" type="line"/>
      <point x="593" y="0" type="line"/>
      <point x="878" y="660" type="line"/>
      <point x="763" y="660" type="line"/>
      <point x="543" y="80" type="line"/>
      <point x="509" y="660" type="line"/>
      <point x="430" y="660" type="line"/>
      <point x="210" y="80" type="line"/>
      <point x="181" y="566" type="line" smooth="yes"/>
      <point x="177" y="626"/>
      <point x="159" y="679"/>
      <point x="102" y="679" type="curve" smooth="yes"/>
      <point x="69" y="679"/>
      <point x="40" y="661"/>
      <point x="32" y="629" type="curve"/>
      <point x="60" y="610"/>
      <point x="69" y="573"/>
      <point x="71" y="537" type="curve" smooth="yes"/>
    </contour>
    <contour>
      <point x="477" y="660" type="move" name="top"/>
    </contour>
  </outline>
</glyph>
<glyph name="X" format="1">
  <advance width="521"/>
  <unicode hex="0058"/>
  <outline>
    <contour>
      <point x="192" y="341" type="line"/>
      <point x="-52" y="0" type="line"/>
      <point x="63" y="0" type="line"/>
      <point x="227" y="248" type="line"/>
      <point x="290" y="82" type="line" smooth="yes"/>
      <point x="310" y="29"/>
      <point x="332" y="-20"/>
      <point x="391" y="-20" type="curve" smooth="yes"/>
      <point x="429" y="-20"/>
      <point x="459" y="0"/>
      <point x="470" y="33" type="curve"/>
      <point x="441" y="40"/>
      <point x="415" y="87"/>
      <point x="402" y="121" type="curve" smooth="yes"/>
      <point x="323" y="330" type="line"/>
      <point x="573" y="660" type="line"/>
      <point x="458" y="660" type="line"/>
      <point x="288" y="423" type="line"/>
      <point x="231" y="577" type="line" smooth="yes"/>
      <point x="211" y="630"/>
      <point x="189" y="679"/>
      <point x="130" y="679" type="curve" smooth="yes"/>
      <point x="92" y="679"/>
      <point x="62" y="659"/>
      <point x="51" y="626" type="curve"/>
      <point x="80" y="619"/>
      <point x="106" y="572"/>
      <point x="119" y="538" type="curve" smooth="yes"/>
    </contour>
  </outline>
</glyph>
<glyph name="Y" format="1">
  <advance width="373"/>
  <unicode hex="0059"/>
  <outline>
    <contour>
      <point x="194" y="462" type="line" smooth="yes"/>
      <point x="161" y="619"/>
      <point x="138" y="666"/>
      <point x="72" y="666" type="curve" smooth="yes"/>
      <point x="33" y="666"/>
      <point x="3" y="648"/>
      <point x="-6" y="612" type="curve"/>
      <point x="35" y="593"/>
      <point x="84" y="502"/>
      <point x="128" y="321" type="curve"/>
      <point x="64" y="0" type="line"/>
      <point x="183" y="0" type="line"/>
      <point x="242" y="309" type="line"/>
      <point x="311" y="455"/>
      <point x="398" y="567"/>
      <point x="485" y="623" type="curve"/>
      <point x="478" y="652"/>
      <point x="455" y="666"/>
      <point x="424" y="666" type="curve" smooth="yes"/>
      <point x="354" y="666"/>
      <point x="292" y="595"/>
      <point x="207" y="400" type="curve"/>
    </contour>
    <contour>
      <point x="257" y="660" type="move" name="top"/>
    </contour>
  </outline>
</glyph>
<glyph name="Z" format="1">
  <advance width="448"/>
  <unicode hex="005A"/>
  <outline>
    <contour>
      <point x="-17" y="100" type="line" smooth="yes"/>
      <point x="-27" y="88"/>
      <point x="-33" y="72"/>
      <point x="-33" y="56" type="curve" smooth="yes"/>
      <point x="-33" y="35"/>
      <point x="-22" y="12"/>
      <point x="-8" y="0" type="curve"/>
      <point x="9" y="7"/>
      <point x="32" y="12"/>
      <point x="62" y="12" type="curve" smooth="yes"/>
      <point x="132" y="12"/>
      <point x="218" y="-15"/>
      <point x="296" y="-15" type="curve" smooth="yes"/>
      <point x="355" y="-15"/>
      <point x="406" y="0"/>
      <point x="406" y="58" type="curve" smooth="yes"/>
      <point x="406" y="76"/>
      <point x="401" y="94"/>
      <point x="393" y="108" type="curve"/>
      <point x="366" y="92"/>
      <point x="335" y="86"/>
      <point x="285" y="86" type="curve" smooth="yes"/>
      <point x="224" y="86"/>
      <point x="158" y="95"/>
      <point x="113" y="104" type="curve"/>
      <point x="476" y="565" type="line" smooth="yes"/>
      <point x="484" y="575"/>
      <point x="489" y="590"/>
      <point x="489" y="604" type="curve" smooth="yes"/>
      <point x="489" y="625"/>
      <point x="478" y="648"/>
      <point x="464" y="660" type="curve"/>
      <point x="447" y="653"/>
      <point x="424" y="648"/>
      <point x="394" y="648" type="curve" smooth="yes"/>
      <point x="324" y="648"/>
      <point x="248" y="675"/>
      <point x="170" y="675" type="curve" smooth="yes"/>
      <point x="111" y="675"/>
      <point x="60" y="660"/>
      <point x="60" y="602" type="curve" smooth="yes"/>
      <point x="60" y="584"/>
      <point x="65" y="566"/>
      <point x="73" y="552" type="curve"/>
      <point x="100" y="568"/>
      <point x="131" y="574"/>
      <point x="181" y="574" type="curve" smooth="yes"/>
      <point x="242" y="574"/>
      <point x="300" y="565"/>
      <point x="345" y="556" type="curve"/>
    </contour>
    <contour>
      <point x="273" y="660" type="move" name="top"/>
    </contour>
    <contour>
      <point x="191" y="0" type="move" name="bottom"/>
    </contour>
  </outline>
</glyph>
<glyph name="bracketleft" format="1">
  <advance width="378"/>
  <unicode hex="005B"/>
  <outline>
    <contour>
      <point x="205" y="800" type="line"/>
      <point x="17" y="-200" type="line"/>
      <point x="281" y="-200" type="line"/>
      <point x="282" y="-196"/>
      <point x="282" y="-191"/>
      <point x="282" y="-185" type="curve" smooth="yes"/>
      <point x="282" y="-148"/>
      <point x="258" y="-133"/>
      <point x="198" y="-133" type="curve" smooth="yes"/>
      <point x="148" y="-133" type="line"/>
      <point x="310" y="734" type="line"/>
      <point x="380" y="734" type="line" smooth="yes"/>
      <point x="436" y="734"/>
      <point x="467" y="744"/>
      <point x="476" y="800" type="curve"/>
    </contour>
  </outline>
</glyph>
<glyph name="backslash" format="1">
  <advance width="283"/>
  <unicode hex="005C"/>
  <outline>
    <contour>
      <point x="64" y="-196" type="line"/>
      <point x="67" y="-198"/>
      <point x="83" y="-200"/>
      <point x="101" y="-200" type="curve" smooth="yes"/>
      <point x="150" y="-200"/>
      <point x="170" y="-185"/>
      <point x="173" y="-132" type="curve" smooth="yes"/>
      <point x="219" y="799" type="line"/>
      <point x="216" y="801"/>
      <point x="208" y="803"/>
      <point x="187" y="803" type="curve" smooth="yes"/>
      <point x="122" y="803"/>
      <point x="114" y="783"/>
      <point x="111" y="718" type="curve" smooth="yes"/>
    </contour>
  </outline>
</glyph>
<glyph name="bracketright" format="1">
  <advance width="378"/>
  <unicode hex="005D"/>
  <outline>
    <contour>
      <point x="16" y="-134" type="line" smooth="yes"/>
      <point x="-40" y="-134"/>
      <point x="-71" y="-144"/>
      <point x="-80" y="-200" type="curve"/>
      <point x="191" y="-200" type="line"/>
      <point x="379" y="800" type="line"/>
      <point x="112" y="800" type="line"/>
      <point x="111" y="796"/>
      <point x="111" y="791"/>
      <point x="111" y="785" type="curve" smooth="yes"/>
      <point x="111" y="748"/>
      <point x="135" y="733"/>
      <point x="195" y="733" type="curve" smooth="yes"/>
      <point x="248" y="733" type="line"/>
      <point x="86" y="-134" type="line"/>
    </contour>
  </outline>
</glyph>
<glyph name="asciicircum" format="1">
  <advance width="474"/>
  <unicode hex="005E"/>
  <outline>
    <contour>
      <point x="198" y="660" type="line"/>
      <point x="147" y="505"/>
      <point x="68" y="363"/>
      <point x="-6" y="332" type="curve"/>
      <point x="-2" y="309"/>
      <point x="19" y="295"/>
      <point x="47" y="295" type="curve" smooth="yes"/>
      <point x="120" y="295"/>
      <point x="177" y="396"/>
      <point x="233" y="554" type="curve"/>
      <point x="254" y="377"/>
      <point x="287" y="296"/>
      <point x="363" y="296" type="curve" smooth="yes"/>
      <point x="393" y="296"/>
      <point x="441" y="309"/>
      <point x="454" y="326" type="curve"/>
      <point x="391" y="368"/>
      <point x="341" y="517"/>
      <point x="339" y="660" type="curve"/>
    </contour>
  </outline>
</glyph>
<glyph name="underscore" format="1">
  <advance width="494"/>
  <unicode hex="005F"/>
  <outline>
    <contour>
      <point x="22" y="-46" type="line" smooth="yes"/>
      <point x="-15" y="-46"/>
      <point x="-42" y="-72"/>
      <point x="-42" y="-110" type="curve" smooth="yes"/>
      <point x="-42" y="-118"/>
      <point x="-41" y="-125"/>
      <point x="-38" y="-134" type="curve"/>
      <point x="385" y="-134" type="line" smooth="yes"/>
      <point x="434" y="-134"/>
      <point x="457" y="-106"/>
      <point x="457" y="-72" type="curve" smooth="yes"/>
      <point x="457" y="-63"/>
      <point x="455" y="-55"/>
      <point x="452" y="-46" type="curve"/>
    </contour>
  </outline>
</glyph>
<glyph name="grave" format="1">
  <advance width="227"/>
  <unicode hex="0060"/>
  <outline>
    <contour>
      <point x="297" y="633" type="line"/>
      <point x="86" y="769" type="line"/>
      <point x="63" y="760"/>
      <point x="54" y="735"/>
      <point x="54" y="713" type="curve" smooth="yes"/>
      <point x="54" y="658"/>
      <point x="111" y="638"/>
      <point x="169" y="622" type="curve" smooth="yes"/>
      <point x="280" y="592" type="line"/>
    </contour>
    <contour>
      <point x="208" y="510" type="move" name="_top"/>
    </contour>
  </outline>
</glyph>
<glyph name="a" format="1">
  <advance width="528"/>
  <unicode hex="0061"/>
  <outline>
    <contour>
      <point x="405" y="509" type="line"/>
      <point x="368" y="523"/>
      <point x="341" y="530"/>
      <point x="304" y="530" type="curve" smooth="yes"/>
      <point x="110" y="530"/>
      <point x="27" y="336"/>
      <point x="27" y="167" type="curve" smooth="yes"/>
      <point x="27" y="49"/>
      <point x="67" y="-20"/>
      <point x="173" y="-20" type="curve" smooth="yes"/>
      <point x="224" y="-20"/>
      <point x="280" y="-4"/>
      <point x="309" y="37" type="curve"/>
      <point x="313" y="0"/>
      <point x="339" y="-20"/>
      <point x="376" y="-20" type="curve" smooth="yes"/>
      <point x="409" y="-20"/>
      <point x="440" y="-5"/>
      <point x="449" y="27" type="curve"/>
      <point x="429" y="29"/>
      <point x="419" y="41"/>
      <point x="419" y="61" type="curve" smooth="yes"/>
      <point x="419" y="73"/>
      <point x="422" y="91"/>
      <point x="424" y="103" type="curve" smooth="yes"/>
      <point x="504" y="522" type="line"/>
    </contour>
    <contour>
      <point x="334" y="201" type="line" smooth="yes"/>
      <point x="321" y="130"/>
      <point x="288" y="40"/>
      <point x="213" y="40" type="curve" smooth="yes"/>
      <point x="159" y="40"/>
      <point x="141" y="86"/>
      <point x="141" y="145" type="curve" smooth="yes"/>
      <point x="141" y="191"/>
      <point x="152" y="261"/>
      <point x="164" y="310" type="curve" smooth="yes"/>
      <point x="182" y="385"/>
      <point x="214" y="470"/>
      <point x="292" y="470" type="curve" smooth="yes"/>
      <point x="319" y="470"/>
      <point x="353" y="460"/>
      <point x="378" y="439" type="curve"/>
    </contour>
    <contour>
      <point x="442" y="10" type="move" name="ogonek"/>
    </contour>
    <contour>
      <point x="353" y="510" type="move" name="top"/>
    </contour>
  </outline>
</glyph>
<glyph name="b" format="1">
  <advance width="509"/>
  <unicode hex="0062"/>
  <outline>
    <contour>
      <point x="143" y="700" type="line"/>
      <point x="13" y="30" type="line"/>
      <point x="61" y="-2"/>
      <point x="151" y="-20"/>
      <point x="209" y="-20" type="curve" smooth="yes"/>
      <point x="399" y="-20"/>
      <point x="484" y="175"/>
      <point x="484" y="349" type="curve" smooth="yes"/>
      <point x="484" y="456"/>
      <point x="452" y="530"/>
      <point x="351" y="530" type="curve" smooth="yes"/>
      <point x="285" y="530"/>
      <point x="229" y="499"/>
      <point x="193" y="443" type="curve"/>
      <point x="207" y="479"/>
      <point x="223" y="545"/>
      <point x="233" y="599" type="curve" smooth="yes"/>
      <point x="255" y="712" type="line"/>
    </contour>
    <contour>
      <point x="170" y="278" type="line" smooth="yes"/>
      <point x="185" y="357"/>
      <point x="225" y="453"/>
      <point x="305" y="453" type="curve" smooth="yes"/>
      <point x="353" y="453"/>
      <point x="370" y="419"/>
      <point x="370" y="364" type="curve" smooth="yes"/>
      <point x="370" y="320"/>
      <point x="359" y="249"/>
      <point x="347" y="200" type="curve" smooth="yes"/>
      <point x="328" y="120"/>
      <point x="295" y="40"/>
      <point x="218" y="40" type="curve" smooth="yes"/>
      <point x="191" y="40"/>
      <point x="157" y="50"/>
      <point x="131" y="70" type="curve"/>
    </contour>
  </outline>
</glyph>
<glyph name="c" format="1">
  <advance width="439"/>
  <unicode hex="0063"/>
  <outline>
    <contour>
      <point x="122" y="530"/>
      <point x="27" y="349"/>
      <point x="27" y="178" type="curve" smooth="yes"/>
      <point x="27" y="46"/>
      <point x="84" y="-20"/>
      <point x="200" y="-20" type="curve" smooth="yes"/>
      <point x="309" y="-20"/>
      <point x="388" y="38"/>
      <point x="388" y="108" type="curve" smooth="yes"/>
      <point x="388" y="133"/>
      <point x="378" y="152"/>
      <point x="354" y="159" type="curve"/>
      <point x="335" y="103"/>
      <point x="292" y="63"/>
      <point x="232" y="63" type="curve" smooth="yes"/>
      <point x="163" y="63"/>
      <point x="141" y="116"/>
      <point x="141" y="182" type="curve" smooth="yes"/>
      <point x="141" y="282"/>
      <point x="191" y="471"/>
      <point x="290" y="471" type="curve" smooth="yes"/>
      <point x="322" y="471"/>
      <point x="338" y="452"/>
      <point x="338" y="420" type="curve" smooth="yes"/>
      <point x="338" y="401"/>
      <point x="332" y="372"/>
      <point x="324" y="352" type="curve"/>
      <point x="334" y="341"/>
      <point x="353" y="338"/>
      <point x="366" y="338" type="curve" smooth="yes"/>
      <point x="407" y="338"/>
      <point x="448" y="366"/>
      <point x="448" y="425" type="curve" smooth="yes"/>
      <point x="448" y="495"/>
      <point x="390" y="530"/>
      <point x="308" y="530" type="curve" smooth="yes"/>
    </contour>
    <contour>
      <point x="306" y="510" type="move" name="top"/>
    </contour>
    <contour>
      <point x="220" y="0" type="move" name="bottom"/>
    </contour>
  </outline>
</glyph>
<glyph name="e" format="1">
  <advance width="437"/>
  <unicode hex="0065"/>
  <outline>
    <contour>
      <point x="119" y="530"/>
      <point x="27" y="347"/>
      <point x="27" y="178" type="curve" smooth="yes"/>
      <point x="27" y="43"/>
      <point x="85" y="-20"/>
      <point x="200" y="-20" type="curve" smooth="yes"/>
      <point x="315" y="-20"/>
      <point x="388" y="43"/>
      <point x="388" y="102" type="curve" smooth="yes"/>
      <point x="388" y="119"/>
      <point x="382" y="138"/>
      <point x="364" y="142" type="curve"/>
      <point x="339" y="92"/>
      <point x="292" y="63"/>
      <point x="234" y="63" type="curve" smooth="yes"/>
      <point x="163" y="63"/>
      <point x="141" y="106"/>
      <point x="141" y="179" type="curve" smooth="yes"/>
      <point x="141" y="195"/>
      <point x="142" y="217"/>
      <point x="144" y="239" type="curve"/>
      <point x="157" y="238"/>
      <point x="181" y="237"/>
      <point x="198" y="237" type="curve" smooth="yes"/>
      <point x="336" y="237"/>
      <point x="451" y="299"/>
      <point x="451" y="416" type="curve" smooth="yes"/>
      <point x="451" y="501"/>
      <point x="391" y="530"/>
      <point x="314" y="530" type="curve" smooth="yes"/>
    </contour>
    <contour>
      <point x="324" y="473"/>
      <point x="343" y="454"/>
      <point x="343" y="415" type="curve" smooth="yes"/>
      <point x="343" y="325"/>
      <point x="242" y="288"/>
      <point x="151" y="288" type="curve"/>
      <point x="166" y="366"/>
      <point x="214" y="473"/>
      <point x="291" y="473" type="curve" smooth="yes"/>
    </contour>
    <contour>
      <point x="323" y="10" type="move" name="ogonek"/>
    </contour>
    <contour>
      <point x="219" y="0" type="move" name="bottom"/>
    </contour>
    <contour>
      <point x="285" y="510" type="move" name="top"/>
    </contour>
  </outline>
</glyph>
<glyph name="f" format="1">
  <advance width="308"/>
  <unicode hex="0066"/>
  <outline>
    <contour>
      <point x="125" y="510" type="line"/>
      <point x="55" y="510" type="line"/>
      <point x="46" y="465" type="line"/>
      <point x="117" y="465" type="line"/>
      <point x="24" y="-12" type="line"/>
      <point x="139" y="0" type="line"/>
      <point x="226" y="465" type="line"/>
      <point x="320" y="465" type="line"/>
      <point x="326" y="510" type="line"/>
      <point x="235" y="510" type="line"/>
      <point x="247" y="578" type="line" smooth="yes"/>
      <point x="256" y="630"/>
      <point x="277" y="676"/>
      <point x="328" y="676" type="curve" smooth="yes"/>
      <point x="359" y="676"/>
      <point x="372" y="658"/>
      <point x="372" y="630" type="curve" smooth="yes"/>
      <point x="372" y="611"/>
      <point x="366" y="594"/>
      <point x="358" y="580" type="curve"/>
      <point x="368" y="572"/>
      <point x="385" y="569"/>
      <point x="400" y="569" type="curve" smooth="yes"/>
      <point x="441" y="569"/>
      <point x="477" y="593"/>
      <point x="477" y="638" type="curve" smooth="yes"/>
      <point x="477" y="697"/>
      <point x="414" y="720"/>
      <point x="340" y="720" type="curve" smooth="yes"/>
      <point x="232" y="720"/>
      <point x="166" y="672"/>
      <point x="139" y="564" type="curve" smooth="yes"/>
    </contour>
  </outline>
</glyph>
<glyph name="g" format="1">
  <advance width="503"/>
  <unicode hex="0067"/>
  <outline>
    <contour>
      <point x="407" y="509" type="line"/>
      <point x="370" y="523"/>
      <point x="343" y="530"/>
      <point x="308" y="530" type="curve" smooth="yes"/>
      <point x="142" y="530"/>
      <point x="41" y="373"/>
      <point x="41" y="223" type="curve" smooth="yes"/>
      <point x="41" y="114"/>
      <point x="94" y="58"/>
      <point x="188" y="58" type="curve" smooth="yes"/>
      <point x="238" y="58"/>
      <point x="294" y="74"/>
      <point x="323" y="115" type="curve"/>
      <point x="301" y="-26"/>
      <point x="273" y="-142"/>
      <point x="185" y="-142" type="curve" smooth="yes"/>
      <point x="149" y="-142"/>
      <point x="122" y="-120"/>
      <point x="122" y="-81" type="curve" smooth="yes"/>
      <point x="122" y="-63"/>
      <point x="130" y="-45"/>
      <point x="141" y="-33" type="curve"/>
      <point x="130" y="-13"/>
      <point x="108" y="-2"/>
      <point x="83" y="-2" type="curve" smooth="yes"/>
      <point x="50" y="-2"/>
      <point x="10" y="-22"/>
      <point x="10" y="-77" type="curve" smooth="yes"/>
      <point x="10" y="-160"/>
      <point x="86" y="-201"/>
      <point x="179" y="-201" type="curve" smooth="yes"/>
      <point x="322" y="-201"/>
      <point x="381" y="-109"/>
      <point x="430" y="141" type="curve" smooth="yes"/>
      <point x="506" y="522" type="line"/>
    </contour>
    <contour>
      <point x="348" y="279" type="line" smooth="yes"/>
      <point x="333" y="207"/>
      <point x="304" y="118"/>
      <point x="225" y="118" type="curve" smooth="yes"/>
      <point x="176" y="118"/>
      <point x="155" y="152"/>
      <point x="155" y="210" type="curve" smooth="yes"/>
      <point x="155" y="294"/>
      <point x="199" y="470"/>
      <point x="297" y="470" type="curve" smooth="yes"/>
      <point x="320" y="470"/>
      <point x="355" y="460"/>
      <point x="380" y="439" type="curve"/>
    </contour>
    <contour>
      <point x="326" y="510" type="move" name="top"/>
    </contour>
  </outline>
</glyph>
<glyph name="h" format="1">
  <advance width="539"/>
  <unicode hex="0068"/>
  <outline>
    <contour>
      <point x="164" y="700" type="line"/>
      <point x="25" y="-12" type="line"/>
      <point x="137" y="0" type="line"/>
      <point x="191" y="278" type="line" smooth="yes"/>
      <point x="207" y="358"/>
      <point x="247" y="453"/>
      <point x="326" y="453" type="curve" smooth="yes"/>
      <point x="365" y="453"/>
      <point x="390" y="429"/>
      <point x="390" y="385" type="curve" smooth="yes"/>
      <point x="390" y="316"/>
      <point x="328" y="140"/>
      <point x="328" y="55" type="curve" smooth="yes"/>
      <point x="328" y="1"/>
      <point x="353" y="-20"/>
      <point x="394" y="-20" type="curve" smooth="yes"/>
      <point x="428" y="-20"/>
      <point x="459" y="-5"/>
      <point x="468" y="27" type="curve"/>
      <point x="443" y="30"/>
      <point x="438" y="45"/>
      <point x="438" y="64" type="curve" smooth="yes"/>
      <point x="438" y="129"/>
      <point x="500" y="294"/>
      <point x="500" y="402" type="curve" smooth="yes"/>
      <point x="500" y="483"/>
      <point x="465" y="530"/>
      <point x="378" y="530" type="curve" smooth="yes"/>
      <point x="315" y="530"/>
      <point x="252" y="505"/>
      <point x="214" y="443" type="curve"/>
      <point x="228" y="479"/>
      <point x="244" y="545"/>
      <point x="254" y="599" type="curve" smooth="yes"/>
      <point x="276" y="712" type="line"/>
    </contour>
    <contour>
      <point x="275" y="255" type="move" name="center"/>
    </contour>
    <contour>
      <point x="240" y="0" type="move" name="bottom"/>
    </contour>
    <contour>
      <point x="227" y="660" type="move" name="top"/>
    </contour>
  </outline>
</glyph>
<glyph name="k" format="1">
  <advance width="469"/>
  <unicode hex="006B"/>
  <outline>
    <contour>
      <point x="143" y="700" type="line"/>
      <point x="4" y="-12" type="line"/>
      <point x="116" y="0" type="line"/>
      <point x="170" y="278" type="line" smooth="yes"/>
      <point x="187" y="364"/>
      <point x="217" y="453"/>
      <point x="297" y="453" type="curve" smooth="yes"/>
      <point x="337" y="453"/>
      <point x="359" y="431"/>
      <point x="359" y="390" type="curve" smooth="yes"/>
      <point x="359" y="308"/>
      <point x="271" y="261"/>
      <point x="191" y="241" type="curve"/>
      <point x="244" y="57"/>
      <point x="276" y="-20"/>
      <point x="354" y="-20" type="curve" smooth="yes"/>
      <point x="395" y="-20"/>
      <point x="419" y="2"/>
      <point x="424" y="35" type="curve"/>
      <point x="385" y="39"/>
      <point x="361" y="74"/>
      <point x="348" y="107" type="curve" smooth="yes"/>
      <point x="302" y="226" type="line"/>
      <point x="383" y="255"/>
      <point x="469" y="310"/>
      <point x="469" y="414" type="curve" smooth="yes"/>
      <point x="469" y="483"/>
      <point x="431" y="530"/>
      <point x="351" y="530" type="curve" smooth="yes"/>
      <point x="290" y="530"/>
      <point x="229" y="502"/>
      <point x="193" y="443" type="curve"/>
      <point x="207" y="479"/>
      <point x="223" y="545"/>
      <point x="233" y="599" type="curve" smooth="yes"/>
      <point x="255" y="712" type="line"/>
    </contour>
    <contour>
      <point x="224" y="0" type="move" name="bottom"/>
    </contour>
  </outline>
</glyph>
<glyph name="l" format="1">
  <advance width="240"/>
  <unicode hex="006C"/>
  <outline>
    <contour>
      <point x="146" y="700" type="line"/>
      <point x="40" y="172" type="line" smooth="yes"/>
      <point x="34" y="142"/>
      <point x="21" y="77"/>
      <point x="21" y="47" type="curve" smooth="yes"/>
      <point x="21" y="5"/>
      <point x="46" y="-20"/>
      <point x="88" y="-20" type="curve" smooth="yes"/>
      <point x="121" y="-20"/>
      <point x="152" y="-5"/>
      <point x="161" y="27" type="curve"/>
      <point x="141" y="29"/>
      <point x="131" y="41"/>
      <point x="131" y="61" type="curve" smooth="yes"/>
      <point x="131" y="72"/>
      <point x="134" y="92"/>
      <point x="136" y="103" type="curve" smooth="yes"/>
      <point x="258" y="712" type="line"/>
    </contour>
    <contour>
      <point x="293" y="329" type="move" name="center"/>
    </contour>
    <contour>
      <point x="296" y="510" type="move" name="caron"/>
    </contour>
    <contour>
      <point x="201" y="677" type="move" name="top"/>
    </contour>
    <contour>
      <point x="220" y="510" type="move" name="topright"/>
    </contour>
    <contour>
      <point x="110" y="0" type="move" name="bottom"/>
    </contour>
  </outline>
</glyph>
<glyph name="m" format="1">
  <advance width="817"/>
  <unicode hex="006D"/>
  <outline>
    <contour>
      <point x="220" y="522" type="line"/>
      <point x="127" y="510" type="line"/>
      <point x="25" y="-12" type="line"/>
      <point x="137" y="0" type="line"/>
      <point x="191" y="278" type="line" smooth="yes"/>
      <point x="207" y="361"/>
      <point x="236" y="453"/>
      <point x="318" y="453" type="curve" smooth="yes"/>
      <point x="360" y="453"/>
      <point x="384" y="429"/>
      <point x="384" y="383" type="curve" smooth="yes"/>
      <point x="384" y="347"/>
      <point x="369" y="280"/>
      <point x="361" y="241" type="curve" smooth="yes"/>
      <point x="310" y="-12" type="line"/>
      <point x="422" y="0" type="line"/>
      <point x="476" y="278" type="line" smooth="yes"/>
      <point x="491" y="357"/>
      <point x="520" y="453"/>
      <point x="603" y="453" type="curve" smooth="yes"/>
      <point x="644" y="453"/>
      <point x="668" y="429"/>
      <point x="668" y="385" type="curve" smooth="yes"/>
      <point x="668" y="316"/>
      <point x="606" y="141"/>
      <point x="606" y="55" type="curve" smooth="yes"/>
      <point x="606" y="1"/>
      <point x="631" y="-20"/>
      <point x="672" y="-20" type="curve" smooth="yes"/>
      <point x="706" y="-20"/>
      <point x="737" y="-5"/>
      <point x="746" y="27" type="curve"/>
      <point x="726" y="29"/>
      <point x="716" y="40"/>
      <point x="716" y="65" type="curve" smooth="yes"/>
      <point x="716" y="129"/>
      <point x="785" y="295"/>
      <point x="785" y="401" type="curve" smooth="yes"/>
      <point x="785" y="482"/>
      <point x="744" y="530"/>
      <point x="657" y="530" type="curve" smooth="yes"/>
      <point x="591" y="530"/>
      <point x="526" y="503"/>
      <point x="490" y="439" type="curve"/>
      <point x="478" y="500"/>
      <point x="443" y="530"/>
      <point x="372" y="530" type="curve" smooth="yes"/>
      <point x="300" y="530"/>
      <point x="243" y="499"/>
      <point x="208" y="432" type="curve"/>
    </contour>
  </outline>
</glyph>
<glyph name="o" format="1">
  <advance width="508"/>
  <unicode hex="006F"/>
  <outline>
    <contour>
      <point x="112" y="530"/>
      <point x="27" y="349"/>
      <point x="27" y="167" type="curve" smooth="yes"/>
      <point x="27" y="73"/>
      <point x="50" y="-20"/>
      <point x="194" y="-20" type="curve" smooth="yes"/>
      <point x="396" y="-20"/>
      <point x="481" y="161"/>
      <point x="481" y="343" type="curve" smooth="yes"/>
      <point x="481" y="437"/>
      <point x="458" y="530"/>
      <point x="314" y="530" type="curve" smooth="yes"/>
    </contour>
    <contour>
      <point x="349" y="470"/>
      <point x="367" y="426"/>
      <point x="367" y="366" type="curve" smooth="yes"/>
      <point x="367" y="319"/>
      <point x="356" y="249"/>
      <point x="344" y="200" type="curve" smooth="yes"/>
      <point x="325" y="121"/>
      <point x="293" y="40"/>
      <point x="216" y="40" type="curve" smooth="yes"/>
      <point x="159" y="40"/>
      <point x="141" y="84"/>
      <point x="141" y="144" type="curve" smooth="yes"/>
      <point x="141" y="191"/>
      <point x="152" y="261"/>
      <point x="164" y="310" type="curve" smooth="yes"/>
      <point x="183" y="389"/>
      <point x="215" y="470"/>
      <point x="292" y="470" type="curve" smooth="yes"/>
    </contour>
    <contour>
      <point x="308" y="10" type="move" name="ogonek"/>
    </contour>
    <contour>
      <point x="201" y="0" type="move" name="bottom"/>
    </contour>
    <contour>
      <point x="321" y="510" type="move" name="top"/>
    </contour>
  </outline>
</glyph>
<glyph name="p" format="1">
  <advance width="530"/>
  <unicode hex="0070"/>
  <outline>
    <contour>
      <point x="219" y="522" type="line"/>
      <point x="126" y="510" type="line"/>
      <point x="-8" y="-192" type="line"/>
      <point x="103" y="-180" type="line"/>
      <point x="138" y="-3" type="line"/>
      <point x="169" y="-14"/>
      <point x="194" y="-20"/>
      <point x="228" y="-20" type="curve" smooth="yes"/>
      <point x="421" y="-20"/>
      <point x="504" y="173"/>
      <point x="504" y="348" type="curve" smooth="yes"/>
      <point x="504" y="457"/>
      <point x="472" y="530"/>
      <point x="377" y="530" type="curve" smooth="yes"/>
      <point x="306" y="530"/>
      <point x="243" y="490"/>
      <point x="207" y="432" type="curve"/>
    </contour>
    <contour>
      <point x="197" y="309" type="line" smooth="yes"/>
      <point x="211" y="381"/>
      <point x="252" y="453"/>
      <point x="324" y="453" type="curve" smooth="yes"/>
      <point x="373" y="453"/>
      <point x="390" y="420"/>
      <point x="390" y="364" type="curve" smooth="yes"/>
      <point x="390" y="319"/>
      <point x="379" y="249"/>
      <point x="367" y="200" type="curve" smooth="yes"/>
      <point x="349" y="125"/>
      <point x="317" y="40"/>
      <point x="239" y="40" type="curve" smooth="yes"/>
      <point x="212" y="40"/>
      <point x="178" y="50"/>
      <point x="153" y="71" type="curve"/>
    </contour>
  </outline>
</glyph>
<glyph name="q" format="1">
  <advance width="505"/>
  <unicode hex="0071"/>
  <outline>
    <contour>
      <point x="404" y="509" type="line"/>
      <point x="367" y="523"/>
      <point x="340" y="530"/>
      <point x="303" y="530" type="curve" smooth="yes"/>
      <point x="111" y="530"/>
      <point x="26" y="337"/>
      <point x="26" y="162" type="curve" smooth="yes"/>
      <point x="26" y="54"/>
      <point x="58" y="-20"/>
      <point x="159" y="-20" type="curve" smooth="yes"/>
      <point x="225" y="-20"/>
      <point x="281" y="11"/>
      <point x="317" y="67" type="curve"/>
      <point x="303" y="31"/>
      <point x="289" y="-35"/>
      <point x="279" y="-89" type="curve" smooth="yes"/>
      <point x="258" y="-202" type="line"/>
      <point x="370" y="-190" type="line"/>
      <point x="502" y="522" type="line"/>
    </contour>
    <contour>
      <point x="340" y="232" type="line" smooth="yes"/>
      <point x="325" y="153"/>
      <point x="285" y="57"/>
      <point x="205" y="57" type="curve" smooth="yes"/>
      <point x="157" y="57"/>
      <point x="140" y="91"/>
      <point x="140" y="146" type="curve" smooth="yes"/>
      <point x="140" y="190"/>
      <point x="151" y="261"/>
      <point x="163" y="310" type="curve" smooth="yes"/>
      <point x="182" y="390"/>
      <point x="215" y="470"/>
      <point x="291" y="470" type="curve" smooth="yes"/>
      <point x="319" y="470"/>
      <point x="354" y="459"/>
      <point x="378" y="440" type="curve"/>
    </contour>
  </outline>
</glyph>
<glyph name="r" format="1">
  <advance width="421"/>
  <unicode hex="0072"/>
  <outline>
    <contour>
      <point x="218" y="522" type="line"/>
      <point x="125" y="510" type="line"/>
      <point x="25" y="-12" type="line"/>
      <point x="140" y="0" type="line"/>
      <point x="189" y="278" type="line" smooth="yes"/>
      <point x="201" y="343"/>
      <point x="227" y="453"/>
      <point x="293" y="453" type="curve" smooth="yes"/>
      <point x="318" y="453"/>
      <point x="330" y="437"/>
      <point x="330" y="412" type="curve" smooth="yes"/>
      <point x="330" y="385"/>
      <point x="317" y="349"/>
      <point x="301" y="327" type="curve"/>
      <point x="310" y="313"/>
      <point x="329" y="309"/>
      <point x="344" y="309" type="curve" smooth="yes"/>
      <point x="402" y="309"/>
      <point x="442" y="365"/>
      <point x="442" y="430" type="curve" smooth="yes"/>
      <point x="442" y="485"/>
      <point x="413" y="530"/>
      <point x="348" y="530" type="curve" smooth="yes"/>
      <point x="286" y="530"/>
      <point x="231" y="489"/>
      <point x="206" y="432" type="curve"/>
    </contour>
    <contour>
      <point x="180" y="510" type="move" name="top"/>
    </contour>
    <contour>
      <point x="98" y="0" type="move" name="bottom"/>
    </contour>
  </outline>
</glyph>
<glyph name="s" format="1">
  <advance width="416"/>
  <unicode hex="0073"/>
  <outline>
    <contour>
      <point x="260" y="60"/>
      <point x="223" y="29"/>
      <point x="174" y="29" type="curve" smooth="yes"/>
      <point x="135" y="29"/>
      <point x="115" y="48"/>
      <point x="115" y="85" type="curve" smooth="yes"/>
      <point x="115" y="104"/>
      <point x="120" y="125"/>
      <point x="129" y="144" type="curve"/>
      <point x="118" y="153"/>
      <point x="102" y="156"/>
      <point x="86" y="156" type="curve" smooth="yes"/>
      <point x="46" y="156"/>
      <point x="-7" y="137"/>
      <point x="-7" y="81" type="curve" smooth="yes"/>
      <point x="-7" y="11"/>
      <point x="77" y="-22"/>
      <point x="156" y="-22" type="curve" smooth="yes"/>
      <point x="264" y="-22"/>
      <point x="369" y="41"/>
      <point x="369" y="142" type="curve" smooth="yes"/>
      <point x="369" y="217"/>
      <point x="312" y="257"/>
      <point x="257" y="295" type="curve" smooth="yes"/>
      <point x="209" y="328"/>
      <point x="170" y="357"/>
      <point x="170" y="407" type="curve" smooth="yes"/>
      <point x="170" y="451"/>
      <point x="201" y="479"/>
      <point x="247" y="479" type="curve" smooth="yes"/>
      <point x="284" y="479"/>
      <point x="304" y="460"/>
      <point x="304" y="423" type="curve" smooth="yes"/>
      <point x="304" y="403"/>
      <point x="298" y="384"/>
      <point x="290" y="364" type="curve"/>
      <point x="300" y="355"/>
      <point x="317" y="353"/>
      <point x="330" y="353" type="curve" smooth="yes"/>
      <point x="377" y="353"/>
      <point x="416" y="383"/>
      <point x="416" y="435" type="curve" smooth="yes"/>
      <point x="416" y="507"/>
      <point x="343" y="530"/>
      <point x="275" y="530" type="curve" smooth="yes"/>
      <point x="166" y="530"/>
      <point x="61" y="471"/>
      <point x="61" y="372" type="curve" smooth="yes"/>
      <point x="61" y="297"/>
      <point x="121" y="255"/>
      <point x="172" y="220" type="curve" smooth="yes"/>
      <point x="222" y="186"/>
      <point x="260" y="157"/>
      <point x="260" y="108" type="curve" smooth="yes"/>
    </contour>
    <contour>
      <point x="262" y="510" type="move" name="top"/>
    </contour>
    <contour>
      <point x="163" y="0" type="move" name="bottom"/>
    </contour>
  </outline>
</glyph>
<glyph name="t" format="1">
  <advance width="299"/>
  <unicode hex="0074"/>
  <outline>
    <contour>
      <point x="246" y="609" type="line"/>
      <point x="199" y="560"/>
      <point x="134" y="519"/>
      <point x="70" y="495" type="curve"/>
      <point x="66" y="465" type="line"/>
      <point x="137" y="465" type="line"/>
      <point x="109" y="322" type="line" smooth="yes"/>
      <point x="97" y="262"/>
      <point x="60" y="102"/>
      <point x="60" y="49" type="curve" smooth="yes"/>
      <point x="60" y="4"/>
      <point x="85" y="-20"/>
      <point x="127" y="-20" type="curve" smooth="yes"/>
      <point x="160" y="-20"/>
      <point x="191" y="-5"/>
      <point x="200" y="27" type="curve"/>
      <point x="180" y="29"/>
      <point x="170" y="41"/>
      <point x="170" y="61" type="curve" smooth="yes"/>
      <point x="170" y="72"/>
      <point x="173" y="92"/>
      <point x="175" y="103" type="curve" smooth="yes"/>
      <point x="247" y="465" type="line"/>
      <point x="326" y="465" type="line"/>
      <point x="335" y="510" type="line"/>
      <point x="257" y="510" type="line"/>
      <point x="277" y="609" type="line"/>
    </contour>
    <contour>
      <point x="150" y="255" type="move" name="center"/>
    </contour>
    <contour>
      <point x="121" y="0" type="move" name="bottom"/>
    </contour>
  </outline>
</glyph>
<glyph name="u" format="1">
  <advance width="527"/>
  <unicode hex="0075"/>
  <outline>
    <contour>
      <point x="393" y="510" type="line"/>
      <point x="333" y="201" type="line" smooth="yes"/>
      <point x="319" y="126"/>
      <point x="285" y="40"/>
      <point x="213" y="40" type="curve" smooth="yes"/>
      <point x="161" y="40"/>
      <point x="146" y="85"/>
      <point x="146" y="129" type="curve" smooth="yes"/>
      <point x="146" y="177"/>
      <point x="164" y="267"/>
      <point x="174" y="310" type="curve" smooth="yes"/>
      <point x="222" y="522" type="line"/>
      <point x="114" y="510" type="line"/>
      <point x="68" y="310" type="line" smooth="yes"/>
      <point x="51" y="236"/>
      <point x="38" y="173"/>
      <point x="38" y="123" type="curve" smooth="yes"/>
      <point x="38" y="41"/>
      <point x="73" y="-20"/>
      <point x="172" y="-20" type="curve" smooth="yes"/>
      <point x="223" y="-20"/>
      <point x="279" y="-4"/>
      <point x="308" y="37" type="curve"/>
      <point x="312" y="0"/>
      <point x="338" y="-20"/>
      <point x="375" y="-20" type="curve" smooth="yes"/>
      <point x="408" y="-20"/>
      <point x="439" y="-5"/>
      <point x="448" y="27" type="curve"/>
      <point x="428" y="29"/>
      <point x="418" y="41"/>
      <point x="418" y="61" type="curve" smooth="yes"/>
      <point x="418" y="73"/>
      <point x="421" y="91"/>
      <point x="423" y="103" type="curve" smooth="yes"/>
      <point x="504" y="522" type="line"/>
    </contour>
    <contour>
      <point x="440" y="10" type="move" name="ogonek"/>
    </contour>
    <contour>
      <point x="201" y="0" type="move" name="bottom"/>
    </contour>
    <contour>
      <point x="315" y="510" type="move" name="top"/>
    </contour>
  </outline>
</glyph>
<glyph name="v" format="1">
  <advance width="452"/>
  <unicode hex="0076"/>
  <outline>
    <contour>
      <point x="195" y="0" type="line"/>
      <point x="257" y="53"/>
      <point x="317" y="123"/>
      <point x="349" y="167" type="curve" smooth="yes"/>
      <point x="411" y="252"/>
      <point x="469" y="377"/>
      <point x="469" y="465" type="curve" smooth="yes"/>
      <point x="469" y="507"/>
      <point x="456" y="530"/>
      <point x="414" y="530" type="curve" smooth="yes"/>
      <point x="385" y="530"/>
      <point x="356" y="519"/>
      <point x="339" y="503" type="curve"/>
      <point x="344" y="483"/>
      <point x="346" y="464"/>
      <point x="346" y="445" type="curve" smooth="yes"/>
      <point x="346" y="326"/>
      <point x="268" y="170"/>
      <point x="193" y="72" type="curve"/>
      <point x="194" y="116"/>
      <point x="194" y="153"/>
      <point x="194" y="186" type="curve" smooth="yes"/>
      <point x="194" y="323"/>
      <point x="191" y="377"/>
      <point x="188" y="410" type="curve" smooth="yes"/>
      <point x="181" y="492"/>
      <point x="163" y="530"/>
      <point x="98" y="530" type="curve" smooth="yes"/>
      <point x="66" y="530"/>
      <point x="44" y="521"/>
      <point x="30" y="503" type="curve"/>
      <point x="55" y="488"/>
      <point x="63" y="464"/>
      <point x="71" y="410" type="curve" smooth="yes"/>
      <point x="86" y="310"/>
      <point x="93" y="152"/>
      <point x="97" y="-11" type="curve"/>
    </contour>
  </outline>
</glyph>
<glyph name="w" format="1">
  <advance width="701"/>
  <unicode hex="0077"/>
  <outline>
    <contour>
      <point x="195" y="0" type="line"/>
      <point x="250" y="50"/>
      <point x="300" y="104"/>
      <point x="349" y="183" type="curve"/>
      <point x="352" y="124"/>
      <point x="354" y="66"/>
      <point x="356" y="-11" type="curve"/>
      <point x="454" y="0" type="line"/>
      <point x="514" y="57"/>
      <point x="574" y="134"/>
      <point x="598" y="167" type="curve" smooth="yes"/>
      <point x="661" y="254"/>
      <point x="718" y="377"/>
      <point x="718" y="465" type="curve" smooth="yes"/>
      <point x="718" y="507"/>
      <point x="705" y="530"/>
      <point x="663" y="530" type="curve" smooth="yes"/>
      <point x="634" y="530"/>
      <point x="605" y="519"/>
      <point x="588" y="503" type="curve"/>
      <point x="593" y="483"/>
      <point x="595" y="464"/>
      <point x="595" y="444" type="curve" smooth="yes"/>
      <point x="595" y="326"/>
      <point x="529" y="167"/>
      <point x="452" y="72" type="curve"/>
      <point x="453" y="127"/>
      <point x="454" y="177"/>
      <point x="454" y="214" type="curve" smooth="yes"/>
      <point x="454" y="267"/>
      <point x="452" y="385"/>
      <point x="448" y="446" type="curve" smooth="yes"/>
      <point x="445" y="491"/>
      <point x="442" y="530"/>
      <point x="396" y="530" type="curve" smooth="yes"/>
      <point x="368" y="530"/>
      <point x="343" y="516"/>
      <point x="329" y="503" type="curve"/>
      <point x="334" y="483"/>
      <point x="336" y="464"/>
      <point x="336" y="444" type="curve" smooth="yes"/>
      <point x="336" y="326"/>
      <point x="269" y="167"/>
      <point x="192" y="72" type="curve"/>
      <point x="192" y="115"/>
      <point x="193" y="175"/>
      <point x="193" y="232" type="curve" smooth="yes"/>
      <point x="193" y="313"/>
      <point x="191" y="376"/>
      <point x="188" y="410" type="curve" smooth="yes"/>
      <point x="181" y="492"/>
      <point x="163" y="530"/>
      <point x="98" y="530" type="curve" smooth="yes"/>
      <point x="65" y="530"/>
      <point x="43" y="520"/>
      <point x="30" y="503" type="curve"/>
      <point x="55" y="488"/>
      <point x="63" y="464"/>
      <point x="71" y="410" type="curve" smooth="yes"/>
      <point x="86" y="310"/>
      <point x="93" y="152"/>
      <point x="97" y="-11" type="curve"/>
    </contour>
    <contour>
      <point x="397" y="510" type="move" name="top"/>
    </contour>
  </outline>
</glyph>
<glyph name="x" format="1">
  <advance width="429"/>
  <unicode hex="0078"/>
  <outline>
    <contour>
      <point x="160" y="255" type="line"/>
      <point x="137" y="240" type="line" smooth="yes"/>
      <point x="65" y="191"/>
      <point x="-15" y="129"/>
      <point x="-15" y="50" type="curve" smooth="yes"/>
      <point x="-15" y="10"/>
      <point x="6" y="-19"/>
      <point x="53" y="-19" type="curve" smooth="yes"/>
      <point x="79" y="-19"/>
      <point x="105" y="-10"/>
      <point x="119" y="3" type="curve"/>
      <point x="110" y="24"/>
      <point x="104" y="45"/>
      <point x="104" y="67" type="curve" smooth="yes"/>
      <point x="104" y="118"/>
      <point x="138" y="162"/>
      <point x="181" y="203" type="curve"/>
      <point x="225" y="94" type="line" smooth="yes"/>
      <point x="249" y="34"/>
      <point x="277" y="-20"/>
      <point x="340" y="-20" type="curve" smooth="yes"/>
      <point x="379" y="-20"/>
      <point x="406" y="0"/>
      <point x="411" y="35" type="curve"/>
      <point x="372" y="39"/>
      <point x="351" y="64"/>
      <point x="338" y="97" type="curve" smooth="yes"/>
      <point x="275" y="258" type="line"/>
      <point x="309" y="281" type="line" smooth="yes"/>
      <point x="381" y="331"/>
      <point x="446" y="387"/>
      <point x="446" y="459" type="curve" smooth="yes"/>
      <point x="446" y="500"/>
      <point x="425" y="529"/>
      <point x="378" y="529" type="curve" smooth="yes"/>
      <point x="352" y="529"/>
      <point x="326" y="520"/>
      <point x="312" y="507" type="curve"/>
      <point x="321" y="486"/>
      <point x="327" y="465"/>
      <point x="327" y="442" type="curve" smooth="yes"/>
      <point x="327" y="391"/>
      <point x="297" y="352"/>
      <point x="254" y="310" type="curve"/>
      <point x="210" y="416" type="line" smooth="yes"/>
      <point x="183" y="481"/>
      <point x="155" y="530"/>
      <point x="95" y="530" type="curve" smooth="yes"/>
      <point x="56" y="530"/>
      <point x="29" y="510"/>
      <point x="24" y="475" type="curve"/>
      <point x="63" y="471"/>
      <point x="84" y="446"/>
      <point x="97" y="413" type="curve" smooth="yes"/>
    </contour>
  </outline>
</glyph>
<glyph name="y" format="1">
  <advance width="441"/>
  <unicode hex="0079"/>
  <outline>
    <contour>
      <point x="35" y="-172"/>
      <point x="57" y="-200"/>
      <point x="99" y="-200" type="curve" smooth="yes"/>
      <point x="130" y="-200"/>
      <point x="159" y="-189"/>
      <point x="177" y="-170" type="curve"/>
      <point x="162" y="-146"/>
      <point x="149" y="-111"/>
      <point x="149" y="-82" type="curve" smooth="yes"/>
      <point x="149" y="-28"/>
      <point x="171" y="-2"/>
      <point x="211" y="35" type="curve" smooth="yes"/>
      <point x="371" y="183"/>
      <point x="455" y="346"/>
      <point x="455" y="465" type="curve" smooth="yes"/>
      <point x="455" y="507"/>
      <point x="442" y="530"/>
      <point x="400" y="530" type="curve" smooth="yes"/>
      <point x="371" y="530"/>
      <point x="342" y="519"/>
      <point x="325" y="503" type="curve"/>
      <point x="330" y="483"/>
      <point x="332" y="464"/>
      <point x="332" y="445" type="curve" smooth="yes"/>
      <point x="332" y="326"/>
      <point x="265" y="200"/>
      <point x="183" y="92" type="curve"/>
      <point x="184" y="186" type="line" smooth="yes"/>
      <point x="185" y="323"/>
      <point x="184" y="377"/>
      <point x="182" y="410" type="curve" smooth="yes"/>
      <point x="178" y="490"/>
      <point x="161" y="530"/>
      <point x="94" y="530" type="curve" smooth="yes"/>
      <point x="62" y="530"/>
      <point x="40" y="521"/>
      <point x="26" y="503" type="curve"/>
      <point x="51" y="488"/>
      <point x="60" y="464"/>
      <point x="67" y="410" type="curve" smooth="yes"/>
      <point x="80" y="310"/>
      <point x="81" y="182"/>
      <point x="85" y="19" type="curve"/>
      <point x="130" y="19" type="line"/>
      <point x="88" y="-18"/>
      <point x="35" y="-72"/>
      <point x="35" y="-127" type="curve" smooth="yes"/>
    </contour>
    <contour>
      <point x="258" y="510" type="move" name="top"/>
    </contour>
  </outline>
</glyph>
<glyph name="z" format="1">
  <advance width="395"/>
  <unicode hex="007A"/>
  <outline>
    <contour>
      <point x="26" y="137" type="line" smooth="yes"/>
      <point x="6" y="115"/>
      <point x="-11" y="85"/>
      <point x="-11" y="54" type="curve" smooth="yes"/>
      <point x="-11" y="30"/>
      <point x="-1" y="5"/>
      <point x="13" y="-3" type="curve"/>
      <point x="26" y="4"/>
      <point x="44" y="8"/>
      <point x="68" y="8" type="curve" smooth="yes"/>
      <point x="128" y="8"/>
      <point x="196" y="-16"/>
      <point x="261" y="-16" type="curve" smooth="yes"/>
      <point x="314" y="-16"/>
      <point x="362" y="0"/>
      <point x="362" y="52" type="curve" smooth="yes"/>
      <point x="362" y="73"/>
      <point x="354" y="93"/>
      <point x="344" y="106" type="curve"/>
      <point x="323" y="84"/>
      <point x="292" y="79"/>
      <point x="263" y="79" type="curve" smooth="yes"/>
      <point x="228" y="79"/>
      <point x="150" y="86"/>
      <point x="109" y="95" type="curve"/>
      <point x="383" y="402" type="line" smooth="yes"/>
      <point x="399" y="420"/>
      <point x="412" y="443"/>
      <point x="412" y="472" type="curve" smooth="yes"/>
      <point x="412" y="490"/>
      <point x="407" y="503"/>
      <point x="394" y="516" type="curve"/>
      <point x="381" y="509"/>
      <point x="363" y="506"/>
      <point x="340" y="506" type="curve" smooth="yes"/>
      <point x="278" y="506"/>
      <point x="210" y="529"/>
      <point x="149" y="529" type="curve" smooth="yes"/>
      <point x="96" y="529"/>
      <point x="51" y="512"/>
      <point x="51" y="461" type="curve" smooth="yes"/>
      <point x="51" y="440"/>
      <point x="59" y="420"/>
      <point x="69" y="407" type="curve"/>
      <point x="90" y="429"/>
      <point x="116" y="434"/>
      <point x="146" y="434" type="curve" smooth="yes"/>
      <point x="178" y="434"/>
      <point x="249" y="428"/>
      <point x="291" y="419" type="curve"/>
    </contour>
    <contour>
      <point x="248" y="510" type="move" name="top"/>
    </contour>
    <contour>
      <point x="181" y="0" type="move" name="bottom"/>
    </contour>
  </outline>
</glyph>
<glyph name="braceleft" format="1">
  <advance width="373"/>
  <unicode hex="007B"/>
  <outline>
    <contour>
      <point x="250" y="800"/>
      <point x="220" y="762"/>
      <point x="203" y="669" type="curve" smooth="yes"/>
      <point x="165" y="451" type="line" smooth="yes"/>
      <point x="153" y="380"/>
      <point x="122" y="336"/>
      <point x="71" y="336" type="curve"/>
      <point x="60" y="280" type="line"/>
      <point x="101" y="280"/>
      <point x="119" y="256"/>
      <point x="119" y="219" type="curve" smooth="yes"/>
      <point x="119" y="204"/>
      <point x="116" y="185"/>
      <point x="112" y="165" type="curve" smooth="yes"/>
      <point x="68" y="-54" type="line" smooth="yes"/>
      <point x="64" y="-75"/>
      <point x="60" y="-103"/>
      <point x="60" y="-122" type="curve" smooth="yes"/>
      <point x="60" y="-179"/>
      <point x="96" y="-200"/>
      <point x="162" y="-200" type="curve" smooth="yes"/>
      <point x="182" y="-200"/>
      <point x="207" y="-198"/>
      <point x="242" y="-193" type="curve"/>
      <point x="253" y="-147" type="line"/>
      <point x="229" y="-147" type="line" smooth="yes"/>
      <point x="194" y="-147"/>
      <point x="184" y="-123"/>
      <point x="184" y="-86" type="curve" smooth="yes"/>
      <point x="184" y="-66"/>
      <point x="187" y="-41"/>
      <point x="191" y="-19" type="curve" smooth="yes"/>
      <point x="233" y="190" type="line" smooth="yes"/>
      <point x="237" y="209"/>
      <point x="240" y="230"/>
      <point x="240" y="246" type="curve" smooth="yes"/>
      <point x="240" y="280"/>
      <point x="228" y="306"/>
      <point x="175" y="311" type="curve"/>
      <point x="234" y="319"/>
      <point x="265" y="363"/>
      <point x="277" y="432" type="curve" smooth="yes"/>
      <point x="313" y="638" type="line" smooth="yes"/>
      <point x="325" y="707"/>
      <point x="342" y="748"/>
      <point x="396" y="748" type="curve" smooth="yes"/>
      <point x="419" y="748" type="line"/>
      <point x="427" y="793" type="line"/>
      <point x="397" y="798"/>
      <point x="371" y="800"/>
      <point x="348" y="800" type="curve" smooth="yes"/>
    </contour>
  </outline>
</glyph>
<glyph name="bar" format="1">
  <advance width="284"/>
  <unicode hex="007C"/>
  <outline>
    <contour>
      <point x="192" y="800" type="line"/>
      <point x="0" y="-200" type="line"/>
      <point x="107" y="-200" type="line"/>
      <point x="297" y="800" type="line"/>
    </contour>
  </outline>
</glyph>
<glyph name="braceright" format="1">
  <advance width="404"/>
  <unicode hex="007D"/>
  <outline>
    <contour>
      <point x="-18" y="-148" type="line"/>
      <point x="-26" y="-193" type="line"/>
      <point x="4" y="-198"/>
      <point x="30" y="-200"/>
      <point x="53" y="-200" type="curve" smooth="yes"/>
      <point x="151" y="-200"/>
      <point x="181" y="-162"/>
      <point x="198" y="-69" type="curve" smooth="yes"/>
      <point x="239" y="166" type="line" smooth="yes"/>
      <point x="251" y="237"/>
      <point x="282" y="281"/>
      <point x="333" y="281" type="curve"/>
      <point x="344" y="337" type="line"/>
      <point x="303" y="337"/>
      <point x="285" y="361"/>
      <point x="285" y="398" type="curve" smooth="yes"/>
      <point x="285" y="413"/>
      <point x="288" y="432"/>
      <point x="292" y="452" type="curve" smooth="yes"/>
      <point x="338" y="681"/>
      <point x="341" y="686"/>
      <point x="341" y="722" type="curve" smooth="yes"/>
      <point x="341" y="779"/>
      <point x="305" y="800"/>
      <point x="239" y="800" type="curve" smooth="yes"/>
      <point x="219" y="800"/>
      <point x="194" y="798"/>
      <point x="159" y="793" type="curve"/>
      <point x="148" y="747" type="line"/>
      <point x="172" y="747" type="line" smooth="yes"/>
      <point x="207" y="747"/>
      <point x="217" y="723"/>
      <point x="217" y="686" type="curve" smooth="yes"/>
      <point x="217" y="666"/>
      <point x="214" y="641"/>
      <point x="210" y="619" type="curve" smooth="yes"/>
      <point x="171" y="427" type="line" smooth="yes"/>
      <point x="167" y="408"/>
      <point x="164" y="387"/>
      <point x="164" y="371" type="curve" smooth="yes"/>
      <point x="164" y="337"/>
      <point x="176" y="311"/>
      <point x="229" y="306" type="curve"/>
      <point x="170" y="298"/>
      <point x="139" y="254"/>
      <point x="127" y="185" type="curve" smooth="yes"/>
      <point x="88" y="-38" type="line" smooth="yes"/>
      <point x="76" y="-107"/>
      <point x="59" y="-148"/>
      <point x="5" y="-148" type="curve" smooth="yes"/>
    </contour>
  </outline>
</glyph>
<glyph name="asciitilde" format="1">
  <advance width="554"/>
  <unicode hex="007E"/>
  <outline>
    <contour>
      <point x="398" y="267"/>
      <point x="371" y="257"/>
      <point x="341" y="257" type="curve" smooth="yes"/>
      <point x="288" y="257"/>
      <point x="215" y="288"/>
      <point x="149" y="288" type="curve" smooth="yes"/>
      <point x="89" y="288"/>
      <point x="52" y="262"/>
      <point x="52" y="226" type="curve" smooth="yes"/>
      <point x="52" y="211"/>
      <point x="59" y="196"/>
      <point x="71" y="179" type="curve"/>
      <point x="83" y="194"/>
      <point x="110" y="204"/>
      <point x="140" y="204" type="curve" smooth="yes"/>
      <point x="193" y="204"/>
      <point x="266" y="173"/>
      <point x="332" y="173" type="curve" smooth="yes"/>
      <point x="392" y="173"/>
      <point x="429" y="199"/>
      <point x="429" y="235" type="curve" smooth="yes"/>
      <point x="429" y="250"/>
      <point x="422" y="265"/>
      <point x="410" y="282" type="curve"/>
    </contour>
  </outline>
</glyph>
<glyph name="exclamdown" format="1">
  <advance width="238"/>
  <unicode hex="00A1"/>
  <outline>
    <contour>
      <point x="184" y="237" type="line" smooth="yes"/>
      <point x="186" y="246"/>
      <point x="189" y="263"/>
      <point x="189" y="276" type="curve" smooth="yes"/>
      <point x="189" y="307"/>
      <point x="172" y="329"/>
      <point x="138" y="329" type="curve" smooth="yes"/>
      <point x="119" y="329"/>
      <point x="100" y="322"/>
      <point x="89" y="310" type="curve"/>
      <point x="86" y="188"/>
      <point x="-4" y="-5"/>
      <point x="-4" y="-104" type="curve" smooth="yes"/>
      <point x="-4" y="-146"/>
      <point x="12" y="-171"/>
      <point x="56" y="-171" type="curve" smooth="yes"/>
      <point x="76" y="-171"/>
      <point x="94" y="-166"/>
      <point x="107" y="-161" type="curve"/>
    </contour>
    <component base="period" xOffset="111" yOffset="426"/>
  </outline>
</glyph>
<glyph name="cent" format="1">
  <advance width="554"/>
  <unicode hex="00A2"/>
  <outline>
    <contour>
      <point x="427" y="683" type="line"/>
      <point x="416" y="685"/>
      <point x="404" y="687"/>
      <point x="391" y="687" type="curve" smooth="yes"/>
      <point x="356" y="687"/>
      <point x="343" y="673"/>
      <point x="333" y="623" type="curve" smooth="yes"/>
      <point x="327" y="591" type="line"/>
      <point x="169" y="570"/>
      <point x="85" y="404"/>
      <point x="85" y="239" type="curve" smooth="yes"/>
      <point x="85" y="129"/>
      <point x="122" y="64"/>
      <point x="220" y="47" type="curve"/>
      <point x="202" y="-44" type="line"/>
      <point x="211" y="-47"/>
      <point x="227" y="-48"/>
      <point x="238" y="-48" type="curve" smooth="yes"/>
      <point x="277" y="-48"/>
      <point x="290" y="-34"/>
      <point x="299" y="16" type="curve" smooth="yes"/>
      <point x="305" y="47" type="line"/>
      <point x="384" y="60"/>
      <point x="446" y="112"/>
      <point x="446" y="172" type="curve" smooth="yes"/>
      <point x="446" y="197"/>
      <point x="436" y="216"/>
      <point x="412" y="223" type="curve"/>
      <point x="393" y="167"/>
      <point x="350" y="127"/>
      <point x="290" y="127" type="curve" smooth="yes"/>
      <point x="221" y="127"/>
      <point x="199" y="180"/>
      <point x="199" y="246" type="curve" smooth="yes"/>
      <point x="199" y="346"/>
      <point x="249" y="535"/>
      <point x="348" y="535" type="curve" smooth="yes"/>
      <point x="380" y="535"/>
      <point x="395" y="515"/>
      <point x="395" y="485" type="curve" smooth="yes"/>
      <point x="395" y="465"/>
      <point x="389" y="436"/>
      <point x="381" y="416" type="curve"/>
      <point x="391" y="405"/>
      <point x="410" y="402"/>
      <point x="424" y="402" type="curve" smooth="yes"/>
      <point x="469" y="402"/>
      <point x="507" y="433"/>
      <point x="507" y="488" type="curve" smooth="yes"/>
      <point x="507" y="541"/>
      <point x="471" y="582"/>
      <point x="409" y="591" type="curve"/>
    </contour>
  </outline>
</glyph>
<glyph name="sterling" format="1">
  <advance width="554"/>
  <unicode hex="00A3"/>
  <outline>
    <contour>
      <point x="398" y="606"/>
      <point x="411" y="579"/>
      <point x="411" y="546" type="curve" smooth="yes"/>
      <point x="411" y="522"/>
      <point x="404" y="494"/>
      <point x="395" y="473" type="curve"/>
      <point x="407" y="465"/>
      <point x="426" y="460"/>
      <point x="443" y="460" type="curve" smooth="yes"/>
      <point x="487" y="460"/>
      <point x="534" y="493"/>
      <point x="534" y="552" type="curve" smooth="yes"/>
      <point x="534" y="621"/>
      <point x="467" y="660"/>
      <point x="375" y="660" type="curve"/>
      <point x="274" y="660"/>
      <point x="198" y="616"/>
      <point x="177" y="504" type="curve" smooth="yes"/>
      <point x="158" y="401" type="line"/>
      <point x="94" y="401" type="line" smooth="yes"/>
      <point x="59" y="401"/>
      <point x="36" y="387"/>
      <point x="36" y="360" type="curve" smooth="yes"/>
      <point x="36" y="354"/>
      <point x="37" y="345"/>
      <point x="40" y="338" type="curve"/>
      <point x="146" y="338" type="line"/>
      <point x="126" y="220" type="line" smooth="yes"/>
      <point x="116" y="162"/>
      <point x="91" y="138"/>
      <point x="70" y="118" type="curve" smooth="yes"/>
      <point x="55" y="103"/>
      <point x="29" y="84"/>
      <point x="29" y="57" type="curve" smooth="yes"/>
      <point x="29" y="39"/>
      <point x="40" y="15"/>
      <point x="54" y="3" type="curve"/>
      <point x="71" y="10"/>
      <point x="94" y="15"/>
      <point x="124" y="15" type="curve" smooth="yes"/>
      <point x="194" y="15"/>
      <point x="280" y="-12"/>
      <point x="358" y="-12" type="curve" smooth="yes"/>
      <point x="417" y="-12"/>
      <point x="468" y="3"/>
      <point x="468" y="61" type="curve" smooth="yes"/>
      <point x="468" y="79"/>
      <point x="463" y="97"/>
      <point x="455" y="111" type="curve"/>
      <point x="425" y="93"/>
      <point x="389" y="89"/>
      <point x="348" y="89" type="curve" smooth="yes"/>
      <point x="282" y="89"/>
      <point x="204" y="99"/>
      <point x="158" y="109" type="curve"/>
      <point x="197" y="133"/>
      <point x="223" y="173"/>
      <point x="234" y="234" type="curve" smooth="yes"/>
      <point x="252" y="338" type="line"/>
      <point x="362" y="338" type="line" smooth="yes"/>
      <point x="403" y="338"/>
      <point x="427" y="351"/>
      <point x="427" y="378" type="curve" smooth="yes"/>
      <point x="427" y="384"/>
      <point x="426" y="393"/>
      <point x="422" y="401" type="curve"/>
      <point x="263" y="401" type="line"/>
      <point x="285" y="518" type="line" smooth="yes"/>
      <point x="294" y="570"/>
      <point x="311" y="606"/>
      <point x="359" y="606" type="curve" smooth="yes"/>
    </contour>
  </outline>
</glyph>
<glyph name="currency" format="1">
  <advance width="554"/>
  <unicode hex="00A4"/>
  <outline>
    <contour>
      <point x="195" y="501"/>
      <point x="116" y="423"/>
      <point x="116" y="310" type="curve" smooth="yes"/>
      <point x="116" y="223"/>
      <point x="165" y="170"/>
      <point x="265" y="170" type="curve" smooth="yes"/>
      <point x="373" y="170"/>
      <point x="449" y="244"/>
      <point x="449" y="355" type="curve" smooth="yes"/>
      <point x="449" y="447"/>
      <point x="394" y="501"/>
      <point x="298" y="501" type="curve" smooth="yes"/>
    </contour>
    <contour>
      <point x="35" y="160" type="line"/>
      <point x="96" y="98" type="line"/>
      <point x="193" y="193" type="line"/>
      <point x="136" y="250" type="line"/>
    </contour>
    <contour>
      <point x="340" y="435"/>
      <point x="376" y="401"/>
      <point x="376" y="340" type="curve" smooth="yes"/>
      <point x="376" y="279"/>
      <point x="342" y="235"/>
      <point x="275" y="235" type="curve" smooth="yes"/>
      <point x="222" y="235"/>
      <point x="189" y="262"/>
      <point x="189" y="324" type="curve" smooth="yes"/>
      <point x="189" y="389"/>
      <point x="227" y="435"/>
      <point x="288" y="435" type="curve" smooth="yes"/>
    </contour>
    <contour>
      <point x="53" y="508" type="line"/>
      <point x="155" y="414" type="line"/>
      <point x="213" y="469" type="line"/>
      <point x="105" y="578" type="line"/>
    </contour>
    <contour>
      <point x="363" y="207" type="line"/>
      <point x="470" y="105" type="line"/>
      <point x="526" y="171" type="line"/>
      <point x="417" y="266" type="line"/>
    </contour>
    <contour>
      <point x="363" y="479" type="line"/>
      <point x="424" y="425" type="line"/>
      <point x="527" y="517" type="line"/>
      <point x="466" y="579" type="line"/>
    </contour>
  </outline>
</glyph>
<glyph name="yen" format="1">
  <advance width="554"/>
  <unicode hex="00A5"/>
  <outline>
    <contour>
      <point x="290" y="139" type="line"/>
      <point x="364" y="139" type="line" smooth="yes"/>
      <point x="405" y="139"/>
      <point x="429" y="152"/>
      <point x="429" y="179" type="curve" smooth="yes"/>
      <point x="429" y="185"/>
      <point x="428" y="194"/>
      <point x="424" y="202" type="curve"/>
      <point x="302" y="202" type="line"/>
      <point x="316" y="273" type="line"/>
      <point x="390" y="273" type="line" smooth="yes"/>
      <point x="431" y="273"/>
      <point x="455" y="286"/>
      <point x="455" y="313" type="curve" smooth="yes"/>
      <point x="455" y="319"/>
      <point x="454" y="328"/>
      <point x="450" y="336" type="curve"/>
      <point x="336" y="336" type="line"/>
      <point x="402" y="469"/>
      <point x="484" y="570"/>
      <point x="566" y="637" type="curve"/>
      <point x="559" y="666"/>
      <point x="536" y="680"/>
      <point x="505" y="680" type="curve" smooth="yes"/>
      <point x="435" y="680"/>
      <point x="373" y="595"/>
      <point x="288" y="400" type="curve"/>
      <point x="244" y="627"/>
      <point x="223" y="680"/>
      <point x="154" y="680" type="curve" smooth="yes"/>
      <point x="114" y="680"/>
      <point x="84" y="662"/>
      <point x="75" y="626" type="curve"/>
      <point x="115" y="593"/>
      <point x="162" y="507"/>
      <point x="205" y="336" type="curve"/>
      <point x="129" y="336" type="line" smooth="yes"/>
      <point x="94" y="336"/>
      <point x="71" y="322"/>
      <point x="71" y="295" type="curve" smooth="yes"/>
      <point x="71" y="289"/>
      <point x="72" y="280"/>
      <point x="75" y="273" type="curve"/>
      <point x="199" y="273" type="line"/>
      <point x="185" y="202" type="line"/>
      <point x="103" y="202" type="line" smooth="yes"/>
      <point x="68" y="202"/>
      <point x="45" y="188"/>
      <point x="45" y="161" type="curve" smooth="yes"/>
      <point x="45" y="155"/>
      <point x="46" y="146"/>
      <point x="49" y="139" type="curve"/>
      <point x="172" y="139" type="line"/>
      <point x="145" y="0" type="line"/>
      <point x="264" y="0" type="line"/>
    </contour>
  </outline>
</glyph>
<glyph name="brokenbar" format="1">
  <advance width="284"/>
  <unicode hex="00A6"/>
  <outline>
    <contour>
      <point x="221" y="388" type="line"/>
      <point x="273" y="660" type="line"/>
      <point x="167" y="660" type="line"/>
      <point x="114" y="388" type="line"/>
    </contour>
    <contour>
      <point x="146" y="0" type="line"/>
      <point x="197" y="272" type="line"/>
      <point x="91" y="272" type="line"/>
      <point x="39" y="0" type="line"/>
    </contour>
  </outline>
</glyph>
<glyph name="section" format="1">
  <advance width="488"/>
  <unicode hex="00A7"/>
  <outline>
    <contour>
      <point x="246" y="680"/>
      <point x="141" y="621"/>
      <point x="141" y="522" type="curve" smooth="yes"/>
      <point x="141" y="477"/>
      <point x="163" y="440"/>
      <point x="192" y="410" type="curve"/>
      <point x="117" y="370"/>
      <point x="47" y="315"/>
      <point x="47" y="230" type="curve" smooth="yes"/>
      <point x="47" y="86"/>
      <point x="246" y="55"/>
      <point x="246" y="-56" type="curve" smooth="yes"/>
      <point x="246" y="-100"/>
      <point x="215" y="-128"/>
      <point x="169" y="-128" type="curve" smooth="yes"/>
      <point x="132" y="-128"/>
      <point x="112" y="-109"/>
      <point x="112" y="-72" type="curve" smooth="yes"/>
      <point x="112" y="-52"/>
      <point x="118" y="-33"/>
      <point x="126" y="-13" type="curve"/>
      <point x="116" y="-4"/>
      <point x="99" y="-2"/>
      <point x="86" y="-2" type="curve" smooth="yes"/>
      <point x="39" y="-2"/>
      <point x="0" y="-32"/>
      <point x="0" y="-84" type="curve" smooth="yes"/>
      <point x="0" y="-157"/>
      <point x="75" y="-179"/>
      <point x="141" y="-179" type="curve" smooth="yes"/>
      <point x="250" y="-179"/>
      <point x="355" y="-120"/>
      <point x="355" y="-21" type="curve" smooth="yes"/>
      <point x="355" y="24"/>
      <point x="333" y="60"/>
      <point x="303" y="90" type="curve"/>
      <point x="379" y="131"/>
      <point x="449" y="185"/>
      <point x="449" y="271" type="curve" smooth="yes"/>
      <point x="449" y="416"/>
      <point x="250" y="446"/>
      <point x="250" y="557" type="curve" smooth="yes"/>
      <point x="250" y="601"/>
      <point x="281" y="629"/>
      <point x="327" y="629" type="curve" smooth="yes"/>
      <point x="364" y="629"/>
      <point x="384" y="610"/>
      <point x="384" y="573" type="curve" smooth="yes"/>
      <point x="384" y="553"/>
      <point x="378" y="534"/>
      <point x="370" y="514" type="curve"/>
      <point x="380" y="505"/>
      <point x="397" y="503"/>
      <point x="410" y="503" type="curve" smooth="yes"/>
      <point x="457" y="503"/>
      <point x="496" y="533"/>
      <point x="496" y="585" type="curve" smooth="yes"/>
      <point x="496" y="658"/>
      <point x="421" y="680"/>
      <point x="355" y="680" type="curve" smooth="yes"/>
    </contour>
    <contour>
      <point x="294" y="324"/>
      <point x="340" y="297"/>
      <point x="340" y="234" type="curve" smooth="yes"/>
      <point x="340" y="184"/>
      <point x="310" y="153"/>
      <point x="265" y="124" type="curve"/>
      <point x="198" y="175"/>
      <point x="156" y="206"/>
      <point x="156" y="266" type="curve" smooth="yes"/>
      <point x="156" y="317"/>
      <point x="186" y="347"/>
      <point x="230" y="376" type="curve"/>
    </contour>
  </outline>
</glyph>
<glyph name="dieresis" format="1">
  <advance width="338"/>
  <unicode hex="00A8"/>
  <outline>
    <component base="dotaccent" xOffset="166"/>
    <component base="dotaccent" xOffset="-37"/>
    <contour>
      <point x="218" y="510" type="move" name="_top"/>
    </contour>
  </outline>
</glyph>
<glyph name="copyright" format="1">
  <advance width="776"/>
  <unicode hex="00A9"/>
  <outline>
    <contour>
      <point x="27" y="13"/>
      <point x="133" y="-76"/>
      <point x="315" y="-76" type="curve" smooth="yes"/>
      <point x="581" y="-76"/>
      <point x="749" y="114"/>
      <point x="749" y="344" type="curve" smooth="yes"/>
      <point x="749" y="531"/>
      <point x="638" y="614"/>
      <point x="461" y="614" type="curve" smooth="yes"/>
      <point x="203" y="614"/>
      <point x="27" y="437"/>
      <point x="27" y="198" type="curve" smooth="yes"/>
    </contour>
    <contour>
      <point x="121" y="386"/>
      <point x="250" y="553"/>
      <point x="440" y="553" type="curve" smooth="yes"/>
      <point x="570" y="553"/>
      <point x="655" y="475"/>
      <point x="655" y="333" type="curve" smooth="yes"/>
      <point x="655" y="161"/>
      <point x="529" y="-15"/>
      <point x="336" y="-15" type="curve" smooth="yes"/>
      <point x="205" y="-15"/>
      <point x="121" y="66"/>
      <point x="121" y="209" type="curve" smooth="yes"/>
    </contour>
    <contour>
      <point x="458" y="427"/>
      <point x="468" y="415"/>
      <point x="468" y="393" type="curve" smooth="yes"/>
      <point x="468" y="378"/>
      <point x="463" y="355"/>
      <point x="457" y="340" type="curve"/>
      <point x="464" y="332"/>
      <point x="479" y="330"/>
      <point x="490" y="330" type="curve" smooth="yes"/>
      <point x="524" y="330"/>
      <point x="552" y="353"/>
      <point x="552" y="396" type="curve" smooth="yes"/>
      <point x="552" y="449"/>
      <point x="508" y="469"/>
      <point x="451" y="469" type="curve" smooth="yes"/>
      <point x="310" y="469"/>
      <point x="236" y="345"/>
      <point x="236" y="218" type="curve" smooth="yes"/>
      <point x="236" y="117"/>
      <point x="283" y="75"/>
      <point x="367" y="75" type="curve" smooth="yes"/>
      <point x="454" y="75"/>
      <point x="506" y="120"/>
      <point x="506" y="166" type="curve" smooth="yes"/>
      <point x="506" y="184"/>
      <point x="498" y="198"/>
      <point x="481" y="203" type="curve"/>
      <point x="469" y="164"/>
      <point x="437" y="135"/>
      <point x="396" y="135" type="curve" smooth="yes"/>
      <point x="349" y="135"/>
      <point x="340" y="173"/>
      <point x="340" y="223" type="curve" smooth="yes"/>
      <point x="340" y="298"/>
      <point x="360" y="427"/>
      <point x="435" y="427" type="curve" smooth="yes"/>
    </contour>
  </outline>
</glyph>
<glyph name="ordfeminine" format="1">
  <advance width="449"/>
  <unicode hex="00AA"/>
  <outline>
    <contour>
      <point x="337" y="659" type="line"/>
      <point x="311" y="669"/>
      <point x="291" y="674"/>
      <point x="265" y="674" type="curve" smooth="yes"/>
      <point x="129" y="674"/>
      <point x="62" y="538"/>
      <point x="62" y="419" type="curve" smooth="yes"/>
      <point x="62" y="330"/>
      <point x="99" y="280"/>
      <point x="171" y="280" type="curve" smooth="yes"/>
      <point x="207" y="280"/>
      <point x="246" y="293"/>
      <point x="266" y="323" type="curve"/>
      <point x="269" y="296"/>
      <point x="294" y="280"/>
      <point x="321" y="280" type="curve" smooth="yes"/>
      <point x="346" y="280"/>
      <point x="371" y="293"/>
      <point x="377" y="314" type="curve"/>
      <point x="362" y="315"/>
      <point x="355" y="324"/>
      <point x="355" y="339" type="curve" smooth="yes"/>
      <point x="355" y="347"/>
      <point x="357" y="360"/>
      <point x="359" y="368" type="curve" smooth="yes"/>
      <point x="416" y="668" type="line"/>
    </contour>
    <contour>
      <point x="88" y="232" type="line" smooth="yes"/>
      <point x="61" y="232"/>
      <point x="41" y="212"/>
      <point x="41" y="183" type="curve" smooth="yes"/>
      <point x="41" y="176"/>
      <point x="42" y="169"/>
      <point x="43" y="162" type="curve"/>
      <point x="305" y="162" type="line" smooth="yes"/>
      <point x="341" y="162"/>
      <point x="358" y="183"/>
      <point x="358" y="210" type="curve" smooth="yes"/>
      <point x="358" y="217"/>
      <point x="357" y="224"/>
      <point x="356" y="232" type="curve"/>
    </contour>
    <contour>
      <point x="271" y="616"/>
      <point x="293" y="609"/>
      <point x="309" y="596" type="curve"/>
      <point x="281" y="442" type="line" smooth="yes"/>
      <point x="272" y="392"/>
      <point x="250" y="338"/>
      <point x="203" y="338" type="curve" smooth="yes"/>
      <point x="168" y="338"/>
      <point x="156" y="368"/>
      <point x="156" y="405" type="curve" smooth="yes"/>
      <point x="156" y="436"/>
      <point x="164" y="481"/>
      <point x="171" y="512" type="curve" smooth="yes"/>
      <point x="182" y="559"/>
      <point x="203" y="616"/>
      <point x="253" y="616" type="curve" smooth="yes"/>
    </contour>
  </outline>
</glyph>
<glyph name="guillemotleft" format="1">
  <advance width="477"/>
  <unicode hex="00AB"/>
  <outline>
    <contour>
      <point x="30" y="317" type="line"/>
      <point x="117" y="126" type="line"/>
      <point x="212" y="126" type="line"/>
      <point x="163" y="317" type="line"/>
      <point x="283" y="509" type="line"/>
      <point x="186" y="509" type="line"/>
    </contour>
    <contour>
      <point x="228" y="317" type="line"/>
      <point x="315" y="126" type="line"/>
      <point x="410" y="126" type="line"/>
      <point x="361" y="317" type="line"/>
      <point x="481" y="509" type="line"/>
      <point x="384" y="509" type="line"/>
    </contour>
  </outline>
</glyph>
<glyph name="logicalnot" format="1">
  <advance width="554"/>
  <unicode hex="00AC"/>
  <outline>
    <contour>
      <point x="493" y="284" type="line"/>
      <point x="112" y="284" type="line" smooth="yes"/>
      <point x="75" y="284"/>
      <point x="49" y="258"/>
      <point x="49" y="221" type="curve" smooth="yes"/>
      <point x="49" y="213"/>
      <point x="50" y="206"/>
      <point x="52" y="197" type="curve"/>
      <point x="375" y="197" type="line"/>
      <point x="354" y="83" type="line" smooth="yes"/>
      <point x="351" y="68"/>
      <point x="349" y="53"/>
      <point x="349" y="42" type="curve" smooth="yes"/>
      <point x="349" y="11"/>
      <point x="363" y="-2"/>
      <point x="400" y="-2" type="curve" smooth="yes"/>
      <point x="415" y="-2"/>
      <point x="436" y="0"/>
      <point x="440" y="2" type="curve"/>
    </contour>
  </outline>
</glyph>
<glyph name="registered" format="1">
  <advance width="776"/>
  <unicode hex="00AE"/>
  <outline>
    <contour>
      <point x="203" y="679"/>
      <point x="27" y="502"/>
      <point x="27" y="263" type="curve" smooth="yes"/>
      <point x="27" y="78"/>
      <point x="133" y="-11"/>
      <point x="315" y="-11" type="curve" smooth="yes"/>
      <point x="581" y="-11"/>
      <point x="749" y="179"/>
      <point x="749" y="409" type="curve" smooth="yes"/>
      <point x="749" y="596"/>
      <point x="638" y="679"/>
      <point x="461" y="679" type="curve" smooth="yes"/>
    </contour>
    <contour>
      <point x="570" y="618"/>
      <point x="655" y="540"/>
      <point x="655" y="398" type="curve" smooth="yes"/>
      <point x="655" y="226"/>
      <point x="529" y="50"/>
      <point x="336" y="50" type="curve" smooth="yes"/>
      <point x="205" y="50"/>
      <point x="121" y="131"/>
      <point x="121" y="274" type="curve" smooth="yes"/>
      <point x="121" y="451"/>
      <point x="250" y="618"/>
      <point x="440" y="618" type="curve" smooth="yes"/>
    </contour>
    <contour>
      <point x="362" y="532"/>
      <point x="304" y="529"/>
      <point x="280" y="527" type="curve"/>
      <point x="208" y="152" type="line"/>
      <point x="299" y="152" type="line"/>
      <point x="361" y="482" type="line"/>
      <point x="368" y="484"/>
      <point x="380" y="485"/>
      <point x="390" y="485" type="curve" smooth="yes"/>
      <point x="437" y="485"/>
      <point x="450" y="463"/>
      <point x="450" y="427" type="curve" smooth="yes"/>
      <point x="450" y="375"/>
      <point x="422" y="338"/>
      <point x="365" y="337" type="curve" smooth="yes"/>
      <point x="363" y="337" type="line"/>
      <point x="387" y="195"/>
      <point x="405" y="143"/>
      <point x="463" y="143" type="curve" smooth="yes"/>
      <point x="502" y="143"/>
      <point x="524" y="166"/>
      <point x="529" y="191" type="curve"/>
      <point x="485" y="203"/>
      <point x="471" y="226"/>
      <point x="444" y="311" type="curve"/>
      <point x="504" y="321"/>
      <point x="541" y="374"/>
      <point x="541" y="435" type="curve" smooth="yes"/>
      <point x="541" y="519"/>
      <point x="469" y="532"/>
      <point x="397" y="532" type="curve" smooth="yes"/>
    </contour>
  </outline>
</glyph>
<glyph name="macron" format="1">
  <advance width="265"/>
  <unicode hex="00AF"/>
  <outline>
    <contour>
      <point x="133" y="696" type="line" smooth="yes"/>
      <point x="97" y="696"/>
      <point x="73" y="674"/>
      <point x="72" y="638" type="curve" smooth="yes"/>
      <point x="72" y="633"/>
      <point x="72" y="622"/>
      <point x="74" y="614" type="curve"/>
      <point x="285" y="614" type="line" smooth="yes"/>
      <point x="331" y="614"/>
      <point x="353" y="638"/>
      <point x="353" y="672" type="curve" smooth="yes"/>
      <point x="353" y="679"/>
      <point x="352" y="689"/>
      <point x="350" y="696" type="curve"/>
    </contour>
    <contour>
      <point x="175" y="510" type="move" name="_top"/>
    </contour>
  </outline>
</glyph>
<glyph name="degree" format="1">
  <advance width="342"/>
  <unicode hex="00B0"/>
  <outline>
    <contour>
      <point x="293" y="370"/>
      <point x="380" y="449"/>
      <point x="380" y="558" type="curve" smooth="yes"/>
      <point x="380" y="639"/>
      <point x="331" y="684"/>
      <point x="246" y="684" type="curve" smooth="yes"/>
      <point x="133" y="684"/>
      <point x="42" y="606"/>
      <point x="42" y="497" type="curve" smooth="yes"/>
      <point x="42" y="415"/>
      <point x="93" y="370"/>
      <point x="179" y="370" type="curve" smooth="yes"/>
    </contour>
    <contour>
      <point x="149" y="423"/>
      <point x="134" y="444"/>
      <point x="134" y="490" type="curve" smooth="yes"/>
      <point x="134" y="563"/>
      <point x="171" y="626"/>
      <point x="236" y="626" type="curve" smooth="yes"/>
      <point x="278" y="626"/>
      <point x="292" y="599"/>
      <point x="292" y="556" type="curve" smooth="yes"/>
      <point x="292" y="482"/>
      <point x="249" y="423"/>
      <point x="186" y="423" type="curve" smooth="yes"/>
    </contour>
  </outline>
</glyph>
<glyph name="plusminus" format="1">
  <advance width="554"/>
  <unicode hex="00B1"/>
  <outline>
    <contour>
      <point x="234" y="327" type="line"/>
      <point x="149" y="327" type="line" smooth="yes"/>
      <point x="113" y="327"/>
      <point x="87" y="301"/>
      <point x="87" y="265" type="curve" smooth="yes"/>
      <point x="87" y="258"/>
      <point x="88" y="253"/>
      <point x="91" y="245" type="curve"/>
      <point x="218" y="245" type="line"/>
      <point x="196" y="124" type="line"/>
      <point x="209" y="120"/>
      <point x="221" y="118"/>
      <point x="233" y="118" type="curve" smooth="yes"/>
      <point x="268" y="118"/>
      <point x="291" y="136"/>
      <point x="298" y="170" type="curve" smooth="yes"/>
      <point x="312" y="245" type="line"/>
      <point x="395" y="245" type="line" smooth="yes"/>
      <point x="438" y="245"/>
      <point x="462" y="265"/>
      <point x="462" y="300" type="curve" smooth="yes"/>
      <point x="462" y="310"/>
      <point x="460" y="317"/>
      <point x="457" y="327" type="curve"/>
      <point x="329" y="327" type="line"/>
      <point x="354" y="460" type="line"/>
      <point x="343" y="464"/>
      <point x="331" y="466"/>
      <point x="320" y="466" type="curve" smooth="yes"/>
      <point x="284" y="466"/>
      <point x="257" y="444"/>
      <point x="250" y="409" type="curve" smooth="yes"/>
    </contour>
    <contour>
      <point x="131" y="91" type="line" smooth="yes"/>
      <point x="93" y="91"/>
      <point x="72" y="71"/>
      <point x="72" y="38" type="curve" smooth="yes"/>
      <point x="72" y="30"/>
      <point x="73" y="22"/>
      <point x="76" y="13" type="curve"/>
      <point x="333" y="13" type="line" smooth="yes"/>
      <point x="377" y="13"/>
      <point x="399" y="32"/>
      <point x="399" y="65" type="curve" smooth="yes"/>
      <point x="399" y="73"/>
      <point x="398" y="82"/>
      <point x="395" y="91" type="curve"/>
    </contour>
  </outline>
</glyph>
<glyph name="uni00B2" format="1">
  <advance width="350"/>
  <unicode hex="00B2"/>
  <outline>
    <contour>
      <point x="162" y="681"/>
      <point x="91" y="653"/>
      <point x="91" y="595" type="curve" smooth="yes"/>
      <point x="91" y="578"/>
      <point x="97" y="567"/>
      <point x="113" y="562" type="curve"/>
      <point x="132" y="596"/>
      <point x="159" y="616"/>
      <point x="194" y="616" type="curve" smooth="yes"/>
      <point x="225" y="616"/>
      <point x="248" y="601"/>
      <point x="248" y="569" type="curve" smooth="yes"/>
      <point x="248" y="544"/>
      <point x="233" y="514"/>
      <point x="212" y="490" type="curve" smooth="yes"/>
      <point x="174" y="446"/>
      <point x="59" y="361"/>
      <point x="59" y="324" type="curve" smooth="yes"/>
      <point x="59" y="315"/>
      <point x="65" y="302"/>
      <point x="73" y="295" type="curve"/>
      <point x="83" y="299"/>
      <point x="96" y="302"/>
      <point x="114" y="302" type="curve" smooth="yes"/>
      <point x="175" y="302"/>
      <point x="204" y="286"/>
      <point x="265" y="286" type="curve" smooth="yes"/>
      <point x="302" y="286"/>
      <point x="325" y="301"/>
      <point x="325" y="336" type="curve" smooth="yes"/>
      <point x="325" y="348"/>
      <point x="322" y="361"/>
      <point x="318" y="369" type="curve"/>
      <point x="303" y="360"/>
      <point x="281" y="357"/>
      <point x="256" y="357" type="curve" smooth="yes"/>
      <point x="231" y="357"/>
      <point x="201" y="360"/>
      <point x="177" y="367" type="curve"/>
      <point x="215" y="399"/>
      <point x="234" y="417"/>
      <point x="288" y="466" type="curve" smooth="yes"/>
      <point x="320" y="497"/>
      <point x="341" y="529"/>
      <point x="341" y="579" type="curve" smooth="yes"/>
      <point x="341" y="652"/>
      <point x="294" y="681"/>
      <point x="227" y="681" type="curve" smooth="yes"/>
    </contour>
  </outline>
</glyph>
<glyph name="uni00B3" format="1">
  <advance width="347"/>
  <unicode hex="00B3"/>
  <outline>
    <contour>
      <point x="141" y="464" type="line"/>
      <point x="192" y="464"/>
      <point x="231" y="456"/>
      <point x="231" y="405" type="curve" smooth="yes"/>
      <point x="231" y="366"/>
      <point x="209" y="346"/>
      <point x="165" y="346" type="curve" smooth="yes"/>
      <point x="124" y="346"/>
      <point x="97" y="363"/>
      <point x="73" y="392" type="curve"/>
      <point x="61" y="385"/>
      <point x="55" y="377"/>
      <point x="55" y="360" type="curve" smooth="yes"/>
      <point x="55" y="309"/>
      <point x="109" y="281"/>
      <point x="170" y="281" type="curve" smooth="yes"/>
      <point x="252" y="281"/>
      <point x="325" y="331"/>
      <point x="325" y="410" type="curve" smooth="yes"/>
      <point x="325" y="467"/>
      <point x="288" y="489"/>
      <point x="238" y="493" type="curve"/>
      <point x="286" y="507"/>
      <point x="333" y="541"/>
      <point x="333" y="599" type="curve" smooth="yes"/>
      <point x="333" y="655"/>
      <point x="288" y="681"/>
      <point x="228" y="681" type="curve" smooth="yes"/>
      <point x="164" y="681"/>
      <point x="91" y="651"/>
      <point x="91" y="600" type="curve" smooth="yes"/>
      <point x="91" y="586"/>
      <point x="97" y="577"/>
      <point x="110" y="570" type="curve"/>
      <point x="131" y="599"/>
      <point x="167" y="616"/>
      <point x="199" y="616" type="curve" smooth="yes"/>
      <point x="228" y="616"/>
      <point x="243" y="602"/>
      <point x="243" y="576" type="curve" smooth="yes"/>
      <point x="243" y="530"/>
      <point x="194" y="509"/>
      <point x="146" y="503" type="curve"/>
    </contour>
  </outline>
</glyph>
<glyph name="acute" format="1">
  <advance width="227"/>
  <unicode hex="00B4"/>
  <outline>
    <contour>
      <point x="82" y="592" type="line"/>
      <point x="193" y="622" type="line" smooth="yes"/>
      <point x="251" y="638"/>
      <point x="308" y="658"/>
      <point x="308" y="713" type="curve" smooth="yes"/>
      <point x="308" y="735"/>
      <point x="299" y="760"/>
      <point x="276" y="769" type="curve"/>
      <point x="65" y="633" type="line"/>
    </contour>
    <contour>
      <point x="147" y="510" type="move" name="_top"/>
    </contour>
  </outline>
</glyph>
<glyph name="paragraph" format="1">
  <advance width="764"/>
  <unicode hex="00B6"/>
  <outline>
    <contour>
      <point x="501" y="660" type="line"/>
      <point x="470" y="670"/>
      <point x="439" y="675"/>
      <point x="400" y="675" type="curve" smooth="yes"/>
      <point x="211" y="675"/>
      <point x="87" y="562"/>
      <point x="87" y="406" type="curve" smooth="yes"/>
      <point x="87" y="303"/>
      <point x="141" y="253"/>
      <point x="230" y="253" type="curve" smooth="yes"/>
      <point x="261" y="253"/>
      <point x="305" y="259"/>
      <point x="327" y="268" type="curve"/>
      <point x="270" y="-20" type="line" smooth="yes"/>
      <point x="257" y="-84"/>
      <point x="219" y="-124"/>
      <point x="153" y="-124" type="curve" smooth="yes"/>
      <point x="128" y="-124"/>
      <point x="89" y="-118"/>
      <point x="69" y="-106" type="curve"/>
      <point x="69" y="-106"/>
      <point x="66" y="-114"/>
      <point x="66" y="-126" type="curve" smooth="yes"/>
      <point x="66" y="-171"/>
      <point x="109" y="-200"/>
      <point x="188" y="-200" type="curve" smooth="yes"/>
      <point x="285" y="-200"/>
      <point x="343" y="-156"/>
      <point x="368" y="-54" type="curve"/>
    </contour>
    <contour>
      <point x="585" y="660" type="line"/>
      <point x="451" y="-20" type="line"/>
      <point x="561" y="0" type="line"/>
      <point x="669" y="588" type="line"/>
      <point x="678" y="585"/>
      <point x="696" y="583"/>
      <point x="712" y="583" type="curve" smooth="yes"/>
      <point x="767" y="583"/>
      <point x="791" y="606"/>
      <point x="797" y="664" type="curve"/>
      <point x="775" y="661"/>
      <point x="747" y="660"/>
      <point x="698" y="660" type="curve" smooth="yes"/>
    </contour>
  </outline>
</glyph>
<glyph name="periodcentered" format="1">
  <advance width="191"/>
  <unicode hex="00B7"/>
  <outline>
    <component base="period" xOffset="34" yOffset="219"/>
    <contour>
      <point x="84" y="262" type="move" name="_center"/>
    </contour>
  </outline>
</glyph>
<glyph name="cedilla" format="1">
  <advance width="444"/>
  <unicode hex="00B8"/>
  <outline>
    <contour>
      <point x="198" y="11" type="line"/>
      <point x="161" y="-113" type="line"/>
      <point x="174" y="-112"/>
      <point x="185" y="-111"/>
      <point x="198" y="-111" type="curve" smooth="yes"/>
      <point x="239" y="-111"/>
      <point x="277" y="-119"/>
      <point x="277" y="-152" type="curve" smooth="yes"/>
      <point x="277" y="-191"/>
      <point x="235" y="-200"/>
      <point x="203" y="-200" type="curve" smooth="yes"/>
      <point x="173" y="-200"/>
      <point x="151" y="-190"/>
      <point x="140" y="-172" type="curve"/>
      <point x="129" y="-180"/>
      <point x="124" y="-193"/>
      <point x="124" y="-205" type="curve" smooth="yes"/>
      <point x="124" y="-236"/>
      <point x="159" y="-253"/>
      <point x="210" y="-253" type="curve" smooth="yes"/>
      <point x="295" y="-253"/>
      <point x="360" y="-206"/>
      <point x="360" y="-140" type="curve" smooth="yes"/>
      <point x="360" y="-86"/>
      <point x="317" y="-64"/>
      <point x="262" y="-64" type="curve" smooth="yes"/>
      <point x="248" y="-64"/>
      <point x="225" y="-65"/>
      <point x="218" y="-66" type="curve"/>
      <point x="220" y="-73" type="line"/>
      <point x="245" y="11" type="line"/>
    </contour>
    <contour>
      <point x="229" y="0" type="move" name="_bottom"/>
    </contour>
  </outline>
</glyph>
<glyph name="uni00B9" format="1">
  <advance width="331"/>
  <unicode hex="00B9"/>
  <outline>
    <contour>
      <point x="242" y="679" type="line"/>
      <point x="186" y="652"/>
      <point x="119" y="633"/>
      <point x="63" y="625" type="curve"/>
      <point x="66" y="592"/>
      <point x="75" y="565"/>
      <point x="109" y="565" type="curve" smooth="yes"/>
      <point x="124" y="565"/>
      <point x="146" y="570"/>
      <point x="162" y="580" type="curve"/>
      <point x="118" y="354" type="line"/>
      <point x="85" y="354" type="line" smooth="yes"/>
      <point x="50" y="354"/>
      <point x="38" y="338"/>
      <point x="38" y="314" type="curve" smooth="yes"/>
      <point x="38" y="302"/>
      <point x="41" y="285"/>
      <point x="43" y="280" type="curve"/>
      <point x="49" y="285"/>
      <point x="65" y="287"/>
      <point x="83" y="287" type="curve" smooth="yes"/>
      <point x="100" y="287"/>
      <point x="218" y="285"/>
      <point x="233" y="285" type="curve" smooth="yes"/>
      <point x="259" y="285"/>
      <point x="281" y="291"/>
      <point x="281" y="326" type="curve" smooth="yes"/>
      <point x="281" y="336"/>
      <point x="279" y="353"/>
      <point x="272" y="361" type="curve"/>
      <point x="267" y="354"/>
      <point x="256" y="352"/>
      <point x="243" y="352" type="curve" smooth="yes"/>
      <point x="210" y="352" type="line"/>
      <point x="272" y="669" type="line"/>
    </contour>
  </outline>
</glyph>
<glyph name="ordmasculine" format="1">
  <advance width="454"/>
  <unicode hex="00BA"/>
  <outline>
    <contour>
      <point x="421" y="632"/>
      <point x="377" y="674"/>
      <point x="294" y="674" type="curve" smooth="yes"/>
      <point x="144" y="674"/>
      <point x="82" y="537"/>
      <point x="82" y="420" type="curve" smooth="yes"/>
      <point x="82" y="321"/>
      <point x="126" y="280"/>
      <point x="209" y="280" type="curve" smooth="yes"/>
      <point x="362" y="280"/>
      <point x="421" y="421"/>
      <point x="421" y="534" type="curve" smooth="yes"/>
    </contour>
    <contour>
      <point x="191" y="338"/>
      <point x="179" y="367"/>
      <point x="179" y="408" type="curve" smooth="yes"/>
      <point x="179" y="465"/>
      <point x="202" y="616"/>
      <point x="279" y="616" type="curve" smooth="yes"/>
      <point x="313" y="616"/>
      <point x="325" y="586"/>
      <point x="325" y="545" type="curve" smooth="yes"/>
      <point x="325" y="485"/>
      <point x="300" y="338"/>
      <point x="225" y="338" type="curve" smooth="yes"/>
    </contour>
    <contour>
      <point x="305" y="162" type="line" smooth="yes"/>
      <point x="341" y="162"/>
      <point x="358" y="183"/>
      <point x="358" y="210" type="curve" smooth="yes"/>
      <point x="358" y="217"/>
      <point x="357" y="224"/>
      <point x="356" y="232" type="curve"/>
      <point x="88" y="232" type="line" smooth="yes"/>
      <point x="61" y="232"/>
      <point x="41" y="212"/>
      <point x="41" y="183" type="curve" smooth="yes"/>
      <point x="41" y="176"/>
      <point x="42" y="169"/>
      <point x="43" y="162" type="curve"/>
    </contour>
  </outline>
</glyph>
<glyph name="guillemotright" format="1">
  <advance width="477"/>
  <unicode hex="00BB"/>
  <outline>
    <contour>
      <point x="162" y="509" type="line"/>
      <point x="67" y="509" type="line"/>
      <point x="116" y="318" type="line"/>
      <point x="-4" y="126" type="line"/>
      <point x="93" y="126" type="line"/>
      <point x="249" y="318" type="line"/>
    </contour>
    <contour>
      <point x="360" y="509" type="line"/>
      <point x="265" y="509" type="line"/>
      <point x="314" y="318" type="line"/>
      <point x="194" y="126" type="line"/>
      <point x="291" y="126" type="line"/>
      <point x="447" y="318" type="line"/>
    </contour>
  </outline>
</glyph>
<glyph name="onequarter" format="1">
  <advance width="827"/>
  <unicode hex="00BC"/>
  <outline>
    <contour>
      <point x="195" y="-43" type="line" smooth="yes"/>
      <point x="191" y="-52"/>
      <point x="189" y="-59"/>
      <point x="189" y="-65" type="curve" smooth="yes"/>
      <point x="189" y="-82"/>
      <point x="203" y="-91"/>
      <point x="232" y="-91" type="curve" smooth="yes"/>
      <point x="242" y="-91"/>
      <point x="256" y="-90"/>
      <point x="259" y="-89" type="curve"/>
      <point x="585" y="659" type="line" smooth="yes"/>
      <point x="592" y="675"/>
      <point x="594" y="686"/>
      <point x="594" y="694" type="curve" smooth="yes"/>
      <point x="594" y="715"/>
      <point x="579" y="720"/>
      <point x="551" y="720" type="curve" smooth="yes"/>
      <point x="538" y="720"/>
      <point x="531" y="719"/>
      <point x="525" y="718" type="curve"/>
    </contour>
    <contour>
      <point x="240" y="679" type="line"/>
      <point x="184" y="652"/>
      <point x="117" y="633"/>
      <point x="61" y="625" type="curve"/>
      <point x="64" y="592"/>
      <point x="73" y="565"/>
      <point x="107" y="565" type="curve" smooth="yes"/>
      <point x="122" y="565"/>
      <point x="144" y="570"/>
      <point x="160" y="580" type="curve"/>
      <point x="116" y="354" type="line"/>
      <point x="83" y="354" type="line" smooth="yes"/>
      <point x="48" y="354"/>
      <point x="36" y="338"/>
      <point x="36" y="314" type="curve" smooth="yes"/>
      <point x="36" y="302"/>
      <point x="39" y="285"/>
      <point x="41" y="280" type="curve"/>
      <point x="47" y="285"/>
      <point x="63" y="287"/>
      <point x="81" y="287" type="curve" smooth="yes"/>
      <point x="98" y="287"/>
      <point x="216" y="285"/>
      <point x="231" y="285" type="curve" smooth="yes"/>
      <point x="257" y="285"/>
      <point x="279" y="291"/>
      <point x="279" y="326" type="curve" smooth="yes"/>
      <point x="279" y="336"/>
      <point x="277" y="353"/>
      <point x="270" y="361" type="curve"/>
      <point x="265" y="354"/>
      <point x="254" y="352"/>
      <point x="241" y="352" type="curve" smooth="yes"/>
      <point x="208" y="352" type="line"/>
      <point x="270" y="669" type="line"/>
    </contour>
    <contour>
      <point x="456" y="133" type="line"/>
      <point x="459" y="88" type="line"/>
      <point x="503" y="77"/>
      <point x="564" y="71"/>
      <point x="605" y="69" type="curve"/>
      <point x="601" y="43" type="line" smooth="yes"/>
      <point x="600" y="33"/>
      <point x="600" y="30"/>
      <point x="600" y="30" type="curve"/>
      <point x="600" y="2"/>
      <point x="612" y="-12"/>
      <point x="647" y="-12" type="curve" smooth="yes"/>
      <point x="665" y="-12"/>
      <point x="678" y="-8"/>
      <point x="688" y="0" type="curve"/>
      <point x="698" y="67" type="line"/>
      <point x="750" y="72"/>
      <point x="771" y="90"/>
      <point x="771" y="120" type="curve" smooth="yes"/>
      <point x="771" y="129"/>
      <point x="769" y="141"/>
      <point x="763" y="151" type="curve"/>
      <point x="752" y="144"/>
      <point x="733" y="139"/>
      <point x="712" y="137" type="curve"/>
      <point x="726" y="216"/>
      <point x="744" y="309"/>
      <point x="761" y="380" type="curve"/>
      <point x="673" y="388" type="line"/>
    </contour>
    <contour>
      <point x="658" y="303" type="line"/>
      <point x="644" y="261"/>
      <point x="631" y="192"/>
      <point x="619" y="136" type="curve"/>
      <point x="589" y="136"/>
      <point x="553" y="138"/>
      <point x="526" y="141" type="curve"/>
    </contour>
  </outline>
</glyph>
<glyph name="onehalf" format="1">
  <advance width="777"/>
  <unicode hex="00BD"/>
  <outline>
    <contour>
      <point x="195" y="-43" type="line" smooth="yes"/>
      <point x="191" y="-52"/>
      <point x="189" y="-59"/>
      <point x="189" y="-65" type="curve" smooth="yes"/>
      <point x="189" y="-82"/>
      <point x="203" y="-91"/>
      <point x="232" y="-91" type="curve" smooth="yes"/>
      <point x="242" y="-91"/>
      <point x="256" y="-90"/>
      <point x="259" y="-89" type="curve"/>
      <point x="585" y="659" type="line" smooth="yes"/>
      <point x="592" y="675"/>
      <point x="594" y="686"/>
      <point x="594" y="694" type="curve" smooth="yes"/>
      <point x="594" y="715"/>
      <point x="579" y="720"/>
      <point x="551" y="720" type="curve" smooth="yes"/>
      <point x="538" y="720"/>
      <point x="531" y="719"/>
      <point x="525" y="718" type="curve"/>
    </contour>
    <contour>
      <point x="240" y="679" type="line"/>
      <point x="184" y="652"/>
      <point x="117" y="633"/>
      <point x="61" y="625" type="curve"/>
      <point x="64" y="592"/>
      <point x="73" y="565"/>
      <point x="107" y="565" type="curve" smooth="yes"/>
      <point x="122" y="565"/>
      <point x="144" y="570"/>
      <point x="160" y="580" type="curve"/>
      <point x="116" y="354" type="line"/>
      <point x="83" y="354" type="line" smooth="yes"/>
      <point x="48" y="354"/>
      <point x="36" y="338"/>
      <point x="36" y="314" type="curve" smooth="yes"/>
      <point x="36" y="302"/>
      <point x="39" y="285"/>
      <point x="41" y="280" type="curve"/>
      <point x="47" y="285"/>
      <point x="63" y="287"/>
      <point x="81" y="287" type="curve" smooth="yes"/>
      <point x="98" y="287"/>
      <point x="216" y="285"/>
      <point x="231" y="285" type="curve" smooth="yes"/>
      <point x="257" y="285"/>
      <point x="279" y="291"/>
      <point x="279" y="326" type="curve" smooth="yes"/>
      <point x="279" y="336"/>
      <point x="277" y="353"/>
      <point x="270" y="361" type="curve"/>
      <point x="265" y="354"/>
      <point x="254" y="352"/>
      <point x="241" y="352" type="curve" smooth="yes"/>
      <point x="208" y="352" type="line"/>
      <point x="270" y="669" type="line"/>
    </contour>
    <contour>
      <point x="506" y="77" type="line" smooth="yes"/>
      <point x="487" y="60"/>
      <point x="475" y="46"/>
      <point x="475" y="30" type="curve" smooth="yes"/>
      <point x="475" y="19"/>
      <point x="481" y="6"/>
      <point x="489" y="-1" type="curve"/>
      <point x="499" y="3"/>
      <point x="512" y="6"/>
      <point x="529" y="6" type="curve" smooth="yes"/>
      <point x="569" y="6"/>
      <point x="635" y="-10"/>
      <point x="678" y="-10" type="curve" smooth="yes"/>
      <point x="716" y="-10"/>
      <point x="741" y="3"/>
      <point x="741" y="40" type="curve" smooth="yes"/>
      <point x="741" y="53"/>
      <point x="738" y="65"/>
      <point x="734" y="73" type="curve"/>
      <point x="719" y="64"/>
      <point x="697" y="61"/>
      <point x="672" y="61" type="curve" smooth="yes"/>
      <point x="647" y="61"/>
      <point x="617" y="64"/>
      <point x="593" y="71" type="curve"/>
      <point x="631" y="105"/>
      <point x="662" y="131"/>
      <point x="682" y="149" type="curve" smooth="yes"/>
      <point x="727" y="189"/>
      <point x="757" y="226"/>
      <point x="757" y="283" type="curve" smooth="yes"/>
      <point x="757" y="352"/>
      <point x="714" y="385"/>
      <point x="643" y="385" type="curve" smooth="yes"/>
      <point x="578" y="385"/>
      <point x="507" y="357"/>
      <point x="507" y="299" type="curve" smooth="yes"/>
      <point x="507" y="282"/>
      <point x="513" y="271"/>
      <point x="529" y="266" type="curve"/>
      <point x="548" y="300"/>
      <point x="575" y="320"/>
      <point x="611" y="320" type="curve" smooth="yes"/>
      <point x="641" y="320"/>
      <point x="664" y="306"/>
      <point x="664" y="273" type="curve" smooth="yes"/>
      <point x="664" y="233"/>
      <point x="631" y="190"/>
      <point x="584" y="148" type="curve" smooth="yes"/>
    </contour>
  </outline>
</glyph>
<glyph name="threequarters" format="1">
  <advance width="846"/>
  <unicode hex="00BE"/>
  <outline>
    <contour>
      <point x="214" y="-43" type="line" smooth="yes"/>
      <point x="210" y="-52"/>
      <point x="208" y="-59"/>
      <point x="208" y="-65" type="curve" smooth="yes"/>
      <point x="208" y="-82"/>
      <point x="222" y="-91"/>
      <point x="251" y="-91" type="curve" smooth="yes"/>
      <point x="261" y="-91"/>
      <point x="275" y="-90"/>
      <point x="278" y="-89" type="curve"/>
      <point x="604" y="659" type="line" smooth="yes"/>
      <point x="611" y="675"/>
      <point x="613" y="686"/>
      <point x="613" y="694" type="curve" smooth="yes"/>
      <point x="613" y="715"/>
      <point x="598" y="720"/>
      <point x="570" y="720" type="curve" smooth="yes"/>
      <point x="557" y="720"/>
      <point x="550" y="719"/>
      <point x="544" y="718" type="curve"/>
    </contour>
    <contour>
      <point x="130" y="464" type="line"/>
      <point x="181" y="464"/>
      <point x="220" y="456"/>
      <point x="220" y="405" type="curve" smooth="yes"/>
      <point x="220" y="366"/>
      <point x="198" y="346"/>
      <point x="154" y="346" type="curve" smooth="yes"/>
      <point x="113" y="346"/>
      <point x="86" y="363"/>
      <point x="62" y="392" type="curve"/>
      <point x="50" y="385"/>
      <point x="44" y="377"/>
      <point x="44" y="360" type="curve" smooth="yes"/>
      <point x="44" y="309"/>
      <point x="98" y="281"/>
      <point x="159" y="281" type="curve" smooth="yes"/>
      <point x="241" y="281"/>
      <point x="314" y="331"/>
      <point x="314" y="410" type="curve" smooth="yes"/>
      <point x="314" y="467"/>
      <point x="277" y="489"/>
      <point x="227" y="493" type="curve"/>
      <point x="275" y="507"/>
      <point x="322" y="541"/>
      <point x="322" y="599" type="curve" smooth="yes"/>
      <point x="322" y="655"/>
      <point x="277" y="681"/>
      <point x="217" y="681" type="curve" smooth="yes"/>
      <point x="153" y="681"/>
      <point x="80" y="651"/>
      <point x="80" y="600" type="curve" smooth="yes"/>
      <point x="80" y="586"/>
      <point x="86" y="577"/>
      <point x="99" y="570" type="curve"/>
      <point x="120" y="599"/>
      <point x="156" y="616"/>
      <point x="188" y="616" type="curve" smooth="yes"/>
      <point x="217" y="616"/>
      <point x="232" y="602"/>
      <point x="232" y="576" type="curve" smooth="yes"/>
      <point x="232" y="530"/>
      <point x="183" y="509"/>
      <point x="135" y="503" type="curve"/>
    </contour>
    <contour>
      <point x="475" y="133" type="line"/>
      <point x="478" y="88" type="line"/>
      <point x="522" y="77"/>
      <point x="583" y="71"/>
      <point x="624" y="69" type="curve"/>
      <point x="620" y="43" type="line" smooth="yes"/>
      <point x="619" y="33"/>
      <point x="619" y="30"/>
      <point x="619" y="30" type="curve"/>
      <point x="619" y="2"/>
      <point x="631" y="-12"/>
      <point x="666" y="-12" type="curve" smooth="yes"/>
      <point x="684" y="-12"/>
      <point x="697" y="-8"/>
      <point x="707" y="0" type="curve"/>
      <point x="717" y="67" type="line"/>
      <point x="769" y="72"/>
      <point x="790" y="90"/>
      <point x="790" y="120" type="curve" smooth="yes"/>
      <point x="790" y="129"/>
      <point x="788" y="141"/>
      <point x="782" y="151" type="curve"/>
      <point x="771" y="144"/>
      <point x="752" y="139"/>
      <point x="731" y="137" type="curve"/>
      <point x="745" y="216"/>
      <point x="763" y="309"/>
      <point x="780" y="380" type="curve"/>
      <point x="692" y="388" type="line"/>
    </contour>
    <contour>
      <point x="677" y="303" type="line"/>
      <point x="663" y="261"/>
      <point x="650" y="192"/>
      <point x="638" y="136" type="curve"/>
      <point x="608" y="136"/>
      <point x="572" y="138"/>
      <point x="545" y="141" type="curve"/>
    </contour>
  </outline>
</glyph>
<glyph name="questiondown" format="1">
  <advance width="408"/>
  <unicode hex="00BF"/>
  <outline>
    <contour>
      <point x="-42" y="-131"/>
      <point x="31" y="-170"/>
      <point x="139" y="-170" type="curve" smooth="yes"/>
      <point x="228" y="-170"/>
      <point x="373" y="-144"/>
      <point x="373" y="-43" type="curve" smooth="yes"/>
      <point x="373" y="6"/>
      <point x="339" y="27"/>
      <point x="288" y="27" type="curve" smooth="yes"/>
      <point x="272" y="27"/>
      <point x="254" y="25"/>
      <point x="239" y="21" type="curve"/>
      <point x="246" y="6"/>
      <point x="248" y="-11"/>
      <point x="248" y="-23" type="curve" smooth="yes"/>
      <point x="248" y="-80"/>
      <point x="205" y="-110"/>
      <point x="152" y="-110" type="curve" smooth="yes"/>
      <point x="112" y="-110"/>
      <point x="83" y="-93"/>
      <point x="83" y="-49" type="curve" smooth="yes"/>
      <point x="83" y="80"/>
      <point x="326" y="131"/>
      <point x="326" y="259" type="curve" smooth="yes"/>
      <point x="326" y="301"/>
      <point x="307" y="331"/>
      <point x="269" y="331" type="curve"/>
      <point x="269" y="178"/>
      <point x="-42" y="125"/>
      <point x="-42" y="-47" type="curve" smooth="yes"/>
    </contour>
    <component base="period" xOffset="241" yOffset="426"/>
  </outline>
</glyph>
<glyph name="AE" format="1">
  <advance width="668"/>
  <unicode hex="00C6"/>
  <outline>
    <contour>
      <point x="287" y="177" type="line"/>
      <point x="285" y="161"/>
      <point x="284" y="138"/>
      <point x="284" y="126" type="curve" smooth="yes"/>
      <point x="284" y="30"/>
      <point x="350" y="-20"/>
      <point x="451" y="-20" type="curve" smooth="yes"/>
      <point x="507" y="-20"/>
      <point x="588" y="-5"/>
      <point x="588" y="52" type="curve" smooth="yes"/>
      <point x="588" y="61"/>
      <point x="586" y="72"/>
      <point x="582" y="80" type="curve"/>
      <point x="560" y="72"/>
      <point x="532" y="66"/>
      <point x="498" y="66" type="curve" smooth="yes"/>
      <point x="435" y="66"/>
      <point x="396" y="87"/>
      <point x="396" y="160" type="curve" smooth="yes"/>
      <point x="396" y="180"/>
      <point x="399" y="221"/>
      <point x="408" y="314" type="curve"/>
      <point x="433" y="303"/>
      <point x="469" y="295"/>
      <point x="502" y="295" type="curve" smooth="yes"/>
      <point x="558" y="295"/>
      <point x="599" y="317"/>
      <point x="599" y="377" type="curve"/>
      <point x="414" y="377" type="line"/>
      <point x="433" y="592" type="line"/>
      <point x="470" y="577"/>
      <point x="528" y="565"/>
      <point x="568" y="565" type="curve" smooth="yes"/>
      <point x="631" y="565"/>
      <point x="676" y="595"/>
      <point x="676" y="660" type="curve"/>
      <point x="287" y="660" type="line"/>
      <point x="-71" y="0" type="line"/>
      <point x="44" y="0" type="line"/>
      <point x="44" y="0"/>
      <point x="134" y="177"/>
      <point x="134" y="177" type="curve"/>
    </contour>
    <contour>
      <point x="173" y="254" type="line"/>
      <point x="220" y="348"/>
      <point x="274" y="454"/>
      <point x="333" y="569" type="curve"/>
      <point x="320" y="441"/>
      <point x="308" y="342"/>
      <point x="298" y="254" type="curve"/>
    </contour>
    <contour>
      <point x="390" y="660" type="move" name="top"/>
    </contour>
  </outline>
</glyph>
<glyph name="multiply" format="1">
  <advance width="554"/>
  <unicode hex="00D7"/>
  <outline>
    <contour>
      <point x="317" y="220" type="line"/>
      <point x="505" y="412" type="line"/>
      <point x="498" y="429"/>
      <point x="485" y="447"/>
      <point x="464" y="447" type="curve" smooth="yes"/>
      <point x="443" y="447"/>
      <point x="425" y="439"/>
      <point x="408" y="422" type="curve" smooth="yes"/>
      <point x="276" y="289" type="line"/>
    </contour>
    <contour>
      <point x="225" y="242" type="line"/>
      <point x="29" y="41" type="line"/>
      <point x="38" y="23"/>
      <point x="56" y="11"/>
      <point x="77" y="11" type="curve" smooth="yes"/>
      <point x="99" y="11"/>
      <point x="115" y="19"/>
      <point x="131" y="35" type="curve" smooth="yes"/>
      <point x="266" y="167" type="line"/>
    </contour>
    <contour>
      <point x="365" y="13" type="line"/>
      <point x="404" y="14"/>
      <point x="432" y="41"/>
      <point x="432" y="76" type="curve" smooth="yes"/>
      <point x="432" y="87"/>
      <point x="429" y="96"/>
      <point x="423" y="104" type="curve" smooth="yes"/>
      <point x="174" y="448" type="line"/>
      <point x="136" y="440"/>
      <point x="114" y="416"/>
      <point x="114" y="385" type="curve" smooth="yes"/>
      <point x="114" y="370"/>
      <point x="119" y="357"/>
      <point x="126" y="347" type="curve" smooth="yes"/>
    </contour>
  </outline>
</glyph>
<glyph name="Oslash" format="1">
  <advance width="607"/>
  <unicode hex="00D8"/>
  <outline>
    <contour>
      <point x="580" y="693"/>
      <point x="570" y="680"/>
      <point x="550" y="658" type="curve" smooth="yes"/>
      <point x="493" y="594" type="line"/>
      <point x="544" y="608" type="line"/>
      <point x="514" y="655"/>
      <point x="463" y="680"/>
      <point x="388" y="680" type="curve" smooth="yes"/>
      <point x="143" y="680"/>
      <point x="43" y="416"/>
      <point x="43" y="214" type="curve" smooth="yes"/>
      <point x="43" y="173"/>
      <point x="47" y="138"/>
      <point x="56" y="107" type="curve"/>
      <point x="-11" y="33" type="line" smooth="yes"/>
      <point x="-23" y="19"/>
      <point x="-29" y="4"/>
      <point x="-29" y="-12" type="curve" smooth="yes"/>
      <point x="-28" y="-35"/>
      <point x="-14" y="-54"/>
      <point x="12" y="-54" type="curve"/>
      <point x="24" y="-34"/>
      <point x="33" y="-20"/>
      <point x="56" y="5" type="curve" smooth="yes"/>
      <point x="121" y="76" type="line"/>
      <point x="72" y="65" type="line"/>
      <point x="101" y="10"/>
      <point x="153" y="-20"/>
      <point x="236" y="-20" type="curve" smooth="yes"/>
      <point x="484" y="-20"/>
      <point x="581" y="249"/>
      <point x="581" y="447" type="curve" smooth="yes"/>
      <point x="581" y="493"/>
      <point x="576" y="533"/>
      <point x="564" y="566" type="curve"/>
      <point x="616" y="623" type="line" smooth="yes"/>
      <point x="629" y="638"/>
      <point x="635" y="653"/>
      <point x="635" y="666" type="curve" smooth="yes"/>
      <point x="635" y="694"/>
      <point x="611" y="713"/>
      <point x="594" y="713" type="curve"/>
    </contour>
    <contour>
      <point x="444" y="327"/>
      <point x="419" y="51"/>
      <point x="262" y="51" type="curve" smooth="yes"/>
      <point x="195" y="51"/>
      <point x="169" y="100"/>
      <point x="168" y="172" type="curve" smooth="yes"/>
      <point x="168" y="185" type="line"/>
      <point x="139" y="97" type="line"/>
      <point x="456" y="447" type="line"/>
    </contour>
    <contour>
      <point x="410" y="610"/>
      <point x="436" y="585"/>
      <point x="448" y="545" type="curve"/>
      <point x="136" y="197" type="line"/>
      <point x="167" y="204" type="line"/>
      <point x="170" y="263"/>
      <point x="183" y="345"/>
      <point x="196" y="402" type="curve" smooth="yes"/>
      <point x="220" y="505"/>
      <point x="262" y="610"/>
      <point x="361" y="610" type="curve" smooth="yes"/>
    </contour>
    <contour>
      <point x="363" y="660" type="move" name="top"/>
    </contour>
  </outline>
</glyph>
<glyph name="Thorn" format="1">
  <advance width="500"/>
  <unicode hex="00DE"/>
  <outline>
    <contour>
      <point x="149" y="660" type="line"/>
      <point x="22" y="0" type="line"/>
      <point x="138" y="0" type="line"/>
      <point x="228" y="461" type="line"/>
      <point x="245" y="465"/>
      <point x="264" y="468"/>
      <point x="286" y="468" type="curve" smooth="yes"/>
      <point x="358" y="468"/>
      <point x="390" y="436"/>
      <point x="390" y="357" type="curve" smooth="yes"/>
      <point x="390" y="259"/>
      <point x="340" y="197"/>
      <point x="238" y="197" type="curve" smooth="yes"/>
      <point x="227" y="197"/>
      <point x="224" y="197"/>
      <point x="212" y="198" type="curve"/>
      <point x="221" y="159"/>
      <point x="269" y="149"/>
      <point x="309" y="149" type="curve" smooth="yes"/>
      <point x="435" y="149"/>
      <point x="514" y="245"/>
      <point x="514" y="376" type="curve" smooth="yes"/>
      <point x="514" y="496"/>
      <point x="447" y="538"/>
      <point x="312" y="538" type="curve" smooth="yes"/>
      <point x="291" y="538"/>
      <point x="265" y="537"/>
      <point x="242" y="536" type="curve"/>
      <point x="267" y="660" type="line"/>
    </contour>
  </outline>
</glyph>
<glyph name="germandbls" format="1">
  <advance width="615"/>
  <unicode hex="00DF"/>
  <outline>
    <contour>
      <point x="3" y="50" type="line" smooth="yes"/>
      <point x="-9" y="-11"/>
      <point x="-29" y="-98"/>
      <point x="-87" y="-121" type="curve"/>
      <point x="-76" y="-147"/>
      <point x="-50" y="-160"/>
      <point x="-21" y="-160" type="curve" smooth="yes"/>
      <point x="61" y="-160"/>
      <point x="99" y="-54"/>
      <point x="123" y="70" type="curve" smooth="yes"/>
      <point x="227" y="568" type="line" smooth="yes"/>
      <point x="239" y="633"/>
      <point x="266" y="676"/>
      <point x="325" y="676" type="curve" smooth="yes"/>
      <point x="381" y="676"/>
      <point x="402" y="638"/>
      <point x="402" y="588" type="curve" smooth="yes"/>
      <point x="402" y="479"/>
      <point x="293" y="458"/>
      <point x="293" y="364" type="curve" smooth="yes"/>
      <point x="293" y="296"/>
      <point x="344" y="260"/>
      <point x="395" y="227" type="curve" smooth="yes"/>
      <point x="444" y="194"/>
      <point x="492" y="163"/>
      <point x="492" y="108" type="curve" smooth="yes"/>
      <point x="492" y="60"/>
      <point x="455" y="29"/>
      <point x="406" y="29" type="curve" smooth="yes"/>
      <point x="367" y="29"/>
      <point x="347" y="48"/>
      <point x="347" y="85" type="curve" smooth="yes"/>
      <point x="347" y="104"/>
      <point x="352" y="125"/>
      <point x="361" y="144" type="curve"/>
      <point x="350" y="153"/>
      <point x="334" y="156"/>
      <point x="318" y="156" type="curve" smooth="yes"/>
      <point x="278" y="156"/>
      <point x="225" y="137"/>
      <point x="225" y="81" type="curve" smooth="yes"/>
      <point x="225" y="10"/>
      <point x="311" y="-22"/>
      <point x="388" y="-22" type="curve" smooth="yes"/>
      <point x="497" y="-22"/>
      <point x="601" y="41"/>
      <point x="601" y="143" type="curve" smooth="yes"/>
      <point x="601" y="218"/>
      <point x="545" y="256"/>
      <point x="493" y="292" type="curve" smooth="yes"/>
      <point x="446" y="322"/>
      <point x="402" y="349"/>
      <point x="402" y="398" type="curve" smooth="yes"/>
      <point x="402" y="473"/>
      <point x="514" y="478"/>
      <point x="514" y="599" type="curve" smooth="yes"/>
      <point x="514" y="683"/>
      <point x="431" y="720"/>
      <point x="327" y="720" type="curve" smooth="yes"/>
      <point x="216" y="720"/>
      <point x="132" y="678"/>
      <point x="110" y="564" type="curve" smooth="yes"/>
    </contour>
  </outline>
</glyph>
<glyph name="ae" format="1">
  <advance width="734"/>
  <unicode hex="00E6"/>
  <outline>
    <contour>
      <point x="546" y="530"/>
      <point x="498" y="513"/>
      <point x="458" y="484" type="curve"/>
      <point x="407" y="513"/>
      <point x="353" y="530"/>
      <point x="298" y="530" type="curve" smooth="yes"/>
      <point x="109" y="530"/>
      <point x="26" y="332"/>
      <point x="26" y="164" type="curve" smooth="yes"/>
      <point x="26" y="48"/>
      <point x="66" y="-20"/>
      <point x="175" y="-20" type="curve" smooth="yes"/>
      <point x="247" y="-20"/>
      <point x="300" y="10"/>
      <point x="346" y="58" type="curve"/>
      <point x="373" y="6"/>
      <point x="431" y="-20"/>
      <point x="501" y="-20" type="curve" smooth="yes"/>
      <point x="610" y="-20"/>
      <point x="685" y="43"/>
      <point x="685" y="102" type="curve" smooth="yes"/>
      <point x="685" y="119"/>
      <point x="679" y="138"/>
      <point x="661" y="142" type="curve"/>
      <point x="636" y="92"/>
      <point x="589" y="63"/>
      <point x="531" y="63" type="curve" smooth="yes"/>
      <point x="460" y="63"/>
      <point x="438" y="106"/>
      <point x="438" y="179" type="curve" smooth="yes"/>
      <point x="438" y="195"/>
      <point x="439" y="217"/>
      <point x="441" y="239" type="curve"/>
      <point x="454" y="238"/>
      <point x="478" y="237"/>
      <point x="496" y="237" type="curve" smooth="yes"/>
      <point x="634" y="237"/>
      <point x="748" y="299"/>
      <point x="748" y="417" type="curve" smooth="yes"/>
      <point x="748" y="502"/>
      <point x="688" y="530"/>
      <point x="608" y="530" type="curve" smooth="yes"/>
    </contour>
    <contour>
      <point x="621" y="473"/>
      <point x="640" y="454"/>
      <point x="640" y="415" type="curve" smooth="yes"/>
      <point x="640" y="325"/>
      <point x="539" y="288"/>
      <point x="448" y="288" type="curve"/>
      <point x="463" y="366"/>
      <point x="511" y="473"/>
      <point x="588" y="473" type="curve" smooth="yes"/>
    </contour>
    <contour>
      <point x="333" y="201" type="line" smooth="yes"/>
      <point x="320" y="130"/>
      <point x="287" y="40"/>
      <point x="212" y="40" type="curve" smooth="yes"/>
      <point x="158" y="40"/>
      <point x="140" y="86"/>
      <point x="140" y="145" type="curve" smooth="yes"/>
      <point x="140" y="191"/>
      <point x="151" y="261"/>
      <point x="163" y="310" type="curve" smooth="yes"/>
      <point x="181" y="385"/>
      <point x="213" y="470"/>
      <point x="291" y="470" type="curve" smooth="yes"/>
      <point x="318" y="470"/>
      <point x="352" y="460"/>
      <point x="377" y="439" type="curve"/>
    </contour>
    <contour>
      <point x="448" y="510" type="move" name="top"/>
    </contour>
  </outline>
</glyph>
